<svg
   xmlns="http://www.w3.org/2000/svg"
   width="79.699966"
   height="86.395279"
   viewBox="0 0 21.087282 22.858752">
  <rect width="100%" height="100%" fill="white"/>
  <g
     transform="translate(-86.974216,-39.886101)">
    <g
       transform="matrix(0.26458333,0,0,0.26458333,84.645572,60.676121)">
      <path fill="black" d="m 37.3535,-43.0664 22.5586,22.6074 c 2.9785,2.9785 6.0059,2.8809 8.8379,0.0977 l 17.627,-17.334 c 2.832,-2.832 2.8808,-5.8106 -0.1465,-8.8379 l -3.711,-3.7109 c -4.1015,3.6132 -15.4785,11.8164 -17.2851,10.0097 -0.586,-0.5859 0,-1.123 0.3418,-1.5136 3.4668,-3.9063 8.7402,-9.9122 9.375,-16.0645 L 55.5176,-77.2461 c -2.2949,-2.2949 -7.4219,-1.8066 -8.4961,2.9297 -2.0996,9.082 -5.127,15.3809 -10.0586,22.3144 -2.002,2.8321 -2.9785,5.5665 0.3906,8.9356 z M 12.3047,4.29688 c 4.6875,4.6875 10.8887,4.63867 15.332,0.19531 3.6133,-3.613284 8.252,-14.4043 10.7422,-18.89649 l 9.8145,9.81446 c 3.0273,3.02734 6.0546,2.97851 8.8867,0.14648 l 2.9297,-2.92969 c 2.832,-2.83205 2.832,-5.85935 -0.1465,-8.88675 L 33.0078,-43.1641 c -3.0273,-3.0761 -5.957,-3.0761 -8.8867,-0.1464 l -2.9785,2.9785 c -2.8809,2.8808 -2.8809,5.7617 0.1953,8.8379 l 9.7168,9.7168 c -4.4922,2.4902 -15.332,7.1289 -18.9453,10.7421 -4.39456,4.39458 -4.49221,10.742231 0.1953,15.33208 z m 4.5898,-4.589849 c -1.1718,-1.269531 -1.123,-3.076171 0,-4.199221 1.1719,-1.12304 3.125,-1.12304 4.1993,0 1.123,1.17188 1.123,3.02735 0,4.199221 -1.1231,1.123047 -3.0274,1.171875 -4.1993,0 z"/>
    </g>
  </g>
</svg>
