<svg
   xmlns="http://www.w3.org/2000/svg"
   width="61.328178"
   height="80.664078"
   viewBox="0 0 16.226413 21.342371">
  <rect width="100%" height="100%" fill="white"/>
  <g
     transform="translate(-16.077269,-23.257386)">
    <g
       transform="matrix(0.26458333,0,0,0.26458333,13.493449,43.230332)">
      <path fill="black" d="M 19.7266,5.17578 H 61.084 c 6.543,0 10.0098,-3.4668 10.0098,-10.00976 V -43.2129 h -26.709 c -3.711,0 -5.5664,-1.9043 -5.5664,-5.5664 v -26.709 H 19.7266 c -6.3965,0 -9.96098,3.4668 -9.96098,10.0098 v 60.64452 c 0,6.54296 3.46678,10.00976 9.96098,10.00976 z M 44.7754,-46.2891 H 70.459 c -0.0977,-0.7324 -0.8301,-1.416 -1.5137,-2.1484 L 44.043,-73.3398 c -0.6836,-0.6836 -1.4649,-1.3672 -2.1485,-1.5137 v 25.6836 c 0,1.9531 0.9278,2.8808 2.8809,2.8808 z m -19.043,19.3848 c -0.8789,0 -1.6113,-0.6348 -1.6113,-1.5137 0,-0.8789 0.7324,-1.5136 1.6113,-1.5136 H 55.127 c 0.8789,0 1.6113,0.6347 1.6113,1.5136 0,0.8789 -0.7324,1.5137 -1.6113,1.5137 z m 0,14.0137 c -0.8789,0 -1.6113,-0.6836 -1.6113,-1.5137 0,-0.8789 0.7324,-1.5625 1.6113,-1.5625 H 55.127 c 0.8789,0 1.6113,0.6836 1.6113,1.5625 0,0.8301 -0.7324,1.5137 -1.6113,1.5137 z"/>
    </g>
  </g>
</svg>
