<svg
   xmlns="http://www.w3.org/2000/svg"
   width="78.222679"
   height="83.581604"
   viewBox="0 0 20.696417 22.1143">
  <g
     transform="translate(-31.229172,-19.847612)">
    <g
       transform="matrix(0.26458333,0,0,0.26458333,28.645352,40.235586)">
      <path fill="#5C6370" d="M 15.6738,-10.3516 41.3086,4.3457 c 5.0781,2.88086 9.9609,2.92969 15.1855,0 l 25.586,-14.6973 c 3.7597,-2.1484 5.9082,-4.2968 5.9082,-10.498 v -28.9063 c 0,-6.1035 -2.1485,-8.2519 -5.8594,-10.3515 L 56.543,-74.8047 c -5.2735,-3.0273 -10.2051,-2.9785 -15.2832,0 L 15.625,-60.1074 c -3.6621,2.0996 -5.85938,4.248 -5.85938,10.3515 v 28.9063 c 0,6.2012 2.14848,8.3496 5.90818,10.498 z m 4.0039,-6.2011 c -2.0507,-1.2207 -2.8808,-2.3926 -2.8808,-4.4922 v -28.5156 c 0,-2.002 0.8301,-3.1739 2.832,-4.3457 l 24.5606,-14.209 c 3.2226,-1.8067 6.0546,-1.9043 9.375,0 l 24.5605,14.209 c 2.002,1.1718 2.832,2.3437 2.832,4.3457 v 28.5156 c 0,2.0996 -0.83,3.2715 -2.8808,4.4922 L 53.5645,-2.44141 c -3.3204,1.904301 -6.1524,1.855472 -9.375,0 z"/>
    </g>
  </g>
</svg>
