<svg
   xmlns="http://www.w3.org/2000/svg"
   width="68.11528"
   height="38.2812"
   viewBox="0 0 18.022167 10.128568">
  <g
     transform="translate(-16.691297,-19.036906)">
    <g
       transform="matrix(0.26458333,0,0,0.26458333,14.107477,33.893869)">
      <path fill="#5C6370" d="m 10.9375,-24.7559 c -0.7324,0.6836 -1.17188,1.709 -1.17188,2.8321 0,2.2949 1.75778,4.0527 4.05278,4.0527 1.123,0 2.1484,-0.4394 2.832,-1.1719 l 27.1973,-27.2949 27.1484,27.2949 c 0.6836,0.7325 1.8066,1.1719 2.8809,1.1719 2.2949,0 4.0039,-1.7578 4.0039,-4.0527 0,-1.1231 -0.4395,-2.1485 -1.1719,-2.8321 L 46.7285,-54.9316 c -0.7324,-0.8301 -1.8066,-1.2207 -2.8808,-1.2207 -1.1231,0 -2.1485,0.3906 -2.8809,1.2207 z"/>
    </g>
  </g>
</svg>
