<svg
   xmlns="http://www.w3.org/2000/svg"
   width="86.80265"
   height="88.679993"
   viewBox="0 0 22.966534 23.463249">
  <rect width="100%" height="100%" fill="white"/>
  <g
     transform="translate(-45.969114,-5.5659946)">
    <g
       transform="matrix(0.26458333,0,0,0.26458333,43.640026,25.749571)">
      <path fill="black" d="m 12.9395,8.30078 c 5.7128,5.76172 13.5253,5.41992 19.873,-0.8789 7.6172,-7.5195362 15.625,-23.53518 26.6602,-34.61918 7.1777,-7.1777 13.623,-2.832 21.7285,-5.9082 l -6.7871,-23.3886 c -0.8789,-3.0274 -0.1953,-5.9571 3.9062,-7.0801 l 12.9395,-3.4668 c -0.5371,-0.9278 -1.3184,-1.9043 -2.295,-2.832 -8.1543,-8.2032 -21.9238,-8.5938 -30.0781,-0.8301 -12.1582,11.6211 -2.1484,23.9746 -12.1094,33.9355 -9.5703,9.5703 -25.2929,17.4317 -33.0078,25.1953 -6.2988,6.25003 -6.64059,14.06253 -0.83,19.87308 z M 60.3516,-48.8281 c -0.586,0.1465 -1.0743,-0.1465 -1.2207,-0.6836 -0.1465,-0.5371 0.1464,-1.0742 0.6836,-1.2207 l 8.0566,-2.1973 c 0.5859,-0.1465 1.0742,0.1953 1.2207,0.7324 0.1465,0.4883 -0.1465,1.0743 -0.6836,1.2207 z m 22.8515,14.8437 c 2.002,-0.9765 4.0528,-2.4902 6.25,-4.6386 3.8086,-3.6622 6.0059,-8.7891 6.1524,-13.086 l -12.8418,3.4668 c -1.5137,0.3418 -2.7344,0.293 -3.711,-0.0488 z m -21.875,-10.5468 c -0.5371,0.1464 -1.0742,-0.1465 -1.2207,-0.6836 -0.1465,-0.4883 0.1465,-1.0743 0.7324,-1.2207 l 8.0567,-2.1485 c 0.5371,-0.1465 1.0254,0.1465 1.1719,0.6836 0.1953,0.5371 -0.1465,1.0742 -0.6836,1.2207 z m 0.9766,4.3457 c -0.5371,0.1464 -1.0742,-0.1465 -1.2207,-0.7325 -0.1465,-0.4882 0.1465,-1.0254 0.7324,-1.2207 l 8.0566,-2.1484 c 0.5372,-0.1465 1.0743,0.1465 1.2208,0.7324 0.1464,0.4883 -0.1954,1.0254 -0.7325,1.1719 z M 17.2363,4.10156 c -3.0761,-2.97851 -3.0761,-7.95898 -0.0976,-11.03515 2.8808,-3.02735 7.9101,-3.07621 11.0351,-0.04883 3.0274,2.88086 2.9785,7.861326 0,11.03515 -2.8808,2.97852 -7.959,2.92969 -10.9375,0.04883 z"/>
    </g>
  </g>
</svg>
