<svg
   xmlns="http://www.w3.org/2000/svg"
   width="87.890579"
   height="64.257828"
   viewBox="0 0 23.254382 17.001551">
  <rect width="100%" height="100%" fill="white"/>
  <g
     transform="translate(-55.65257,-36.767082)">
    <g
       transform="matrix(0.26458333,0,0,0.26458333,53.06875,54.582536)">
      <path fill="black" d="m 16.6016,-53.6621 h 6.5429 c 3.711,0 6.836,-3.0762 6.836,-6.8359 0,-3.7598 -3.125,-6.836 -6.836,-6.836 h -6.5429 c -3.711,0 -6.83598,3.0762 -6.83598,6.836 0,3.7597 3.12498,6.8359 6.83598,6.8359 z m 27.0996,-0.4883 h 47.6074 c 3.5156,0 6.3476,-2.7832 6.3476,-6.3476 0,-3.5157 -2.7832,-6.3477 -6.3476,-6.3477 H 43.7012 c -3.5157,0 -6.3477,2.7832 -6.3477,6.3477 0,3.5156 2.7832,6.3476 6.3477,6.3476 z m -27.0996,25.7813 h 6.5429 c 3.711,0 6.836,-3.0762 6.836,-6.836 0,-3.7597 -3.125,-6.8359 -6.836,-6.8359 h -6.5429 c -3.711,0 -6.83598,3.0762 -6.83598,6.8359 0,3.7598 3.12498,6.836 6.83598,6.836 z m 27.0996,-0.4883 h 47.6074 c 3.5156,0 6.3476,-2.7832 6.3476,-6.3477 0,-3.5156 -2.7832,-6.3476 -6.3476,-6.3476 H 43.7012 c -3.5157,0 -6.3477,2.7832 -6.3477,6.3476 0,3.5156 2.7832,6.3477 6.3477,6.3477 z M 16.6016,-3.07617 h 6.5429 c 3.711,0 6.836,-3.07617 6.836,-6.83594 0,-3.75979 -3.125,-6.83589 -6.836,-6.83589 h -6.5429 c -3.711,0 -6.83598,3.0761 -6.83598,6.83589 0,3.75977 3.12498,6.83594 6.83598,6.83594 z m 27.0996,-0.48828 h 47.6074 c 3.5156,0 6.3476,-2.78321 6.3476,-6.34766 0,-3.51559 -2.7832,-6.34769 -6.3476,-6.34769 H 43.7012 c -3.5157,0 -6.3477,2.7832 -6.3477,6.34769 0,3.51563 2.7832,6.34766 6.3477,6.34766 z"/>
    </g>
  </g>
</svg>
