<svg
   xmlns="http://www.w3.org/2000/svg"
   width="2.1109824cm"
   height="2.1109827cm"
   viewBox="0 0 21.109824 21.109826">
  <rect width="100%" height="100%" fill="white"/>
  <g
     transform="translate(-40.84985,-12.034373)">
    <g
       transform="matrix(0.26458333,0,0,0.26458333,39.041174,31.916884)">
      <path fill="black" d="m 46.7285,4.63867 c 21.8262,0 39.8926,-18.06637 39.8926,-39.89257 0,-21.7773 -18.1152,-39.8926 -39.9414,-39.8926 -21.8262,0 -39.84376,18.1153 -39.84376,39.8926 0,21.8262 18.06636,39.89257 39.89256,39.89257 z M 45.8496,-27.2461 c -2.7344,0 -4.1992,-1.2207 -4.1992,-3.7598 V -31.25 c 0,-3.7598 2.1973,-5.8594 4.9805,-7.7637 3.3203,-2.2949 5.0293,-3.5156 5.0293,-6.0058 0,-2.5391 -1.9043,-4.2481 -4.834,-4.2481 -2.002,0 -3.5645,0.8301 -4.9805,2.4903 -1.4648,1.5136 -1.9531,2.832 -4.5898,2.832 -1.9532,0 -3.6621,-1.2695 -3.6621,-3.418 0,-0.7812 0.1464,-1.4648 0.4394,-2.1972 1.2207,-3.711 6.1523,-6.6895 13.1348,-6.6895 7.2754,0 13.5742,3.8086 13.5742,10.8398 0,4.834 -2.7344,7.0801 -6.6406,9.668 -2.4903,1.6602 -4.0039,2.9785 -4.1504,5.0293 0,0.0488 0,0.1953 0,0.2441 -0.1953,1.8067 -1.6602,3.2227 -4.1016,3.2227 z m 0.1953,12.0606 c -2.6855,0 -4.9804,-1.8555 -4.9804,-4.5899 0,-2.7344 2.246,-4.5898 4.9804,-4.5898 2.6367,0 4.8828,1.8554 4.8828,4.5898 0,2.7344 -2.2461,4.5899 -4.8828,4.5899 z"/>
    </g>
  </g>
</svg>
