<svg
   xmlns="http://www.w3.org/2000/svg"
   width="65.108398"
   height="90.869102"
   viewBox="0 0 17.226597 24.042451">
  <rect width="100%" height="100%" fill="white"/>
  <g
     transform="translate(-17.845035,-6.0323472)">
    <g
       transform="matrix(0.26458333,0,0,0.26458333,15.263927,27.503893)">
      <path fill="black" d="m 16.4551,7.71484 c 2.0019,0 3.5156,-1.46484 3.125,-3.95507 L 16.8945,-14.1602 c -0.3418,-2.0507 0.3907,-2.8808 2.9297,-3.6132 l 2.5879,-0.6836 c -0.293,1.1718 -0.4394,2.4414 -0.4394,3.955 0,12.50005 9.375,24.2188 20.3613,24.2188 10.9375,0 20.3125,-11.71875 20.3125,-24.2188 0,-1.5136 -0.1465,-2.7832 -0.4395,-3.955 l 2.6368,0.6836 c 2.4902,0.7324 3.2226,1.5625 2.9296,3.6132 L 65.0391,3.75977 c -0.3907,2.49023 1.123,3.95507 3.1738,3.95507 2.0996,0 3.0762,-1.31836 3.418,-3.46679 L 74.707,-15.4297 c 0.7325,-4.4922 -1.0742,-6.8848 -6.0058,-8.0566 l -17.4805,-4.1504 v -0.3906 c 1.4648,-0.6836 2.5391,-2.002 3.1738,-3.5157 l 11.9629,-1.7578 c 4.7364,-0.6836 6.9336,-3.4668 6.9336,-8.2519 v -13.4278 c 0,-2.0507 -1.2207,-3.2715 -3.3203,-3.2715 -2.0508,0 -3.2715,1.2208 -3.2715,3.2715 v 12.0117 c 0,2.6368 -1.4648,3.3692 -3.7597,3.711 l -8.3985,1.2207 c -0.4394,-1.1231 -1.123,-2.0996 -2.1484,-2.7832 v -0.3906 c 6.5429,-1.1719 9.8144,-5.127 9.8144,-10.9375 0,-4.6387 -1.6113,-8.8868 -4.2968,-12.3047 l 0.1953,-0.1465 c 3.8086,-2.6367 4.6386,-6.8359 2.2949,-11.2793 l -1.7578,-3.125 c -0.7813,-1.5137 -1.7578,-2.1484 -3.125,-2.1484 -1.7578,0 -3.0762,1.2695 -3.0762,2.9785 0,0.7812 0.0977,1.1718 0.5371,2.0019 l 1.3672,2.3438 c 1.2207,2.1972 1.0254,3.9551 -0.7812,5.2246 l -0.0977,0.0488 c -3.1738,-2.1973 -7.0313,-3.4668 -11.1328,-3.4668 -4.1016,0 -7.9102,1.2695 -11.084,3.418 -1.8066,-1.2695 -2.002,-3.0274 -0.7812,-5.2246 l 1.3671,-2.3438 c 0.4395,-0.8301 0.5371,-1.2207 0.5371,-2.0019 0,-1.709 -1.3183,-2.9785 -3.0761,-2.9785 -1.3672,0 -2.3438,0.6347 -3.125,2.1484 l -1.7578,3.125 c -2.3438,4.4434 -1.5137,8.6426 2.2949,11.2793 l 0.0976,0.0488 c -2.7343,3.418 -4.3945,7.7637 -4.3945,12.4024 0,5.8105 3.2715,9.7656 9.8145,10.9375 v 0.3906 c -0.9766,0.6836 -1.709,1.6601 -2.1485,2.7832 l -8.3496,-1.2207 c -2.3437,-0.3418 -3.7597,-1.0742 -3.7597,-3.711 v -12.0117 c 0,-2.0507 -1.2696,-3.2715 -3.3204,-3.2715 -2.0507,0 -3.3203,1.2208 -3.3203,3.2715 v 13.4278 c 0,4.7851 2.1973,7.5683 6.9336,8.2519 l 11.9629,1.7578 c 0.6348,1.5137 1.709,2.8321 3.1738,3.5157 v 0.3906 l -17.4804,4.1504 c -4.9317,1.1718 -6.73831,3.5644 -6.00589,8.0566 L 12.9883,4.24805 c 0.3418,2.14843 1.3183,3.46679 3.4668,3.46679 z M 35.7422,-47.5098 c -4.0527,0 -6.1524,-1.709 -6.1524,-4.9804 0,-6.5918 5.9082,-12.3047 12.7442,-12.3047 6.7871,0 12.7441,5.7129 12.7441,12.3047 0,3.2714 -2.0996,4.9804 -6.1523,4.9804 z m 0.293,12.1094 c 0,-3.5156 2.0996,-5.4199 5.957,-5.4199 h 0.6836 c 3.8086,0 5.9082,1.9043 5.9082,5.4199 0,4.3457 -2.832,8.0566 -6.1035,8.0566 h -0.3418 c -3.2715,0 -6.1035,-3.7109 -6.1035,-8.0566 z M 42.334,2.49023 c -7.7637,0 -13.2813,-8.98437 -13.2813,-16.01563 0,-4.7363 2.6368,-7.6172 8.1543,-7.6172 h 10.2539 c 5.4688,0 8.1055,2.8809 8.1055,7.6172 0,7.03126 -5.5176,16.01563 -13.2324,16.01563 z"/>
    </g>
  </g>
</svg>
