<?xml version="1.0" encoding="UTF-8"?>
<!--Generator: Apple Native CoreSVG 123-->
<!DOCTYPE svg
PUBLIC "-//W3C//DTD SVG 1.1//EN"
       "http://www.w3.org/Graphics/SVG/1.1/DTD/svg11.dtd">
<svg version="1.1" xmlns="http://www.w3.org/2000/svg" xmlns:xlink="http://www.w3.org/1999/xlink" width="3300" height="2200">
 <!--glyph: "uni100645.medium", point size: 100.000000, font version: "Version 15.0d5e5", template writer version: "5"-->
 <g id="Notes">
  <rect height="2200" id="artboard" style="fill:white;opacity:1" width="3300" x="0" y="0"/>
  <line id="" style="fill:none;stroke:black;opacity:1;stroke-width:0.5;" x1="263" x2="3036" y1="292" y2="292"/>
  <text style="stroke:none;fill:black;font-family:-apple-system,&quot;SF Pro Display&quot;,&quot;SF Pro Text&quot;,Helvetica,sans-serif;font-weight:bold;" transform="matrix(1 0 0 1 263 322)">Weight/Scale Variations</text>
  <text style="stroke:none;fill:black;font-family:-apple-system,&quot;SF Pro Display&quot;,&quot;SF Pro Text&quot;,Helvetica,sans-serif;text-anchor:middle;" transform="matrix(1 0 0 1 559.711 322)">Ultralight</text>
  <text style="stroke:none;fill:black;font-family:-apple-system,&quot;SF Pro Display&quot;,&quot;SF Pro Text&quot;,Helvetica,sans-serif;text-anchor:middle;" transform="matrix(1 0 0 1 856.422 322)">Thin</text>
  <text style="stroke:none;fill:black;font-family:-apple-system,&quot;SF Pro Display&quot;,&quot;SF Pro Text&quot;,Helvetica,sans-serif;text-anchor:middle;" transform="matrix(1 0 0 1 1153.13 322)">Light</text>
  <text style="stroke:none;fill:black;font-family:-apple-system,&quot;SF Pro Display&quot;,&quot;SF Pro Text&quot;,Helvetica,sans-serif;text-anchor:middle;" transform="matrix(1 0 0 1 1449.84 322)">Regular</text>
  <text style="stroke:none;fill:black;font-family:-apple-system,&quot;SF Pro Display&quot;,&quot;SF Pro Text&quot;,Helvetica,sans-serif;text-anchor:middle;" transform="matrix(1 0 0 1 1746.56 322)">Medium</text>
  <text style="stroke:none;fill:black;font-family:-apple-system,&quot;SF Pro Display&quot;,&quot;SF Pro Text&quot;,Helvetica,sans-serif;text-anchor:middle;" transform="matrix(1 0 0 1 2043.27 322)">Semibold</text>
  <text style="stroke:none;fill:black;font-family:-apple-system,&quot;SF Pro Display&quot;,&quot;SF Pro Text&quot;,Helvetica,sans-serif;text-anchor:middle;" transform="matrix(1 0 0 1 2339.98 322)">Bold</text>
  <text style="stroke:none;fill:black;font-family:-apple-system,&quot;SF Pro Display&quot;,&quot;SF Pro Text&quot;,Helvetica,sans-serif;text-anchor:middle;" transform="matrix(1 0 0 1 2636.69 322)">Heavy</text>
  <text style="stroke:none;fill:black;font-family:-apple-system,&quot;SF Pro Display&quot;,&quot;SF Pro Text&quot;,Helvetica,sans-serif;text-anchor:middle;" transform="matrix(1 0 0 1 2933.4 322)">Black</text>
  <line id="" style="fill:none;stroke:black;opacity:1;stroke-width:0.5;" x1="263" x2="3036" y1="1903" y2="1903"/>
  <g id="" transform="matrix(1 0 0 1 263 1933)">
   <path d="M 9.24805 0.830078 C 13.5547 0.830078 17.1387 -2.74414 17.1387 -7.05078 C 17.1387 -11.3574 13.5449 -14.9316 9.23828 -14.9316 C 4.94141 -14.9316 1.36719 -11.3574 1.36719 -7.05078 C 1.36719 -2.74414 4.95117 0.830078 9.24805 0.830078 Z M 9.24805 -0.654297 C 5.70312 -0.654297 2.87109 -3.49609 2.87109 -7.05078 C 2.87109 -10.6055 5.69336 -13.4473 9.23828 -13.4473 C 12.793 -13.4473 15.6348 -10.6055 15.6445 -7.05078 C 15.6543 -3.49609 12.8027 -0.654297 9.24805 -0.654297 Z M 9.22852 -3.42773 C 9.69727 -3.42773 9.9707 -3.74023 9.9707 -4.25781 L 9.9707 -6.31836 L 12.1973 -6.31836 C 12.6953 -6.31836 13.0371 -6.57227 13.0371 -7.04102 C 13.0371 -7.51953 12.7148 -7.7832 12.1973 -7.7832 L 9.9707 -7.7832 L 9.9707 -10.0098 C 9.9707 -10.5273 9.69727 -10.8496 9.22852 -10.8496 C 8.75977 -10.8496 8.50586 -10.5078 8.50586 -10.0098 L 8.50586 -7.7832 L 6.29883 -7.7832 C 5.78125 -7.7832 5.44922 -7.51953 5.44922 -7.04102 C 5.44922 -6.57227 5.80078 -6.31836 6.29883 -6.31836 L 8.50586 -6.31836 L 8.50586 -4.25781 C 8.50586 -3.75977 8.75977 -3.42773 9.22852 -3.42773 Z"/>
  </g>
  <g id="" transform="matrix(1 0 0 1 281.506 1933)">
   <path d="M 11.709 2.91016 C 17.1484 2.91016 21.6699 -1.60156 21.6699 -7.05078 C 21.6699 -12.4902 17.1387 -17.0117 11.6992 -17.0117 C 6.25 -17.0117 1.74805 -12.4902 1.74805 -7.05078 C 1.74805 -1.60156 6.25977 2.91016 11.709 2.91016 Z M 11.709 1.25 C 7.09961 1.25 3.41797 -2.44141 3.41797 -7.05078 C 3.41797 -11.6504 7.08984 -15.3516 11.6992 -15.3516 C 16.2988 -15.3516 20 -11.6504 20.0098 -7.05078 C 20.0195 -2.44141 16.3086 1.25 11.709 1.25 Z M 11.6797 -2.41211 C 12.207 -2.41211 12.5195 -2.77344 12.5195 -3.33984 L 12.5195 -6.23047 L 15.5762 -6.23047 C 16.123 -6.23047 16.5039 -6.51367 16.5039 -7.03125 C 16.5039 -7.55859 16.1426 -7.86133 15.5762 -7.86133 L 12.5195 -7.86133 L 12.5195 -10.9277 C 12.5195 -11.5039 12.207 -11.8555 11.6797 -11.8555 C 11.1621 -11.8555 10.8789 -11.4844 10.8789 -10.9277 L 10.8789 -7.86133 L 7.83203 -7.86133 C 7.25586 -7.86133 6.89453 -7.55859 6.89453 -7.03125 C 6.89453 -6.51367 7.28516 -6.23047 7.83203 -6.23047 L 10.8789 -6.23047 L 10.8789 -3.33984 C 10.8789 -2.79297 11.1621 -2.41211 11.6797 -2.41211 Z"/>
  </g>
  <g id="" transform="matrix(1 0 0 1 304.914 1933)">
   <path d="M 14.9707 5.67383 C 21.9336 5.67383 27.6855 -0.078125 27.6855 -7.04102 C 27.6855 -14.0039 21.9238 -19.7559 14.9609 -19.7559 C 7.99805 -19.7559 2.25586 -14.0039 2.25586 -7.04102 C 2.25586 -0.078125 8.00781 5.67383 14.9707 5.67383 Z M 14.9707 3.85742 C 8.92578 3.85742 4.08203 -1.00586 4.08203 -7.04102 C 4.08203 -13.0762 8.91602 -17.9395 14.9609 -17.9395 C 20.9961 -17.9395 25.8594 -13.0762 25.8691 -7.04102 C 25.8789 -1.00586 21.0059 3.85742 14.9707 3.85742 Z M 14.9414 -1.06445 C 15.5176 -1.06445 15.8594 -1.45508 15.8594 -2.06055 L 15.8594 -6.13281 L 20.0977 -6.13281 C 20.6934 -6.13281 21.1133 -6.46484 21.1133 -7.02148 C 21.1133 -7.59766 20.7227 -7.93945 20.0977 -7.93945 L 15.8594 -7.93945 L 15.8594 -12.1875 C 15.8594 -12.8027 15.5176 -13.1934 14.9414 -13.1934 C 14.3848 -13.1934 14.0625 -12.7832 14.0625 -12.1875 L 14.0625 -7.93945 L 9.82422 -7.93945 C 9.20898 -7.93945 8.80859 -7.59766 8.80859 -7.02148 C 8.80859 -6.46484 9.23828 -6.13281 9.82422 -6.13281 L 14.0625 -6.13281 L 14.0625 -2.06055 C 14.0625 -1.47461 14.3848 -1.06445 14.9414 -1.06445 Z"/>
  </g>
  <text style="stroke:none;fill:black;font-family:-apple-system,&quot;SF Pro Display&quot;,&quot;SF Pro Text&quot;,Helvetica,sans-serif;font-weight:bold;" transform="matrix(1 0 0 1 263 1953)">Design Variations</text>
  <text style="stroke:none;fill:black;font-family:-apple-system,&quot;SF Pro Display&quot;,&quot;SF Pro Text&quot;,Helvetica,sans-serif;" transform="matrix(1 0 0 1 263 1971)">Symbols are supported in up to nine weights and three scales.</text>
  <text style="stroke:none;fill:black;font-family:-apple-system,&quot;SF Pro Display&quot;,&quot;SF Pro Text&quot;,Helvetica,sans-serif;" transform="matrix(1 0 0 1 263 1989)">For optimal layout with text and other symbols, vertically align</text>
  <text style="stroke:none;fill:black;font-family:-apple-system,&quot;SF Pro Display&quot;,&quot;SF Pro Text&quot;,Helvetica,sans-serif;" transform="matrix(1 0 0 1 263 2007)">symbols with the adjacent text.</text>
  <rect height="14" id="" style="fill:#00AEEF;stroke:none;opacity:0.4;" width="3" x="776" y="1919"/>
  <g id="" transform="matrix(1 0 0 1 779 1933)">
   <path d="M 10.5273 0 L 12.373 0 L 7.17773 -14.0918 L 5.43945 -14.0918 L 0.244141 0 L 2.08984 0 L 3.50586 -4.0332 L 9.11133 -4.0332 Z M 6.2793 -11.9531 L 6.33789 -11.9531 L 8.59375 -5.52734 L 4.02344 -5.52734 Z"/>
  </g>
  <rect height="14" id="" style="fill:#00AEEF;stroke:none;opacity:0.4;" width="3" x="791.617" y="1919"/>
  <text style="stroke:none;fill:black;font-family:-apple-system,&quot;SF Pro Display&quot;,&quot;SF Pro Text&quot;,Helvetica,sans-serif;font-weight:bold;" transform="matrix(1 0 0 1 776 1953)">Margins</text>
  <text style="stroke:none;fill:black;font-family:-apple-system,&quot;SF Pro Display&quot;,&quot;SF Pro Text&quot;,Helvetica,sans-serif;" transform="matrix(1 0 0 1 776 1971)">Leading and trailing margins on the left and right side of each symbol</text>
  <text style="stroke:none;fill:black;font-family:-apple-system,&quot;SF Pro Display&quot;,&quot;SF Pro Text&quot;,Helvetica,sans-serif;" transform="matrix(1 0 0 1 776 1989)">can be adjusted by modifying the width of the blue rectangles.</text>
  <text style="stroke:none;fill:black;font-family:-apple-system,&quot;SF Pro Display&quot;,&quot;SF Pro Text&quot;,Helvetica,sans-serif;" transform="matrix(1 0 0 1 776 2007)">Modifications are automatically applied proportionally to all</text>
  <text style="stroke:none;fill:black;font-family:-apple-system,&quot;SF Pro Display&quot;,&quot;SF Pro Text&quot;,Helvetica,sans-serif;" transform="matrix(1 0 0 1 776 2025)">scales and weights.</text>
  <g id="" transform="matrix(1 0 0 1 1289 1933)">
   <path d="M 2.83203 3.61328 L 4.375 5.15625 C 5.22461 5.98633 6.19141 5.91797 7.05078 4.9707 L 17.2754 -6.16211 C 17.6953 -5.86914 18.0859 -5.87891 18.5645 -5.97656 L 19.6094 -6.19141 L 20.3027 -5.49805 L 20.2539 -4.98047 C 20.1855 -4.44336 20.3418 -4.0332 20.8398 -3.53516 L 21.6602 -2.72461 C 22.1582 -2.2168 22.8223 -2.1875 23.3008 -2.66602 L 26.5527 -5.91797 C 27.0312 -6.39648 27.002 -7.05078 26.5039 -7.55859 L 25.6836 -8.37891 C 25.1855 -8.87695 24.7656 -9.05273 24.2383 -8.97461 L 23.7109 -8.91602 L 23.0469 -9.58008 L 23.3398 -10.7227 C 23.4766 -11.2891 23.3301 -11.748 22.7148 -12.3535 L 20.3027 -14.7559 C 16.7578 -18.2812 12.2168 -18.1738 9.11133 -15.0391 C 8.68164 -14.6094 8.64258 -14.0234 8.91602 -13.5938 C 9.14062 -13.2227 9.61914 -12.998 10.2734 -13.1641 C 11.7871 -13.5449 13.3008 -13.4277 14.7852 -12.4219 L 14.1602 -10.8398 C 13.9258 -10.2539 13.9453 -9.77539 14.1797 -9.33594 L 3.01758 0.9375 C 2.08008 1.80664 1.97266 2.75391 2.83203 3.61328 Z M 10.6641 -14.6484 C 13.3301 -16.6406 16.6504 -16.3184 19.0527 -13.916 L 21.6797 -11.3086 C 21.9141 -11.0742 21.9434 -10.8887 21.875 -10.5957 L 21.5039 -9.0332 L 23.0762 -7.46094 L 24.0332 -7.54883 C 24.3164 -7.57812 24.4043 -7.55859 24.6387 -7.33398 L 25.2539 -6.70898 L 22.5098 -3.95508 L 21.8848 -4.58008 C 21.6602 -4.80469 21.6406 -4.89258 21.6699 -5.17578 L 21.7578 -6.14258 L 20.1953 -7.70508 L 18.5742 -7.39258 C 18.291 -7.33398 18.1445 -7.33398 17.9004 -7.57812 L 15.7324 -9.75586 C 15.498 -9.99023 15.4688 -10.127 15.5957 -10.4395 L 16.5527 -12.7246 C 14.9512 -14.2578 12.832 -15.1074 10.791 -14.4531 C 10.7031 -14.4238 10.6445 -14.4434 10.6152 -14.4824 C 10.5859 -14.5312 10.5859 -14.5801 10.6641 -14.6484 Z M 4.10156 2.91016 C 3.60352 2.41211 3.7793 2.10938 4.11133 1.80664 L 15.0781 -8.31055 L 16.2988 -7.08008 L 6.15234 3.84766 C 5.84961 4.17969 5.46875 4.27734 5.05859 3.87695 Z"/>
  </g>
  <text style="stroke:none;fill:black;font-family:-apple-system,&quot;SF Pro Display&quot;,&quot;SF Pro Text&quot;,Helvetica,sans-serif;font-weight:bold;" transform="matrix(1 0 0 1 1289 1953)">Exporting</text>
  <text style="stroke:none;fill:black;font-family:-apple-system,&quot;SF Pro Display&quot;,&quot;SF Pro Text&quot;,Helvetica,sans-serif;" transform="matrix(1 0 0 1 1289 1971)">Symbols should be outlined when exporting to ensure the</text>
  <text style="stroke:none;fill:black;font-family:-apple-system,&quot;SF Pro Display&quot;,&quot;SF Pro Text&quot;,Helvetica,sans-serif;" transform="matrix(1 0 0 1 1289 1989)">design is preserved when submitting to Xcode.</text>
  <text id="template-version" style="stroke:none;fill:black;font-family:-apple-system,&quot;SF Pro Display&quot;,&quot;SF Pro Text&quot;,Helvetica,sans-serif;text-anchor:end;" transform="matrix(1 0 0 1 3036 1933)">Template v.1.0</text>
  <text style="stroke:none;fill:black;font-family:-apple-system,&quot;SF Pro Display&quot;,&quot;SF Pro Text&quot;,Helvetica,sans-serif;text-anchor:end;" transform="matrix(1 0 0 1 3036 1951)">Generated from hammer.fill</text>
  <text style="stroke:none;fill:black;font-family:-apple-system,&quot;SF Pro Display&quot;,&quot;SF Pro Text&quot;,Helvetica,sans-serif;text-anchor:end;" transform="matrix(1 0 0 1 3036 1969)">Typeset at 100 points</text>
  <text style="stroke:none;fill:black;font-family:-apple-system,&quot;SF Pro Display&quot;,&quot;SF Pro Text&quot;,Helvetica,sans-serif;" transform="matrix(1 0 0 1 263 726)">Small</text>
  <text style="stroke:none;fill:black;font-family:-apple-system,&quot;SF Pro Display&quot;,&quot;SF Pro Text&quot;,Helvetica,sans-serif;" transform="matrix(1 0 0 1 263 1156)">Medium</text>
  <text style="stroke:none;fill:black;font-family:-apple-system,&quot;SF Pro Display&quot;,&quot;SF Pro Text&quot;,Helvetica,sans-serif;" transform="matrix(1 0 0 1 263 1586)">Large</text>
 </g>
 <g id="Guides">
  <g id="H-reference" style="fill:#27AAE1;stroke:none;" transform="matrix(1 0 0 1 339 696)">
   <path d="M 54.9316 0 L 57.666 0 L 30.5664 -70.459 L 28.0762 -70.459 L 0.976562 0 L 3.66211 0 L 12.9395 -24.4629 L 45.7031 -24.4629 Z M 29.1992 -67.0898 L 29.4434 -67.0898 L 44.8242 -26.709 L 13.8184 -26.709 Z"/>
  </g>
  <line id="Baseline-S" style="fill:none;stroke:#27AAE1;opacity:1;stroke-width:0.577;" x1="263" x2="3036" y1="696" y2="696"/>
  <line id="Capline-S" style="fill:none;stroke:#27AAE1;opacity:1;stroke-width:0.577;" x1="263" x2="3036" y1="625.541" y2="625.541"/>
  <g id="H-reference" style="fill:#27AAE1;stroke:none;" transform="matrix(1 0 0 1 339 1126)">
   <path d="M 54.9316 0 L 57.666 0 L 30.5664 -70.459 L 28.0762 -70.459 L 0.976562 0 L 3.66211 0 L 12.9395 -24.4629 L 45.7031 -24.4629 Z M 29.1992 -67.0898 L 29.4434 -67.0898 L 44.8242 -26.709 L 13.8184 -26.709 Z"/>
  </g>
  <line id="Baseline-M" style="fill:none;stroke:#27AAE1;opacity:1;stroke-width:0.577;" x1="263" x2="3036" y1="1126" y2="1126"/>
  <line id="Capline-M" style="fill:none;stroke:#27AAE1;opacity:1;stroke-width:0.577;" x1="263" x2="3036" y1="1055.54" y2="1055.54"/>
  <g id="H-reference" style="fill:#27AAE1;stroke:none;" transform="matrix(1 0 0 1 339 1556)">
   <path d="M 54.9316 0 L 57.666 0 L 30.5664 -70.459 L 28.0762 -70.459 L 0.976562 0 L 3.66211 0 L 12.9395 -24.4629 L 45.7031 -24.4629 Z M 29.1992 -67.0898 L 29.4434 -67.0898 L 44.8242 -26.709 L 13.8184 -26.709 Z"/>
  </g>
  <line id="Baseline-L" style="fill:none;stroke:#27AAE1;opacity:1;stroke-width:0.577;" x1="263" x2="3036" y1="1556" y2="1556"/>
  <line id="Capline-L" style="fill:none;stroke:#27AAE1;opacity:1;stroke-width:0.577;" x1="263" x2="3036" y1="1485.54" y2="1485.54"/>
  <rect height="119.336" id="left-margin" style="fill:#00AEEF;stroke:none;opacity:0.4;" width="11.2661" x="1376.8" y="1030.79"/>
  <rect height="119.336" id="right-margin" style="fill:#00AEEF;stroke:none;opacity:0.4;" width="11.2395" x="1511.65" y="1030.79"/>
 </g>
 <g id="Symbols">
  <g id="Black-L" transform="matrix(1 0 0 1 2834.3 1556)">
   <path d="M 131.543 -91.4062 C 110.107 -112.793 76.3672 -113.086 55.7617 -92.4805 C 51.0742 -87.793 50.7812 -81.9824 53.0762 -77.7832 C 55.2246 -73.7793 59.8145 -71.2891 65.4297 -72.9004 C 76.5625 -76.2695 84.4238 -75.6836 90.7227 -71.0449 L 87.5488 -63.0371 C 84.8633 -56.25 86.084 -50.3906 91.0156 -45.459 L 108.203 -28.2227 C 112.744 -23.6328 117.383 -21.6797 122.51 -22.8027 L 130.762 -24.6094 L 133.545 -21.8262 L 132.861 -16.748 C 132.373 -12.9883 133.35 -9.91211 136.719 -6.49414 L 143.311 0.195312 C 148.242 5.17578 153.027 5.37109 157.764 0.585938 L 180.322 -21.9727 C 185.01 -26.709 184.814 -31.3965 179.883 -36.377 L 173.242 -42.9688 C 169.824 -46.3379 166.65 -47.4121 163.037 -46.875 L 157.861 -46.1426 L 155.029 -48.877 L 157.08 -57.373 C 158.203 -62.3047 156.104 -66.8457 151.221 -71.7285 Z M 20.5566 11.5234 C 12.8418 18.4082 12.5 25.5371 19.2871 32.2754 L 32.6172 45.6055 C 39.3555 52.3438 46.4844 51.9043 53.3203 44.2383 L 104.736 -13.1836 L 77.9297 -39.8438 Z"/>
  </g>
  <g id="Heavy-L" transform="matrix(1 0 0 1 2538.94 1556)">
   <path d="M 130.322 -90.7715 C 109.961 -111.133 76.4648 -111.719 56.25 -91.4551 C 52.002 -87.207 51.8555 -81.9824 54.1016 -78.3203 C 56.1035 -74.8535 60.1074 -72.8027 64.8926 -74.2188 C 76.5137 -77.7344 85.4492 -77.2461 92.5293 -71.9727 L 88.916 -62.5488 C 86.377 -56.1523 87.5488 -50.8789 92.1387 -46.2402 L 108.74 -29.6387 C 112.939 -25.3906 117.188 -23.7305 122.021 -24.8535 L 130.566 -26.7578 L 133.936 -23.3887 L 133.252 -18.0664 C 132.715 -14.4531 133.643 -11.6211 136.816 -8.39844 L 143.066 -2.09961 C 147.412 2.24609 151.807 2.49023 156.006 -1.70898 L 178.076 -23.7793 C 182.227 -27.9785 181.982 -32.2754 177.637 -36.6699 L 171.387 -42.9199 C 168.164 -46.1426 165.234 -47.0703 161.719 -46.5332 L 156.348 -45.8008 L 152.93 -49.1211 L 155.176 -57.959 C 156.299 -62.5 154.443 -66.748 149.854 -71.2891 Z M 20.2148 12.6465 C 12.9883 19.1406 12.5977 25.7812 19.043 32.2266 L 31.6406 44.7754 C 38.0371 51.1719 44.7754 50.7324 51.1719 43.6035 L 105.029 -16.5527 L 80.2734 -41.1621 Z"/>
  </g>
  <g id="Bold-L" transform="matrix(1 0 0 1 2243.71 1556)">
   <path d="M 128.955 -90.1367 C 109.717 -109.229 76.5625 -110.254 56.7871 -90.332 C 53.0273 -86.5723 53.0762 -82.0312 55.2246 -78.9062 C 57.0312 -76.123 60.4004 -74.5605 64.3066 -75.6836 C 76.4648 -79.3457 86.6211 -79.0039 94.6289 -72.998 L 90.3809 -62.0117 C 88.1348 -56.1035 89.209 -51.416 93.457 -47.1191 L 109.326 -31.2012 C 113.086 -27.3926 116.943 -26.0254 121.533 -27.0996 L 130.371 -29.1992 L 134.424 -25.1465 L 133.74 -19.6289 C 133.154 -16.1133 133.887 -13.5742 136.963 -10.498 L 142.773 -4.6875 C 146.484 -0.976562 150.439 -0.732422 154.004 -4.29688 L 175.537 -25.7812 C 179.102 -29.3457 178.809 -33.3008 175.146 -37.0605 L 169.287 -42.8711 C 166.26 -45.8984 163.672 -46.6797 160.205 -46.1426 L 154.639 -45.4102 L 150.586 -49.3652 L 153.027 -58.5449 C 154.102 -62.7441 152.588 -66.6016 148.291 -70.8496 Z M 19.8242 13.916 C 13.0859 19.9219 12.6953 26.0742 18.7988 32.2266 L 30.5176 43.8477 C 36.5723 49.9023 42.8223 49.5117 48.7793 42.8223 L 105.371 -20.3125 L 82.9102 -42.627 Z"/>
  </g>
  <g id="Semibold-L" transform="matrix(1 0 0 1 1948.03 1556)">
   <path d="M 127.979 -89.6973 C 109.57 -107.959 76.6602 -109.18 57.1777 -89.5996 C 53.7598 -86.1328 53.9062 -82.0312 56.0059 -79.2969 C 57.7148 -76.9531 60.6445 -75.7324 63.916 -76.709 C 76.416 -80.4199 87.4023 -80.2246 96.0449 -73.7305 L 91.4551 -61.6211 C 89.3066 -56.0547 90.3809 -51.7578 94.3359 -47.7539 L 109.717 -32.2754 C 113.232 -28.7598 116.797 -27.5879 121.143 -28.6621 L 130.273 -30.8594 L 134.717 -26.3184 L 134.033 -20.6543 C 133.496 -17.2363 134.082 -14.8926 137.012 -11.9629 L 142.578 -6.44531 C 145.85 -3.17383 149.512 -2.97852 152.588 -6.10352 L 173.828 -27.1973 C 176.904 -30.3223 176.66 -33.9844 173.389 -37.3047 L 167.871 -42.8223 C 164.99 -45.752 162.598 -46.4355 159.229 -45.8496 L 153.467 -45.1172 L 148.975 -49.5117 L 151.562 -58.9844 C 152.637 -62.9395 151.27 -66.5527 147.217 -70.5566 Z M 19.5801 14.7949 C 13.1836 20.459 12.793 26.3184 18.6523 32.1777 L 29.7363 43.2129 C 35.5469 49.0234 41.5039 48.6328 47.168 42.2852 L 105.566 -22.9004 L 84.7656 -43.6523 Z"/>
  </g>
  <g id="Medium-L" transform="matrix(1 0 0 1 1652.1 1556)">
   <path d="M 127.246 -89.3555 C 109.473 -106.982 76.709 -108.398 57.4707 -89.0137 C 54.2969 -85.791 54.541 -82.0801 56.6406 -79.5898 C 58.2031 -77.5879 60.791 -76.6602 63.623 -77.4902 C 76.3672 -81.25 87.9883 -81.1523 97.1191 -74.2676 L 92.2363 -61.3281 C 90.2344 -56.0547 91.2109 -52.0508 95.0195 -48.1934 L 110.059 -33.0566 C 113.33 -29.7852 116.699 -28.8086 120.898 -29.834 L 130.127 -32.0801 L 134.961 -27.2461 L 134.229 -21.4844 C 133.691 -18.1152 134.277 -15.918 137.109 -13.0859 L 142.383 -7.8125 C 145.361 -4.88281 148.779 -4.6875 151.562 -7.42188 L 172.51 -28.2715 C 175.293 -31.0547 175 -34.5215 172.07 -37.4512 L 166.797 -42.8223 C 164.014 -45.6055 161.768 -46.2402 158.447 -45.6543 L 152.588 -44.9219 L 147.754 -49.6582 L 150.488 -59.3262 C 151.514 -63.0371 150.293 -66.4551 146.387 -70.3125 Z M 19.3359 15.4297 C 13.2324 20.8984 12.8418 26.4648 18.5059 32.1777 L 29.1504 42.7734 C 34.7656 48.3887 40.4785 47.9492 45.8984 41.8945 L 105.762 -24.8535 L 86.1328 -44.4336 Z"/>
  </g>
  <g id="Regular-L" transform="matrix(1 0 0 1 1356.39 1556)">
   <path d="M 126.318 -88.8672 C 109.326 -105.713 76.7578 -107.422 57.8613 -88.2324 C 54.9805 -85.3516 55.3711 -82.0801 57.4219 -79.9805 C 58.8867 -78.4668 61.0352 -77.832 63.1836 -78.4668 C 76.3184 -82.373 88.7695 -82.373 98.5352 -74.9512 L 93.2617 -60.9863 C 91.4062 -56.0059 92.3828 -52.3926 95.8984 -48.8281 L 110.449 -34.1309 C 113.428 -31.1035 116.553 -30.3711 120.557 -31.3965 L 130.029 -33.7402 L 135.254 -28.4668 L 134.57 -22.5098 C 133.984 -19.1895 134.424 -17.2363 137.158 -14.5508 L 142.188 -9.57031 C 144.727 -7.08008 147.852 -6.88477 150.195 -9.17969 L 170.801 -29.6387 C 173.145 -31.9824 172.803 -35.2051 170.361 -37.6953 L 165.332 -42.7734 C 162.744 -45.459 160.693 -45.9961 157.422 -45.4102 L 151.416 -44.6289 L 146.143 -49.8535 L 149.023 -59.7656 C 150.049 -63.2324 149.023 -66.4062 145.312 -70.0195 Z M 19.0918 16.3086 C 13.3301 21.4355 12.8906 26.6602 18.3594 32.1289 L 28.418 42.1387 C 33.7891 47.5098 39.1602 47.1191 44.2871 41.4062 L 106.006 -27.3926 L 87.9395 -45.459 Z"/>
  </g>
  <g id="Light-L" transform="matrix(1 0 0 1 1060.77 1556)">
   <path d="M 125.391 -88.0371 C 107.715 -105.566 76.416 -107.031 57.959 -88.1348 C 55.3711 -85.498 55.5176 -82.5684 57.4219 -80.5664 C 58.7891 -79.1016 60.6445 -78.6133 62.7441 -79.1504 C 75.4395 -82.5195 87.9883 -82.1289 97.4609 -74.4629 L 92.1875 -60.6934 C 90.5762 -56.4453 91.4062 -53.125 94.7754 -49.707 L 109.473 -34.9609 C 112.549 -31.8848 115.479 -31.25 119.189 -32.3242 L 127.637 -34.6191 L 133.398 -28.9062 L 132.812 -24.6582 C 132.08 -20.8496 132.617 -18.7012 135.547 -15.8203 L 140.771 -10.5469 C 142.969 -8.34961 145.752 -8.20312 147.754 -10.2051 L 168.799 -31.1523 C 170.85 -33.1543 170.557 -35.9863 168.408 -38.1348 L 163.135 -43.457 C 160.303 -46.3379 158.105 -46.9238 154.346 -46.1426 L 150.049 -45.5566 L 144.287 -51.2695 L 147.021 -60.0098 C 148.047 -63.3789 147.314 -66.4062 143.75 -69.873 Z M 18.7988 16.0156 C 13.5254 20.7031 12.9395 25.3418 18.0664 30.5176 L 28.125 40.5273 C 33.2031 45.6055 37.9395 45.0684 42.6758 39.7949 L 105.859 -29.9805 L 88.5742 -47.2168 Z"/>
  </g>
  <g id="Thin-L" transform="matrix(1 0 0 1 765.529 1556)">
   <path d="M 124.17 -86.9629 C 105.518 -105.371 75.9766 -106.494 58.0566 -87.9883 C 55.8594 -85.6934 55.7617 -83.2031 57.4707 -81.2988 C 58.6426 -79.9805 60.1074 -79.6387 62.1094 -80.0781 C 74.2188 -82.7637 86.9141 -81.7383 96.0449 -73.877 L 90.8203 -60.3516 C 89.5508 -56.9824 90.0879 -54.1504 93.3594 -50.8789 L 108.203 -36.0352 C 111.377 -32.8613 114.062 -32.373 117.383 -33.4961 L 124.512 -35.8398 L 130.957 -29.4922 L 130.566 -27.4414 C 129.59 -23.0469 130.176 -20.6543 133.35 -17.4805 L 138.916 -11.8652 C 140.625 -10.0586 142.92 -9.96094 144.482 -11.5234 L 166.211 -33.1543 C 167.822 -34.7168 167.578 -37.0117 165.869 -38.7207 L 160.254 -44.3359 C 157.08 -47.5098 154.688 -48.1445 150.244 -47.168 L 148.193 -46.7773 L 141.846 -53.1738 L 144.336 -60.3516 C 145.459 -63.623 145.02 -66.4062 141.699 -69.6777 Z M 18.3594 15.5762 C 13.7695 19.7266 12.9395 23.584 17.7246 28.3691 L 27.7832 38.3789 C 32.4707 43.0664 36.377 42.334 40.5273 37.7441 L 105.664 -33.3496 L 89.4531 -49.5117 Z"/>
  </g>
  <g id="Ultralight-L" transform="matrix(1 0 0 1 469.55 1556)">
   <path d="M 123.535 -86.377 C 104.395 -105.273 75.7324 -106.25 58.1055 -87.8906 C 56.1035 -85.8398 55.8594 -83.4961 57.5195 -81.6895 C 58.5938 -80.4199 59.8633 -80.1758 61.7676 -80.5176 C 73.6328 -82.8613 86.3281 -81.5918 95.3613 -73.5352 L 90.1367 -60.2051 C 89.0137 -57.2754 89.4043 -54.6387 92.627 -51.4648 L 107.52 -36.5723 C 110.791 -33.3496 113.379 -32.959 116.504 -34.1309 L 122.9 -36.4746 L 129.688 -29.7852 L 129.395 -28.9062 C 128.271 -24.1699 128.955 -21.6797 132.227 -18.3105 L 137.939 -12.5 C 139.453 -10.9375 141.504 -10.8398 142.822 -12.207 L 164.844 -34.1309 C 166.26 -35.498 166.064 -37.5488 164.551 -39.0137 L 158.74 -44.8242 C 155.469 -48.0957 152.93 -48.7793 148.193 -47.6562 L 147.266 -47.4121 L 140.625 -54.1504 L 142.969 -60.5469 C 144.092 -63.7207 143.848 -66.4062 140.625 -69.5801 Z M 18.1641 15.3809 C 13.916 19.2383 12.9395 22.6562 17.5293 27.2461 L 27.5879 37.3047 C 32.0801 41.7969 35.5469 40.918 39.4531 36.6699 L 105.566 -35.0586 L 89.8926 -50.7324 Z"/>
  </g>
  <g id="Black-M" transform="matrix(1 0 0 1 2855.4 1126)">
   <path d="M 103.125 -79.1016 C 84.7168 -97.5098 58.8867 -97.168 42.5781 -80.8594 C 38.5742 -76.8555 37.9883 -71.6797 39.7949 -67.8223 C 41.6016 -63.9648 45.752 -61.4746 51.123 -62.9883 C 58.9355 -65.2344 63.623 -64.3066 67.2363 -61.5234 L 65.4785 -57.3242 C 63.2324 -51.8066 64.1602 -46.7773 68.3594 -42.5781 L 82.6172 -28.3691 C 86.7188 -24.2676 90.6738 -22.4121 94.873 -23.3398 L 100.342 -24.6094 L 101.953 -22.9492 L 101.514 -20.166 C 101.025 -16.8945 102.051 -14.0625 104.932 -11.0352 L 110.645 -5.17578 C 115.088 -0.732422 119.092 -0.585938 123.389 -4.88281 L 141.699 -23.291 C 145.947 -27.5879 145.85 -31.4453 141.406 -35.9375 L 135.596 -41.6504 C 132.568 -44.6289 129.688 -45.6055 126.465 -45.1172 L 123.633 -44.6777 L 121.973 -46.2891 L 123.193 -51.8066 C 124.17 -56.0059 122.314 -59.9121 118.262 -63.9648 Z M 16.2109 -0.683594 C 9.91211 5.0293 9.57031 10.791 15.0879 16.2598 L 26.4648 27.6367 C 31.9824 33.1543 37.7441 32.7148 43.3594 26.4648 L 80.6641 -14.9902 L 57.5195 -37.9395 Z"/>
  </g>
  <g id="Heavy-M" transform="matrix(1 0 0 1 2559.86 1126)">
   <path d="M 102.002 -78.6621 C 84.9609 -95.7031 59.082 -95.8008 43.1152 -79.7852 C 39.4531 -76.1719 39.1113 -71.582 40.8691 -68.2617 C 42.5781 -64.9902 46.1914 -62.9883 50.6836 -64.2578 C 59.082 -66.748 64.9414 -66.1133 69.5312 -62.6465 L 67.2363 -56.8359 C 65.1367 -51.6113 66.0645 -47.0703 69.9219 -43.2129 L 83.4473 -29.6875 C 87.1094 -25.9766 90.7227 -24.4141 94.6777 -25.3418 L 100.732 -26.709 L 102.881 -24.5605 L 102.393 -21.1426 C 101.953 -18.0664 102.783 -15.5762 105.469 -12.793 L 110.742 -7.4707 C 114.6 -3.56445 118.311 -3.41797 122.07 -7.12891 L 139.746 -24.9023 C 143.457 -28.6133 143.359 -32.2266 139.453 -36.1816 L 134.131 -41.4062 C 131.396 -44.1406 128.809 -45.0195 125.83 -44.5312 L 122.363 -44.043 L 120.166 -46.1426 L 121.68 -52.3438 C 122.559 -56.2012 120.947 -59.7656 117.139 -63.5742 Z M 15.918 0.634766 C 9.96094 5.95703 9.66797 11.4258 14.9414 16.6504 L 25.4395 27.1484 C 30.6641 32.4219 36.1328 32.0312 41.4551 26.123 L 81.0547 -18.0176 L 59.9609 -38.916 Z"/>
  </g>
  <g id="Bold-M" transform="matrix(1 0 0 1 2264.44 1126)">
   <path d="M 100.781 -78.1738 C 85.2051 -93.7012 59.2773 -94.2871 43.7012 -78.6133 C 40.4785 -75.3906 40.3809 -71.4844 42.1387 -68.7012 C 43.6523 -66.1621 46.6309 -64.6484 50.1953 -65.6738 C 59.2773 -68.457 66.4551 -68.1152 72.1191 -63.8672 L 69.1895 -56.2988 C 67.2363 -51.4648 68.1641 -47.4121 71.6309 -43.8965 L 84.375 -31.1523 C 87.5488 -27.9297 90.7715 -26.709 94.5312 -27.5391 L 101.221 -29.0527 L 103.906 -26.3184 L 103.369 -22.168 C 102.979 -19.3848 103.662 -17.2363 106.104 -14.7461 L 110.84 -10.0098 C 114.111 -6.68945 117.432 -6.54297 120.605 -9.66797 L 137.598 -26.6602 C 140.723 -29.834 140.527 -33.1055 137.256 -36.4258 L 132.52 -41.1621 C 130.029 -43.6035 127.832 -44.3359 125.098 -43.8965 L 120.898 -43.3594 L 118.164 -45.9961 L 119.922 -52.9297 C 120.801 -56.3965 119.385 -59.6191 115.869 -63.1348 Z M 15.625 2.09961 C 10.0586 7.03125 9.76562 12.1582 14.7461 17.0898 L 24.3164 26.6602 C 29.248 31.543 34.375 31.2012 39.3066 25.7324 L 81.4453 -21.3379 L 62.6465 -40.0391 Z"/>
  </g>
  <g id="Semibold-M" transform="matrix(1 0 0 1 1968.63 1126)">
   <path d="M 99.9023 -77.8809 C 85.3516 -92.334 59.4238 -93.2129 44.0918 -77.7832 C 41.1621 -74.8535 41.2598 -71.3867 42.9688 -69.043 C 44.3848 -66.9434 46.9727 -65.7715 49.8535 -66.6504 C 59.4238 -69.6289 67.4805 -69.4824 73.877 -64.7461 L 70.5078 -55.957 C 68.7012 -51.3184 69.6289 -47.6562 72.8516 -44.3848 L 85.0098 -32.1289 C 87.8906 -29.2969 90.8203 -28.2715 94.3848 -29.1016 L 101.514 -30.7129 L 104.639 -27.5879 L 104.053 -22.9004 C 103.711 -20.3125 104.199 -18.4082 106.494 -16.1133 L 110.889 -11.7188 C 113.77 -8.88672 116.846 -8.69141 119.58 -11.4258 L 136.084 -27.9297 C 138.818 -30.6152 138.623 -33.6914 135.742 -36.5723 L 131.348 -41.0156 C 129.102 -43.2617 127.148 -43.8477 124.609 -43.457 L 119.873 -42.8223 L 116.748 -45.8984 L 118.701 -53.3691 C 119.531 -56.543 118.311 -59.5215 115.039 -62.793 Z M 15.3809 3.125 C 10.1074 7.8125 9.86328 12.6465 14.5996 17.3828 L 23.5352 26.2695 C 28.2227 31.0059 33.1543 30.6641 37.793 25.4883 L 81.7383 -23.6816 L 64.5508 -40.8203 Z"/>
  </g>
  <g id="Medium-M" transform="matrix(1 0 0 1 1672.61 1126)">
   <path d="M 99.2676 -77.5879 C 85.498 -91.3086 59.5703 -92.4316 44.3848 -77.1973 C 41.6992 -74.4629 41.9434 -71.3379 43.6035 -69.2871 C 44.9219 -67.5781 47.2168 -66.6504 49.6094 -67.3828 C 59.5215 -70.5078 68.2617 -70.5566 75.1953 -65.4297 L 71.5332 -55.6641 C 69.8242 -51.2207 70.7031 -47.8516 73.7305 -44.7754 L 85.498 -32.9102 C 88.0859 -30.3223 90.8691 -29.4434 94.2871 -30.2246 L 101.758 -31.9336 L 105.176 -28.5156 L 104.59 -23.4375 C 104.248 -20.9961 104.639 -19.2871 106.836 -17.1387 L 110.938 -13.0371 C 113.477 -10.5469 116.406 -10.3516 118.799 -12.7441 L 134.961 -28.8574 C 137.354 -31.25 137.109 -34.1797 134.619 -36.7188 L 130.518 -40.8691 C 128.418 -43.0176 126.66 -43.5059 124.268 -43.1152 L 119.141 -42.4805 L 115.723 -45.8008 L 117.822 -53.6621 C 118.604 -56.6895 117.529 -59.4727 114.355 -62.5488 Z M 15.1855 3.90625 C 10.1562 8.34961 9.91211 12.9883 14.502 17.627 L 22.9492 25.9766 C 27.4902 30.5664 32.2266 30.2734 36.6699 25.293 L 81.9336 -25.4395 L 65.918 -41.4062 Z"/>
  </g>
  <g id="Regular-M" transform="matrix(1 0 0 1 1376.8 1126)">
   <path d="M 98.4375 -77.2949 C 85.6934 -89.9414 59.7168 -91.3574 44.8242 -76.3672 C 42.3828 -73.9746 42.8223 -71.2402 44.4824 -69.5801 C 45.6543 -68.3594 47.5098 -67.8223 49.2676 -68.3594 C 59.668 -71.6309 69.2871 -71.9238 76.9531 -66.2598 L 72.8516 -55.3223 C 71.2891 -51.0742 72.1191 -48.0957 74.9023 -45.2637 L 86.1816 -33.9355 C 88.4277 -31.6406 90.918 -30.957 94.1895 -31.7383 L 102.1 -33.5449 L 105.908 -29.7363 L 105.273 -24.1699 C 104.932 -21.875 105.225 -20.459 107.227 -18.457 L 111.035 -14.7949 C 113.135 -12.6953 115.82 -12.5 117.822 -14.502 L 133.496 -30.0781 C 135.498 -32.0801 135.205 -34.7656 133.154 -36.9141 L 129.395 -40.6738 C 127.49 -42.627 125.977 -43.0176 123.779 -42.6758 L 118.164 -41.9922 L 114.307 -45.7031 L 116.65 -54.1016 C 117.383 -56.8359 116.455 -59.375 113.525 -62.2559 Z M 14.9902 4.88281 C 10.2539 9.08203 10.0098 13.4766 14.4043 17.9199 L 22.168 25.6348 C 26.5137 29.9805 31.0547 29.7363 35.2051 25.0488 L 82.2266 -27.7344 L 67.7734 -42.1387 Z"/>
  </g>
  <g id="Light-M" transform="matrix(1 0 0 1 1081.06 1126)">
   <path d="M 97.6074 -76.5137 C 84.1797 -89.7949 59.375 -91.0156 44.873 -76.2695 C 42.7246 -74.1211 42.9688 -71.6797 44.4824 -70.1172 C 45.6055 -68.9453 47.168 -68.5059 48.8281 -68.9941 C 58.8379 -71.8262 68.5547 -71.6797 76.0254 -65.8691 L 71.9238 -55.0781 C 70.5566 -51.4648 71.2402 -48.7793 73.9258 -46.0449 L 85.3027 -34.668 C 87.5977 -32.2754 89.9414 -31.7383 92.9688 -32.5684 L 100 -34.375 L 104.199 -30.127 L 103.711 -26.0742 C 103.223 -23.3398 103.613 -21.7773 105.762 -19.6289 L 109.766 -15.6738 C 111.572 -13.8184 113.916 -13.6719 115.576 -15.3809 L 131.689 -31.3965 C 133.447 -33.1055 133.203 -35.4492 131.396 -37.3047 L 127.441 -41.3086 C 125.342 -43.457 123.682 -43.8477 120.996 -43.3594 L 116.895 -42.8223 L 112.646 -47.0215 L 114.844 -54.2969 C 115.625 -56.9824 114.941 -59.375 112.109 -62.1094 Z M 14.6973 4.58984 C 10.4004 8.44727 10.0098 12.3047 14.1113 16.4551 L 21.9238 24.2188 C 25.9766 28.2715 29.9316 27.8809 33.7891 23.6328 L 82.0801 -29.9805 L 68.3594 -43.75 Z"/>
  </g>
  <g id="Thin-M" transform="matrix(1 0 0 1 785.67 1126)">
   <path d="M 96.4844 -75.5371 C 82.2266 -89.6484 58.9844 -90.5762 44.9707 -76.123 C 43.1641 -74.3164 43.1641 -72.2656 44.5312 -70.8008 C 45.5078 -69.7266 46.7285 -69.4336 48.2422 -69.7754 C 57.7637 -72.0215 67.5781 -71.3867 74.7559 -65.332 L 70.7031 -54.7852 C 69.6289 -51.9531 70.1172 -49.6582 72.6562 -47.1191 L 84.1309 -35.5957 C 86.5723 -33.1543 88.7207 -32.7637 91.3574 -33.6426 L 97.168 -35.4492 L 102.002 -30.6641 L 101.66 -28.6133 C 100.977 -25.293 101.416 -23.5352 103.809 -21.0938 L 108.057 -16.8457 C 109.473 -15.332 111.377 -15.2832 112.695 -16.5527 L 129.346 -33.2031 C 130.713 -34.4727 130.518 -36.377 129.102 -37.8418 L 124.805 -42.0898 C 122.461 -44.4824 120.605 -44.9707 117.334 -44.2383 L 115.283 -43.8965 L 110.449 -48.7305 L 112.451 -54.6387 C 113.281 -57.1777 112.891 -59.375 110.254 -61.9629 Z M 14.3066 4.24805 C 10.5957 7.56836 10.0098 10.7422 13.8184 14.502 L 21.582 22.2656 C 25.293 26.0254 28.5156 25.4883 31.8848 21.7773 L 81.9336 -33.0078 L 69.1406 -45.8008 Z"/>
  </g>
  <g id="Ultralight-M" transform="matrix(1 0 0 1 489.618 1126)">
   <path d="M 95.9473 -75.0488 C 81.25 -89.5508 58.7402 -90.332 45.0195 -76.0742 C 43.4082 -74.4141 43.2617 -72.5586 44.5801 -71.1426 C 45.4102 -70.1172 46.4844 -69.873 47.9492 -70.2148 C 57.2266 -72.1191 67.0898 -71.1914 74.1211 -65.0391 L 70.0684 -54.6387 C 69.1406 -52.2461 69.4824 -50.1465 71.9727 -47.6562 L 83.5449 -36.1328 C 86.0352 -33.5938 88.0859 -33.3008 90.5762 -34.1797 L 95.752 -35.9863 L 100.879 -30.9082 L 100.635 -29.8828 C 99.8047 -26.3184 100.293 -24.4141 102.832 -21.875 L 107.178 -17.4316 C 108.398 -16.1133 110.107 -16.0645 111.182 -17.1875 L 128.174 -34.082 C 129.346 -35.2051 129.15 -36.8652 127.93 -38.0859 L 123.486 -42.5293 C 120.996 -45.0195 119.043 -45.5078 115.479 -44.7266 L 114.404 -44.4824 L 109.326 -49.6094 L 111.23 -54.7852 C 112.109 -57.2754 111.865 -59.375 109.277 -61.8652 Z M 14.1113 4.05273 C 10.7422 7.12891 10.0586 9.91211 13.623 13.5254 L 21.4355 21.2891 C 24.9512 24.8535 27.7832 24.2188 30.9082 20.8008 L 81.8359 -34.5703 L 69.5312 -46.875 Z"/>
  </g>
  <g id="Black-S" transform="matrix(1 0 0 1 2872.36 696)">
   <path d="M 80.7129 -69.5801 C 66.4062 -83.8867 46.1426 -83.6426 33.3984 -70.8984 C 30.2734 -67.7734 29.834 -63.7695 31.25 -60.791 C 32.666 -57.8125 35.8887 -55.9082 40.0391 -57.0801 C 46.1914 -58.8379 49.9512 -58.1543 52.8809 -55.9082 L 51.4648 -52.4902 C 49.707 -48.1934 50.4395 -44.2871 53.7109 -41.0156 L 64.7949 -29.9316 C 67.9688 -26.7578 71.0449 -25.3418 74.3164 -26.0742 L 78.6621 -27.0508 L 79.9805 -25.7324 L 79.6387 -23.4863 C 79.248 -20.9473 80.0293 -18.75 82.2754 -16.4062 L 86.7188 -11.8652 C 90.1367 -8.39844 93.2617 -8.30078 96.582 -11.6211 L 110.889 -25.9766 C 114.16 -29.2969 114.111 -32.3242 110.645 -35.791 L 106.152 -40.2344 C 103.809 -42.5293 101.562 -43.3105 99.0723 -42.9199 L 96.7773 -42.5781 L 95.459 -43.8477 L 96.4355 -48.2422 C 97.168 -51.5137 95.752 -54.541 92.5781 -57.7148 Z M 12.6953 -8.05664 C 7.76367 -3.61328 7.51953 0.878906 11.8164 5.17578 L 20.6543 14.0137 C 24.9512 18.3105 29.4434 17.9688 33.8379 13.0859 L 63.2324 -19.5801 L 45.2637 -37.4023 Z"/>
  </g>
  <g id="Heavy-S" transform="matrix(1 0 0 1 2576.44 696)">
   <path d="M 79.9805 -69.3359 C 66.748 -82.5195 46.3379 -82.6172 33.7891 -70.1172 C 30.9082 -67.2363 30.7129 -63.623 32.0801 -61.0352 C 33.3984 -58.5449 36.2305 -56.9824 39.7461 -57.959 C 46.4355 -59.9609 51.0742 -59.5703 54.7363 -56.8359 L 52.8809 -52.1484 C 51.2207 -48.0469 51.9531 -44.4336 54.9805 -41.4062 L 65.5273 -30.8594 C 68.3594 -28.0273 71.1914 -26.8066 74.3164 -27.4902 L 79.1992 -28.5645 L 80.8594 -26.9043 L 80.4688 -23.9746 C 80.127 -21.6797 80.8105 -19.7754 82.8613 -17.627 L 86.9141 -13.4766 C 89.9414 -10.4492 92.8711 -10.3027 95.8008 -13.2324 L 109.619 -27.0508 C 112.5 -29.9805 112.402 -32.8613 109.326 -35.9375 L 105.273 -39.9902 C 103.125 -42.0898 101.172 -42.7734 98.877 -42.3828 L 95.9473 -41.9922 L 94.2383 -43.6035 L 95.459 -48.6328 C 96.1426 -51.6602 94.873 -54.4434 91.8945 -57.4219 Z M 12.5 -7.03125 C 7.8125 -2.7832 7.56836 1.51367 11.7188 5.61523 L 19.9219 13.8184 C 24.0234 17.9199 28.3691 17.627 32.5195 12.9883 L 63.5254 -21.6309 L 47.0703 -37.9883 Z"/>
  </g>
  <g id="Bold-S" transform="matrix(1 0 0 1 2280.6 696)">
   <path d="M 79.1016 -69.043 C 67.1387 -81.0059 46.5332 -81.4941 34.2285 -69.1895 C 31.6895 -66.6504 31.6406 -63.5254 33.0566 -61.3281 C 34.2285 -59.3262 36.6211 -58.1543 39.4043 -58.9844 C 46.6797 -61.2793 52.2949 -61.1328 56.8359 -57.8125 L 54.4922 -51.8066 C 52.9297 -47.8516 53.7109 -44.6289 56.4453 -41.8457 L 66.3574 -31.8848 C 68.7988 -29.4434 71.3867 -28.418 74.3652 -29.1016 L 79.834 -30.2734 L 81.8848 -28.2227 L 81.4453 -24.5605 C 81.1523 -22.5098 81.6406 -20.8984 83.4961 -18.9941 L 87.1582 -15.332 C 89.7949 -12.6953 92.4316 -12.5488 94.9707 -15.0879 L 108.154 -28.2715 C 110.645 -30.7617 110.498 -33.4473 107.91 -36.084 L 104.248 -39.6973 C 102.393 -41.6016 100.684 -42.1387 98.6816 -41.8457 L 94.9707 -41.3574 L 92.9199 -43.3594 L 94.3359 -49.0723 C 95.0195 -51.8066 93.8965 -54.3457 91.1133 -57.0801 Z M 12.3047 -5.85938 C 7.86133 -1.9043 7.66602 2.19727 11.6211 6.15234 L 19.0918 13.5742 C 22.998 17.4805 27.1484 17.2852 31.0547 12.8906 L 63.8672 -23.9258 L 49.0234 -38.6719 Z"/>
  </g>
  <g id="Semibold-S" transform="matrix(1 0 0 1 1984.5 696)">
   <path d="M 78.5156 -68.8477 C 67.3828 -79.9805 46.6797 -80.7617 34.5215 -68.6035 C 32.1777 -66.2109 32.3242 -63.4277 33.6914 -61.5234 C 34.8145 -59.9121 36.9141 -58.9844 39.209 -59.668 C 46.8262 -62.1582 53.125 -62.207 58.252 -58.5449 L 55.6152 -51.5137 C 54.1504 -47.7051 54.8828 -44.7754 57.4219 -42.1875 L 66.9434 -32.6172 C 69.1406 -30.3711 71.4844 -29.541 74.3652 -30.1758 L 80.2734 -31.4453 L 82.5684 -29.1504 L 82.0801 -24.9512 C 81.8359 -23.0469 82.2266 -21.6309 83.9355 -19.9219 L 87.3047 -16.6016 C 89.6484 -14.2578 92.1387 -14.1113 94.3848 -16.3574 L 107.178 -29.1016 C 109.375 -31.2988 109.18 -33.8379 106.885 -36.1816 L 103.564 -39.5508 C 101.855 -41.2598 100.391 -41.6992 98.5352 -41.4062 L 94.3359 -40.918 L 91.9922 -43.1641 L 93.6035 -49.3652 C 94.2383 -51.9043 93.2129 -54.2969 90.5762 -56.8848 Z M 12.1094 -5.07812 C 7.86133 -1.26953 7.71484 2.68555 11.5234 6.49414 L 18.5059 13.4277 C 22.2656 17.1875 26.3184 16.9922 30.0781 12.793 L 64.0625 -25.4883 L 50.4395 -39.1113 Z"/>
  </g>
  <g id="Medium-S" transform="matrix(1 0 0 1 1688.25 696)">
   <path d="M 78.0762 -68.7012 C 67.5781 -79.1992 46.7773 -80.1758 34.7656 -68.1152 C 32.5684 -65.918 32.8125 -63.3301 34.1797 -61.7188 C 35.2539 -60.3516 37.1094 -59.6191 39.0137 -60.2051 C 46.9727 -62.8418 53.7598 -62.9883 59.3262 -59.082 L 56.4453 -51.3184 C 55.0293 -47.6074 55.7617 -44.873 58.2031 -42.3828 L 67.3828 -33.1543 C 69.3359 -31.1035 71.582 -30.4199 74.3652 -31.0059 L 80.6152 -32.373 L 83.1055 -29.834 L 82.5684 -25.2441 C 82.373 -23.4863 82.666 -22.2656 84.2773 -20.6543 L 87.4512 -17.5293 C 89.5508 -15.4785 91.9434 -15.2832 93.9453 -17.2852 L 106.396 -29.6875 C 108.398 -31.6895 108.203 -34.1309 106.152 -36.2305 L 103.027 -39.4043 C 101.465 -40.9668 100.146 -41.3574 98.4375 -41.1133 L 93.7988 -40.5762 L 91.3086 -43.0176 L 93.0176 -49.6094 C 93.6035 -51.9531 92.6758 -54.1992 90.1367 -56.6895 Z M 12.0117 -4.44336 C 7.91016 -0.830078 7.76367 3.02734 11.4746 6.73828 L 18.0664 13.3301 C 21.7285 16.9922 25.6836 16.7969 29.2969 12.7441 L 64.2578 -26.6602 L 51.4648 -39.4531 Z"/>
  </g>
  <g id="Regular-S" transform="matrix(1 0 0 1 1392.13 696)">
   <path d="M 77.4902 -68.5547 C 67.8223 -78.1738 46.9238 -79.3945 35.0586 -67.5293 C 33.0566 -65.4785 33.4473 -63.2324 34.8145 -61.9141 C 35.8398 -60.8887 37.4023 -60.4004 38.8184 -60.8887 C 47.1191 -63.6719 54.6387 -64.0625 60.7422 -59.7656 L 57.5195 -51.0742 C 56.2012 -47.4609 56.9336 -44.9707 59.1797 -42.7246 L 67.9199 -33.8379 C 69.6289 -32.0801 71.6797 -31.4941 74.3652 -32.1289 L 81.0059 -33.5449 L 83.7891 -30.7129 L 83.2031 -25.6348 C 83.0566 -24.0723 83.252 -22.998 84.7168 -21.582 L 87.5977 -18.7988 C 89.4043 -17.041 91.6504 -16.8457 93.3594 -18.5547 L 105.42 -30.5176 C 107.129 -32.2266 106.934 -34.5215 105.127 -36.3281 L 102.344 -39.209 C 100.928 -40.6738 99.8535 -40.9668 98.291 -40.7227 L 93.1641 -40.1367 L 90.3809 -42.8223 L 92.2363 -49.9023 C 92.8223 -52.0508 91.9922 -54.1504 89.6484 -56.4941 Z M 11.8652 -3.66211 C 7.95898 -0.195312 7.8125 3.51562 11.377 7.08008 L 17.4805 13.1348 C 20.9961 16.6992 24.8535 16.5527 28.2715 12.6953 L 64.502 -28.2227 L 52.832 -39.8926 Z"/>
  </g>
  <g id="Light-S" transform="matrix(1 0 0 1 1096.3 696)">
   <path d="M 76.7578 -67.8711 C 66.5527 -78.0273 46.6309 -79.1016 35.1074 -67.4316 C 33.3496 -65.625 33.5938 -63.623 34.8633 -62.3535 C 35.7422 -61.4258 37.1094 -61.0352 38.4277 -61.4258 C 46.4355 -63.8184 53.9551 -63.8672 59.9121 -59.375 L 56.6895 -50.8789 C 55.5664 -47.8027 56.1523 -45.5566 58.3008 -43.4082 L 67.1387 -34.5215 C 68.9453 -32.666 70.8496 -32.2266 73.291 -32.8125 L 79.1504 -34.2285 L 82.2754 -31.0547 L 81.8359 -27.3438 C 81.543 -25.3418 81.7871 -24.1699 83.4473 -22.5586 L 86.4746 -19.5801 C 87.9883 -18.0176 89.9414 -17.8711 91.4062 -19.3359 L 103.857 -31.7383 C 105.322 -33.1543 105.127 -35.1562 103.613 -36.6699 L 100.586 -39.7461 C 99.0234 -41.3574 97.8027 -41.6992 95.8496 -41.3086 L 92.0898 -40.8691 L 88.916 -43.9941 L 90.6738 -50.0977 C 91.2598 -52.1973 90.625 -54.1504 88.3789 -56.3477 Z M 11.6211 -3.90625 C 8.10547 -0.78125 7.8125 2.49023 11.1816 5.81055 L 17.2852 11.8652 C 20.5566 15.1855 23.877 14.9414 27.002 11.4258 L 64.3555 -30.2734 L 53.3203 -41.3086 Z"/>
  </g>
  <g id="Thin-S" transform="matrix(1 0 0 1 800.734 696)">
   <path d="M 75.8301 -66.9922 C 64.7949 -77.8809 46.2891 -78.6621 35.2051 -67.334 C 33.7402 -65.8203 33.7891 -64.1113 34.8633 -62.9395 C 35.6445 -62.1094 36.6699 -61.8164 37.9395 -62.1582 C 45.459 -64.0137 53.125 -63.623 58.7891 -58.8867 L 55.6152 -50.6348 C 54.7363 -48.2422 55.127 -46.3867 57.1777 -44.3359 L 66.1133 -35.3516 C 68.0176 -33.4473 69.7266 -33.1055 71.875 -33.7891 L 76.6602 -35.2051 L 80.3223 -31.543 L 80.0293 -29.541 C 79.541 -27.0996 79.8828 -25.7324 81.6895 -23.877 L 84.9609 -20.6055 C 86.1816 -19.3848 87.7441 -19.2871 88.8184 -20.3613 L 101.807 -33.3008 C 102.93 -34.375 102.783 -35.9375 101.562 -37.1582 L 98.291 -40.4785 C 96.4844 -42.2852 95.0684 -42.627 92.627 -42.1387 L 90.625 -41.7969 L 86.9629 -45.459 L 88.5254 -50.3418 C 89.209 -52.3926 88.8184 -54.1504 86.7188 -56.2012 Z M 11.2793 -4.24805 C 8.25195 -1.51367 7.86133 1.07422 10.8887 4.10156 L 16.9922 10.2051 C 19.9707 13.1836 22.6074 12.793 25.3418 9.76562 L 64.209 -32.9102 L 54.0039 -43.1152 Z"/>
  </g>
  <g id="Ultralight-S" transform="matrix(1 0 0 1 504.609 696)">
   <path d="M 75.293 -66.5527 C 63.916 -77.7832 46.0938 -78.4668 35.2539 -67.2363 C 33.9355 -65.918 33.8867 -64.4043 34.9121 -63.2812 C 35.5957 -62.4512 36.4746 -62.2559 37.6465 -62.5 C 44.9707 -64.1113 52.6855 -63.4766 58.252 -58.6426 L 55.0781 -50.4883 C 54.2969 -48.4863 54.5898 -46.7773 56.5918 -44.8242 L 65.5762 -35.791 C 67.5293 -33.8379 69.1895 -33.5938 71.1426 -34.2773 L 75.3906 -35.6934 L 79.3457 -31.7871 L 79.1016 -30.7129 C 78.5156 -27.9785 78.9062 -26.5137 80.8105 -24.5605 L 84.2285 -21.1426 C 85.2051 -20.0684 86.5723 -20.0195 87.5 -20.8984 L 100.732 -34.082 C 101.709 -35.0098 101.562 -36.377 100.537 -37.4023 L 97.1191 -40.8203 C 95.166 -42.7734 93.7012 -43.1641 90.9668 -42.5293 L 89.8926 -42.334 L 85.9863 -46.2402 L 87.4512 -50.4883 C 88.1348 -52.4902 87.8906 -54.1504 85.8887 -56.1035 Z M 11.1328 -4.39453 C 8.39844 -1.9043 7.86133 0.341797 10.7422 3.22266 L 16.8457 9.32617 C 19.6289 12.1582 21.9727 11.6699 24.4629 8.93555 L 64.1113 -34.3262 L 54.3457 -44.0918 Z"/>
  </g>
 </g>
</svg>
