<?xml version="1.0" encoding="UTF-8"?>
<!--Generator: Apple Native CoreSVG 123-->
<!DOCTYPE svg
PUBLIC "-//W3C//DTD SVG 1.1//EN"
       "http://www.w3.org/Graphics/SVG/1.1/DTD/svg11.dtd">
<svg version="1.1" xmlns="http://www.w3.org/2000/svg" xmlns:xlink="http://www.w3.org/1999/xlink" width="3300" height="2200">
 <!--glyph: "uni10031B.medium", point size: 100.000000, font version: "Version 15.0d5e5", template writer version: "5"-->
 <g id="Notes">
  <rect height="2200" id="artboard" style="fill:white;opacity:1" width="3300" x="0" y="0"/>
  <line id="" style="fill:none;stroke:black;opacity:1;stroke-width:0.5;" x1="263" x2="3036" y1="292" y2="292"/>
  <text style="stroke:none;fill:black;font-family:-apple-system,&quot;SF Pro Display&quot;,&quot;SF Pro Text&quot;,Helvetica,sans-serif;font-weight:bold;" transform="matrix(1 0 0 1 263 322)">Weight/Scale Variations</text>
  <text style="stroke:none;fill:black;font-family:-apple-system,&quot;SF Pro Display&quot;,&quot;SF Pro Text&quot;,Helvetica,sans-serif;text-anchor:middle;" transform="matrix(1 0 0 1 559.711 322)">Ultralight</text>
  <text style="stroke:none;fill:black;font-family:-apple-system,&quot;SF Pro Display&quot;,&quot;SF Pro Text&quot;,Helvetica,sans-serif;text-anchor:middle;" transform="matrix(1 0 0 1 856.422 322)">Thin</text>
  <text style="stroke:none;fill:black;font-family:-apple-system,&quot;SF Pro Display&quot;,&quot;SF Pro Text&quot;,Helvetica,sans-serif;text-anchor:middle;" transform="matrix(1 0 0 1 1153.13 322)">Light</text>
  <text style="stroke:none;fill:black;font-family:-apple-system,&quot;SF Pro Display&quot;,&quot;SF Pro Text&quot;,Helvetica,sans-serif;text-anchor:middle;" transform="matrix(1 0 0 1 1449.84 322)">Regular</text>
  <text style="stroke:none;fill:black;font-family:-apple-system,&quot;SF Pro Display&quot;,&quot;SF Pro Text&quot;,Helvetica,sans-serif;text-anchor:middle;" transform="matrix(1 0 0 1 1746.56 322)">Medium</text>
  <text style="stroke:none;fill:black;font-family:-apple-system,&quot;SF Pro Display&quot;,&quot;SF Pro Text&quot;,Helvetica,sans-serif;text-anchor:middle;" transform="matrix(1 0 0 1 2043.27 322)">Semibold</text>
  <text style="stroke:none;fill:black;font-family:-apple-system,&quot;SF Pro Display&quot;,&quot;SF Pro Text&quot;,Helvetica,sans-serif;text-anchor:middle;" transform="matrix(1 0 0 1 2339.98 322)">Bold</text>
  <text style="stroke:none;fill:black;font-family:-apple-system,&quot;SF Pro Display&quot;,&quot;SF Pro Text&quot;,Helvetica,sans-serif;text-anchor:middle;" transform="matrix(1 0 0 1 2636.69 322)">Heavy</text>
  <text style="stroke:none;fill:black;font-family:-apple-system,&quot;SF Pro Display&quot;,&quot;SF Pro Text&quot;,Helvetica,sans-serif;text-anchor:middle;" transform="matrix(1 0 0 1 2933.4 322)">Black</text>
  <line id="" style="fill:none;stroke:black;opacity:1;stroke-width:0.5;" x1="263" x2="3036" y1="1903" y2="1903"/>
  <g id="" transform="matrix(1 0 0 1 263 1933)">
   <path d="M 9.24805 0.830078 C 13.5547 0.830078 17.1387 -2.74414 17.1387 -7.05078 C 17.1387 -11.3574 13.5449 -14.9316 9.23828 -14.9316 C 4.94141 -14.9316 1.36719 -11.3574 1.36719 -7.05078 C 1.36719 -2.74414 4.95117 0.830078 9.24805 0.830078 Z M 9.24805 -0.654297 C 5.70312 -0.654297 2.87109 -3.49609 2.87109 -7.05078 C 2.87109 -10.6055 5.69336 -13.4473 9.23828 -13.4473 C 12.793 -13.4473 15.6348 -10.6055 15.6445 -7.05078 C 15.6543 -3.49609 12.8027 -0.654297 9.24805 -0.654297 Z M 9.22852 -3.42773 C 9.69727 -3.42773 9.9707 -3.74023 9.9707 -4.25781 L 9.9707 -6.31836 L 12.1973 -6.31836 C 12.6953 -6.31836 13.0371 -6.57227 13.0371 -7.04102 C 13.0371 -7.51953 12.7148 -7.7832 12.1973 -7.7832 L 9.9707 -7.7832 L 9.9707 -10.0098 C 9.9707 -10.5273 9.69727 -10.8496 9.22852 -10.8496 C 8.75977 -10.8496 8.50586 -10.5078 8.50586 -10.0098 L 8.50586 -7.7832 L 6.29883 -7.7832 C 5.78125 -7.7832 5.44922 -7.51953 5.44922 -7.04102 C 5.44922 -6.57227 5.80078 -6.31836 6.29883 -6.31836 L 8.50586 -6.31836 L 8.50586 -4.25781 C 8.50586 -3.75977 8.75977 -3.42773 9.22852 -3.42773 Z"/>
  </g>
  <g id="" transform="matrix(1 0 0 1 281.506 1933)">
   <path d="M 11.709 2.91016 C 17.1484 2.91016 21.6699 -1.60156 21.6699 -7.05078 C 21.6699 -12.4902 17.1387 -17.0117 11.6992 -17.0117 C 6.25 -17.0117 1.74805 -12.4902 1.74805 -7.05078 C 1.74805 -1.60156 6.25977 2.91016 11.709 2.91016 Z M 11.709 1.25 C 7.09961 1.25 3.41797 -2.44141 3.41797 -7.05078 C 3.41797 -11.6504 7.08984 -15.3516 11.6992 -15.3516 C 16.2988 -15.3516 20 -11.6504 20.0098 -7.05078 C 20.0195 -2.44141 16.3086 1.25 11.709 1.25 Z M 11.6797 -2.41211 C 12.207 -2.41211 12.5195 -2.77344 12.5195 -3.33984 L 12.5195 -6.23047 L 15.5762 -6.23047 C 16.123 -6.23047 16.5039 -6.51367 16.5039 -7.03125 C 16.5039 -7.55859 16.1426 -7.86133 15.5762 -7.86133 L 12.5195 -7.86133 L 12.5195 -10.9277 C 12.5195 -11.5039 12.207 -11.8555 11.6797 -11.8555 C 11.1621 -11.8555 10.8789 -11.4844 10.8789 -10.9277 L 10.8789 -7.86133 L 7.83203 -7.86133 C 7.25586 -7.86133 6.89453 -7.55859 6.89453 -7.03125 C 6.89453 -6.51367 7.28516 -6.23047 7.83203 -6.23047 L 10.8789 -6.23047 L 10.8789 -3.33984 C 10.8789 -2.79297 11.1621 -2.41211 11.6797 -2.41211 Z"/>
  </g>
  <g id="" transform="matrix(1 0 0 1 304.914 1933)">
   <path d="M 14.9707 5.67383 C 21.9336 5.67383 27.6855 -0.078125 27.6855 -7.04102 C 27.6855 -14.0039 21.9238 -19.7559 14.9609 -19.7559 C 7.99805 -19.7559 2.25586 -14.0039 2.25586 -7.04102 C 2.25586 -0.078125 8.00781 5.67383 14.9707 5.67383 Z M 14.9707 3.85742 C 8.92578 3.85742 4.08203 -1.00586 4.08203 -7.04102 C 4.08203 -13.0762 8.91602 -17.9395 14.9609 -17.9395 C 20.9961 -17.9395 25.8594 -13.0762 25.8691 -7.04102 C 25.8789 -1.00586 21.0059 3.85742 14.9707 3.85742 Z M 14.9414 -1.06445 C 15.5176 -1.06445 15.8594 -1.45508 15.8594 -2.06055 L 15.8594 -6.13281 L 20.0977 -6.13281 C 20.6934 -6.13281 21.1133 -6.46484 21.1133 -7.02148 C 21.1133 -7.59766 20.7227 -7.93945 20.0977 -7.93945 L 15.8594 -7.93945 L 15.8594 -12.1875 C 15.8594 -12.8027 15.5176 -13.1934 14.9414 -13.1934 C 14.3848 -13.1934 14.0625 -12.7832 14.0625 -12.1875 L 14.0625 -7.93945 L 9.82422 -7.93945 C 9.20898 -7.93945 8.80859 -7.59766 8.80859 -7.02148 C 8.80859 -6.46484 9.23828 -6.13281 9.82422 -6.13281 L 14.0625 -6.13281 L 14.0625 -2.06055 C 14.0625 -1.47461 14.3848 -1.06445 14.9414 -1.06445 Z"/>
  </g>
  <text style="stroke:none;fill:black;font-family:-apple-system,&quot;SF Pro Display&quot;,&quot;SF Pro Text&quot;,Helvetica,sans-serif;font-weight:bold;" transform="matrix(1 0 0 1 263 1953)">Design Variations</text>
  <text style="stroke:none;fill:black;font-family:-apple-system,&quot;SF Pro Display&quot;,&quot;SF Pro Text&quot;,Helvetica,sans-serif;" transform="matrix(1 0 0 1 263 1971)">Symbols are supported in up to nine weights and three scales.</text>
  <text style="stroke:none;fill:black;font-family:-apple-system,&quot;SF Pro Display&quot;,&quot;SF Pro Text&quot;,Helvetica,sans-serif;" transform="matrix(1 0 0 1 263 1989)">For optimal layout with text and other symbols, vertically align</text>
  <text style="stroke:none;fill:black;font-family:-apple-system,&quot;SF Pro Display&quot;,&quot;SF Pro Text&quot;,Helvetica,sans-serif;" transform="matrix(1 0 0 1 263 2007)">symbols with the adjacent text.</text>
  <rect height="14" id="" style="fill:#00AEEF;stroke:none;opacity:0.4;" width="3" x="776" y="1919"/>
  <g id="" transform="matrix(1 0 0 1 779 1933)">
   <path d="M 10.5273 0 L 12.373 0 L 7.17773 -14.0918 L 5.43945 -14.0918 L 0.244141 0 L 2.08984 0 L 3.50586 -4.0332 L 9.11133 -4.0332 Z M 6.2793 -11.9531 L 6.33789 -11.9531 L 8.59375 -5.52734 L 4.02344 -5.52734 Z"/>
  </g>
  <rect height="14" id="" style="fill:#00AEEF;stroke:none;opacity:0.4;" width="3" x="791.617" y="1919"/>
  <text style="stroke:none;fill:black;font-family:-apple-system,&quot;SF Pro Display&quot;,&quot;SF Pro Text&quot;,Helvetica,sans-serif;font-weight:bold;" transform="matrix(1 0 0 1 776 1953)">Margins</text>
  <text style="stroke:none;fill:black;font-family:-apple-system,&quot;SF Pro Display&quot;,&quot;SF Pro Text&quot;,Helvetica,sans-serif;" transform="matrix(1 0 0 1 776 1971)">Leading and trailing margins on the left and right side of each symbol</text>
  <text style="stroke:none;fill:black;font-family:-apple-system,&quot;SF Pro Display&quot;,&quot;SF Pro Text&quot;,Helvetica,sans-serif;" transform="matrix(1 0 0 1 776 1989)">can be adjusted by modifying the width of the blue rectangles.</text>
  <text style="stroke:none;fill:black;font-family:-apple-system,&quot;SF Pro Display&quot;,&quot;SF Pro Text&quot;,Helvetica,sans-serif;" transform="matrix(1 0 0 1 776 2007)">Modifications are automatically applied proportionally to all</text>
  <text style="stroke:none;fill:black;font-family:-apple-system,&quot;SF Pro Display&quot;,&quot;SF Pro Text&quot;,Helvetica,sans-serif;" transform="matrix(1 0 0 1 776 2025)">scales and weights.</text>
  <g id="" transform="matrix(1 0 0 1 1289 1933)">
   <path d="M 2.83203 3.61328 L 4.375 5.15625 C 5.22461 5.98633 6.19141 5.91797 7.05078 4.9707 L 17.2754 -6.16211 C 17.6953 -5.86914 18.0859 -5.87891 18.5645 -5.97656 L 19.6094 -6.19141 L 20.3027 -5.49805 L 20.2539 -4.98047 C 20.1855 -4.44336 20.3418 -4.0332 20.8398 -3.53516 L 21.6602 -2.72461 C 22.1582 -2.2168 22.8223 -2.1875 23.3008 -2.66602 L 26.5527 -5.91797 C 27.0312 -6.39648 27.002 -7.05078 26.5039 -7.55859 L 25.6836 -8.37891 C 25.1855 -8.87695 24.7656 -9.05273 24.2383 -8.97461 L 23.7109 -8.91602 L 23.0469 -9.58008 L 23.3398 -10.7227 C 23.4766 -11.2891 23.3301 -11.748 22.7148 -12.3535 L 20.3027 -14.7559 C 16.7578 -18.2812 12.2168 -18.1738 9.11133 -15.0391 C 8.68164 -14.6094 8.64258 -14.0234 8.91602 -13.5938 C 9.14062 -13.2227 9.61914 -12.998 10.2734 -13.1641 C 11.7871 -13.5449 13.3008 -13.4277 14.7852 -12.4219 L 14.1602 -10.8398 C 13.9258 -10.2539 13.9453 -9.77539 14.1797 -9.33594 L 3.01758 0.9375 C 2.08008 1.80664 1.97266 2.75391 2.83203 3.61328 Z M 10.6641 -14.6484 C 13.3301 -16.6406 16.6504 -16.3184 19.0527 -13.916 L 21.6797 -11.3086 C 21.9141 -11.0742 21.9434 -10.8887 21.875 -10.5957 L 21.5039 -9.0332 L 23.0762 -7.46094 L 24.0332 -7.54883 C 24.3164 -7.57812 24.4043 -7.55859 24.6387 -7.33398 L 25.2539 -6.70898 L 22.5098 -3.95508 L 21.8848 -4.58008 C 21.6602 -4.80469 21.6406 -4.89258 21.6699 -5.17578 L 21.7578 -6.14258 L 20.1953 -7.70508 L 18.5742 -7.39258 C 18.291 -7.33398 18.1445 -7.33398 17.9004 -7.57812 L 15.7324 -9.75586 C 15.498 -9.99023 15.4688 -10.127 15.5957 -10.4395 L 16.5527 -12.7246 C 14.9512 -14.2578 12.832 -15.1074 10.791 -14.4531 C 10.7031 -14.4238 10.6445 -14.4434 10.6152 -14.4824 C 10.5859 -14.5312 10.5859 -14.5801 10.6641 -14.6484 Z M 4.10156 2.91016 C 3.60352 2.41211 3.7793 2.10938 4.11133 1.80664 L 15.0781 -8.31055 L 16.2988 -7.08008 L 6.15234 3.84766 C 5.84961 4.17969 5.46875 4.27734 5.05859 3.87695 Z"/>
  </g>
  <text style="stroke:none;fill:black;font-family:-apple-system,&quot;SF Pro Display&quot;,&quot;SF Pro Text&quot;,Helvetica,sans-serif;font-weight:bold;" transform="matrix(1 0 0 1 1289 1953)">Exporting</text>
  <text style="stroke:none;fill:black;font-family:-apple-system,&quot;SF Pro Display&quot;,&quot;SF Pro Text&quot;,Helvetica,sans-serif;" transform="matrix(1 0 0 1 1289 1971)">Symbols should be outlined when exporting to ensure the</text>
  <text style="stroke:none;fill:black;font-family:-apple-system,&quot;SF Pro Display&quot;,&quot;SF Pro Text&quot;,Helvetica,sans-serif;" transform="matrix(1 0 0 1 1289 1989)">design is preserved when submitting to Xcode.</text>
  <text id="template-version" style="stroke:none;fill:black;font-family:-apple-system,&quot;SF Pro Display&quot;,&quot;SF Pro Text&quot;,Helvetica,sans-serif;text-anchor:end;" transform="matrix(1 0 0 1 3036 1933)">Template v.1.0</text>
  <text style="stroke:none;fill:black;font-family:-apple-system,&quot;SF Pro Display&quot;,&quot;SF Pro Text&quot;,Helvetica,sans-serif;text-anchor:end;" transform="matrix(1 0 0 1 3036 1951)">Generated from ant.fill</text>
  <text style="stroke:none;fill:black;font-family:-apple-system,&quot;SF Pro Display&quot;,&quot;SF Pro Text&quot;,Helvetica,sans-serif;text-anchor:end;" transform="matrix(1 0 0 1 3036 1969)">Typeset at 100 points</text>
  <text style="stroke:none;fill:black;font-family:-apple-system,&quot;SF Pro Display&quot;,&quot;SF Pro Text&quot;,Helvetica,sans-serif;" transform="matrix(1 0 0 1 263 726)">Small</text>
  <text style="stroke:none;fill:black;font-family:-apple-system,&quot;SF Pro Display&quot;,&quot;SF Pro Text&quot;,Helvetica,sans-serif;" transform="matrix(1 0 0 1 263 1156)">Medium</text>
  <text style="stroke:none;fill:black;font-family:-apple-system,&quot;SF Pro Display&quot;,&quot;SF Pro Text&quot;,Helvetica,sans-serif;" transform="matrix(1 0 0 1 263 1586)">Large</text>
 </g>
 <g id="Guides">
  <g id="H-reference" style="fill:#27AAE1;stroke:none;" transform="matrix(1 0 0 1 339 696)">
   <path d="M 54.9316 0 L 57.666 0 L 30.5664 -70.459 L 28.0762 -70.459 L 0.976562 0 L 3.66211 0 L 12.9395 -24.4629 L 45.7031 -24.4629 Z M 29.1992 -67.0898 L 29.4434 -67.0898 L 44.8242 -26.709 L 13.8184 -26.709 Z"/>
  </g>
  <line id="Baseline-S" style="fill:none;stroke:#27AAE1;opacity:1;stroke-width:0.577;" x1="263" x2="3036" y1="696" y2="696"/>
  <line id="Capline-S" style="fill:none;stroke:#27AAE1;opacity:1;stroke-width:0.577;" x1="263" x2="3036" y1="625.541" y2="625.541"/>
  <g id="H-reference" style="fill:#27AAE1;stroke:none;" transform="matrix(1 0 0 1 339 1126)">
   <path d="M 54.9316 0 L 57.666 0 L 30.5664 -70.459 L 28.0762 -70.459 L 0.976562 0 L 3.66211 0 L 12.9395 -24.4629 L 45.7031 -24.4629 Z M 29.1992 -67.0898 L 29.4434 -67.0898 L 44.8242 -26.709 L 13.8184 -26.709 Z"/>
  </g>
  <line id="Baseline-M" style="fill:none;stroke:#27AAE1;opacity:1;stroke-width:0.577;" x1="263" x2="3036" y1="1126" y2="1126"/>
  <line id="Capline-M" style="fill:none;stroke:#27AAE1;opacity:1;stroke-width:0.577;" x1="263" x2="3036" y1="1055.54" y2="1055.54"/>
  <g id="H-reference" style="fill:#27AAE1;stroke:none;" transform="matrix(1 0 0 1 339 1556)">
   <path d="M 54.9316 0 L 57.666 0 L 30.5664 -70.459 L 28.0762 -70.459 L 0.976562 0 L 3.66211 0 L 12.9395 -24.4629 L 45.7031 -24.4629 Z M 29.1992 -67.0898 L 29.4434 -67.0898 L 44.8242 -26.709 L 13.8184 -26.709 Z"/>
  </g>
  <line id="Baseline-L" style="fill:none;stroke:#27AAE1;opacity:1;stroke-width:0.577;" x1="263" x2="3036" y1="1556" y2="1556"/>
  <line id="Capline-L" style="fill:none;stroke:#27AAE1;opacity:1;stroke-width:0.577;" x1="263" x2="3036" y1="1485.54" y2="1485.54"/>
  <rect height="119.336" id="left-margin" style="fill:#00AEEF;stroke:none;opacity:0.4;" width="12.4484" x="1396.7" y="1030.79"/>
  <rect height="119.336" id="right-margin" style="fill:#00AEEF;stroke:none;opacity:0.4;" width="12.4509" x="1490.54" y="1030.79"/>
 </g>
 <g id="Symbols">
  <g id="Black-L" transform="matrix(1 0 0 1 2858.99 1556)">
   <path d="M 74.4141 42.5293 C 93.8477 42.5293 110.4 21.8262 110.4 -0.341797 C 110.4 -1.66016 110.352 -2.88086 110.156 -4.00391 C 110.986 -3.75977 111.768 -3.51562 112.5 -3.27148 C 116.162 -1.9043 117.188 0.0488281 116.65 3.66211 L 112.451 31.2012 C 111.572 36.8652 115.137 40.1367 119.727 40.1367 C 124.561 40.1367 126.855 37.1582 127.588 32.3242 L 132.471 0.732422 C 134.033 -9.13086 130.127 -14.5996 119.238 -16.9922 L 89.9902 -23.4863 L 89.9902 -24.1699 C 91.7969 -25 93.1641 -26.3672 94.2383 -28.0273 L 115.527 -29.9805 C 125.977 -30.957 130.859 -37.6953 130.859 -48.291 L 130.859 -69.3359 C 130.859 -74.0234 128.027 -76.8066 123.34 -76.8066 C 118.555 -76.8066 115.869 -74.0234 115.869 -69.3359 L 115.869 -51.5137 C 115.869 -45.752 112.598 -43.9453 107.568 -43.5059 L 95.6543 -42.4316 C 94.873 -44.1895 93.7012 -45.752 92.0898 -46.7773 L 92.0898 -47.4609 C 103.613 -49.5117 109.619 -56.4941 109.619 -66.7969 C 109.619 -73.4375 107.715 -79.6875 104.395 -85.0098 L 105.908 -86.084 C 113.721 -91.4551 115.234 -99.1699 110.352 -108.447 L 107.227 -114.453 C 105.469 -117.676 103.467 -119.043 100.537 -119.043 C 96.875 -119.043 94.043 -116.211 94.043 -112.646 C 94.043 -111.035 94.1895 -110.107 95.0684 -108.545 L 97.4609 -104.199 C 99.2676 -100.977 98.7793 -97.7539 95.9473 -95.6055 C 95.7031 -95.4102 95.459 -95.2148 95.2148 -95.0195 C 89.3555 -99.3652 82.1289 -101.904 74.4141 -101.904 C 66.748 -101.904 59.5215 -99.3652 53.7109 -95.0684 C 53.4668 -95.2148 53.2227 -95.459 52.9785 -95.6055 C 50.1953 -97.7539 49.6582 -100.977 51.4648 -104.199 L 53.8574 -108.545 C 54.7363 -110.107 54.9316 -111.035 54.9316 -112.646 C 54.9316 -116.211 52.0996 -119.043 48.3887 -119.043 C 45.459 -119.043 43.457 -117.676 41.748 -114.453 L 38.5742 -108.447 C 33.7402 -99.1699 35.2051 -91.4551 43.0176 -86.084 L 44.5312 -85.0586 C 41.1621 -79.7363 39.209 -73.4375 39.209 -66.7969 C 39.209 -56.4941 45.2148 -49.5117 56.7871 -47.4609 L 56.7871 -46.7773 C 55.1758 -45.752 53.9551 -44.1895 53.1738 -42.4316 L 41.3086 -43.5059 C 36.2793 -43.9453 32.959 -45.752 32.959 -51.5137 L 32.959 -69.3359 C 32.959 -74.0234 30.3223 -76.8066 25.5371 -76.8066 C 20.8496 -76.8066 17.9688 -74.0234 17.9688 -69.3359 L 17.9688 -48.291 C 17.9688 -37.6953 22.9004 -30.957 33.3008 -29.9805 L 54.6387 -28.0273 C 55.6641 -26.3672 57.0801 -25 58.8867 -24.1699 L 58.8867 -23.4863 L 29.5898 -16.9922 C 18.75 -14.5996 14.8438 -9.13086 16.4062 0.732422 L 21.2891 32.3242 C 22.0215 37.1582 24.2676 40.1367 29.1504 40.1367 C 33.6914 40.1367 37.2559 36.8652 36.377 31.2012 L 32.1777 3.66211 C 31.6406 -0.0976562 32.7148 -1.95312 36.5723 -3.32031 C 37.2559 -3.56445 37.9395 -3.75977 38.6719 -4.00391 C 38.5254 -2.88086 38.4277 -1.66016 38.4277 -0.341797 C 38.4277 21.8262 55.0293 42.5293 74.4141 42.5293 Z"/>
  </g>
  <g id="Heavy-L" transform="matrix(1 0 0 1 2563.91 1556)">
   <path d="M 72.7539 41.6504 C 91.7969 41.6504 108.105 21.3379 108.105 -0.488281 C 108.105 -2.39258 107.861 -4.10156 107.373 -5.51758 C 108.447 -5.22461 109.57 -4.93164 110.596 -4.58984 C 114.502 -3.27148 115.625 -1.31836 115.039 2.44141 L 110.693 30.7617 C 109.912 35.8398 113.086 38.7695 117.188 38.7695 C 121.533 38.7695 123.535 36.084 124.219 31.7383 L 129.199 -0.146484 C 130.664 -9.42383 126.953 -14.5508 116.748 -16.8457 L 87.9883 -23.291 L 87.9395 -23.9746 C 90.0391 -24.9512 91.5527 -26.7578 92.4805 -28.7598 L 113.037 -30.8594 C 122.9 -31.8359 127.49 -37.9883 127.49 -47.8516 L 127.49 -69.043 C 127.49 -73.2422 124.951 -75.7324 120.703 -75.7324 C 116.455 -75.7324 114.062 -73.2422 114.062 -69.043 L 114.062 -50.7324 C 114.062 -45.2148 110.986 -43.457 106.104 -43.0176 L 93.6523 -41.6992 C 92.8711 -43.5059 91.6504 -45.1172 89.9902 -46.2402 L 89.9902 -46.9238 C 101.367 -48.9258 107.324 -55.8105 107.324 -65.918 C 107.324 -72.998 105.078 -79.6387 101.27 -85.0586 L 102.588 -85.9863 C 109.961 -91.1621 111.328 -98.4863 106.641 -107.178 L 103.174 -113.379 C 101.611 -116.309 99.7559 -117.529 97.1191 -117.529 C 93.7988 -117.529 91.2109 -114.99 91.2109 -111.768 C 91.2109 -110.303 91.4062 -109.473 92.2363 -107.959 L 95.1172 -103.223 C 96.9727 -99.9512 96.6309 -96.7773 93.75 -94.5801 C 93.5059 -94.3359 93.2129 -94.0918 92.9199 -93.8965 C 87.207 -98.0469 80.2246 -100.488 72.7539 -100.488 C 65.332 -100.488 58.3984 -98.0469 52.7344 -93.9453 C 52.4414 -94.0918 52.1484 -94.3848 51.8555 -94.5801 C 49.0723 -96.7773 48.6816 -99.9512 50.5859 -103.223 L 53.418 -107.959 C 54.2969 -109.473 54.4434 -110.303 54.4434 -111.768 C 54.4434 -114.99 51.8555 -117.529 48.5352 -117.529 C 45.8984 -117.529 44.0918 -116.309 42.5293 -113.379 L 39.0137 -107.178 C 34.3262 -98.4863 35.6934 -91.1621 43.0664 -85.9863 L 44.3848 -85.1074 C 40.5273 -79.6875 38.2324 -73.0469 38.2324 -65.918 C 38.2324 -55.8105 44.1895 -48.9258 55.5664 -46.9238 L 55.5664 -46.2402 C 53.9062 -45.1172 52.6855 -43.5059 51.9043 -41.6992 L 39.4531 -43.0176 C 34.5703 -43.457 31.4941 -45.2148 31.4941 -50.7324 L 31.4941 -69.043 C 31.4941 -73.2422 29.1016 -75.7324 24.8535 -75.7324 C 20.6055 -75.7324 18.0664 -73.2422 18.0664 -69.043 L 18.0664 -47.8516 C 18.0664 -37.9883 22.6562 -31.8359 32.4707 -30.8594 L 53.0762 -28.7598 C 54.0039 -26.7578 55.5176 -24.9512 57.6172 -23.9746 L 57.6172 -23.291 L 28.8086 -16.8457 C 18.6035 -14.5508 14.8926 -9.42383 16.3574 -0.146484 L 21.3379 31.7383 C 22.0215 36.084 24.0234 38.7695 28.3691 38.7695 C 32.4707 38.7695 35.6445 35.8398 34.8633 30.7617 L 30.5176 2.44141 C 29.9316 -1.41602 31.1035 -3.32031 35.1074 -4.63867 C 36.1328 -4.98047 37.1582 -5.22461 38.1836 -5.51758 C 37.6953 -4.10156 37.4512 -2.39258 37.4512 -0.488281 C 37.4512 21.3379 53.8086 41.6504 72.7539 41.6504 Z"/>
  </g>
  <g id="Bold-L" transform="matrix(1 0 0 1 2269.05 1556)">
   <path d="M 70.9473 40.6738 C 89.4531 40.6738 105.518 20.8008 105.518 -0.585938 C 105.518 -3.22266 105.078 -5.41992 104.199 -7.27539 C 105.615 -6.88477 107.08 -6.49414 108.496 -6.10352 C 112.598 -4.78516 113.818 -2.83203 113.232 1.07422 L 108.74 30.3223 C 108.057 34.668 110.84 37.2559 114.404 37.2559 C 118.164 37.2559 119.873 34.9609 120.459 31.1523 L 125.488 -1.12305 C 126.855 -9.76562 123.438 -14.5508 113.965 -16.6504 L 85.6934 -23.0957 L 85.6445 -23.7793 C 88.0859 -24.9023 89.6973 -27.1484 90.5762 -29.541 L 110.303 -31.8359 C 119.482 -32.8613 123.682 -38.2812 123.682 -47.4121 L 123.682 -68.7012 C 123.682 -72.3633 121.484 -74.5605 117.822 -74.5605 C 114.111 -74.5605 112.012 -72.3633 112.012 -68.7012 L 112.012 -49.8535 C 112.012 -44.6289 109.229 -42.9199 104.443 -42.4316 L 91.3574 -40.8691 C 90.625 -42.7734 89.4043 -44.4824 87.6953 -45.6055 L 87.6953 -46.2891 C 98.8281 -48.291 104.785 -55.0293 104.785 -64.9414 C 104.785 -72.5098 102.1 -79.541 97.7539 -85.0586 L 98.877 -85.8887 C 105.811 -90.8203 106.982 -97.7539 102.49 -105.713 L 98.6328 -112.207 C 97.2168 -114.746 95.6055 -115.82 93.3105 -115.82 C 90.3809 -115.82 88.1348 -113.623 88.1348 -110.791 C 88.1348 -109.473 88.2812 -108.74 89.0625 -107.373 L 92.4316 -102.1 C 94.4336 -98.7793 94.1895 -95.752 91.3574 -93.4082 C 91.0156 -93.1641 90.7227 -92.8711 90.332 -92.627 C 84.8145 -96.5332 78.125 -98.877 70.9473 -98.877 C 63.8184 -98.877 57.1289 -96.5332 51.6113 -92.6758 C 51.3184 -92.8711 50.9277 -93.2129 50.6348 -93.457 C 47.8027 -95.752 47.5586 -98.7793 49.5605 -102.1 L 52.9297 -107.373 C 53.7109 -108.74 53.9062 -109.473 53.9062 -110.791 C 53.9062 -113.623 51.6602 -115.82 48.6816 -115.82 C 46.3867 -115.82 44.7754 -114.746 43.4082 -112.207 L 39.502 -105.713 C 35.0586 -97.7539 36.2305 -90.8203 43.1152 -85.8887 L 44.1895 -85.1562 C 39.7949 -79.6387 37.0605 -72.5586 37.0605 -64.9414 C 37.0605 -55.0293 43.0176 -48.291 54.1992 -46.2891 L 54.1992 -45.6055 C 52.4902 -44.4824 51.2695 -42.7734 50.4883 -40.8691 L 37.4023 -42.4316 C 32.666 -42.9199 29.8828 -44.6289 29.8828 -49.8535 L 29.8828 -68.7012 C 29.8828 -72.3633 27.7344 -74.5605 24.0723 -74.5605 C 20.4102 -74.5605 18.2129 -72.3633 18.2129 -68.7012 L 18.2129 -47.4121 C 18.2129 -38.2812 22.3633 -32.8613 31.5918 -31.8359 L 51.3184 -29.541 C 52.1484 -27.1484 53.8086 -24.9023 56.2012 -23.7793 L 56.2012 -23.0957 L 27.8809 -16.6504 C 18.4082 -14.5508 14.9902 -9.76562 16.3574 -1.12305 L 21.3867 31.1523 C 21.9727 34.9609 23.7305 37.2559 27.4902 37.2559 C 31.0547 37.2559 33.7891 34.668 33.1055 30.3223 L 28.6133 1.07422 C 28.0273 -2.88086 29.2969 -4.83398 33.4473 -6.15234 C 34.8633 -6.54297 36.2793 -6.88477 37.6953 -7.27539 C 36.7676 -5.41992 36.3281 -3.22266 36.3281 -0.585938 C 36.3281 20.8008 52.4414 40.6738 70.9473 40.6738 Z"/>
  </g>
  <g id="Semibold-L" transform="matrix(1 0 0 1 1973.61 1556)">
   <path d="M 69.6777 39.9902 C 87.8418 39.9902 103.76 20.4102 103.76 -0.683594 C 103.76 -3.80859 103.174 -6.39648 102.002 -8.44727 C 103.711 -8.00781 105.42 -7.56836 107.08 -7.12891 C 111.328 -5.85938 112.598 -3.85742 112.012 0.146484 L 107.373 30.0293 C 106.787 33.8867 109.229 36.1816 112.451 36.1816 C 115.82 36.1816 117.334 34.1309 117.871 30.7129 L 122.998 -1.80664 C 124.268 -10.0098 120.996 -14.502 112.061 -16.5527 L 84.1309 -22.9492 L 84.082 -23.6328 C 86.7188 -24.8535 88.4277 -27.3926 89.2578 -30.127 L 108.398 -32.4707 C 117.139 -33.5449 121.045 -38.5254 121.045 -47.0703 L 121.045 -68.457 C 121.045 -71.7773 119.092 -73.7305 115.771 -73.7305 C 112.5 -73.7305 110.596 -71.7285 110.596 -68.457 L 110.596 -49.2676 C 110.596 -44.2383 107.959 -42.5293 103.32 -41.9922 L 89.7949 -40.2832 C 89.0625 -42.2852 87.8418 -44.043 86.084 -45.166 L 86.084 -45.8496 C 97.1191 -47.8027 103.027 -54.4922 103.027 -64.2578 C 103.027 -72.168 100.098 -79.4922 95.3125 -85.1074 L 96.3379 -85.8398 C 102.93 -90.5762 103.955 -97.2168 99.6582 -104.736 L 95.5078 -111.377 C 94.2383 -113.672 92.7734 -114.648 90.6738 -114.648 C 87.9883 -114.648 85.9863 -112.695 85.9863 -110.107 C 85.9863 -108.887 86.1328 -108.203 86.8652 -106.934 L 90.5762 -101.367 C 92.6758 -97.998 92.5293 -95.0195 89.6484 -92.627 C 89.3066 -92.334 88.9648 -92.041 88.5742 -91.748 C 83.1543 -95.5566 76.6602 -97.7539 69.6777 -97.7539 C 62.7441 -97.7539 56.25 -95.5566 50.8789 -91.7969 C 50.4883 -92.041 50.1465 -92.3828 49.7559 -92.6758 C 46.9238 -95.0195 46.7773 -97.998 48.877 -101.367 L 52.6367 -106.934 C 53.3691 -108.203 53.5156 -108.887 53.5156 -110.107 C 53.5156 -112.695 51.4648 -114.648 48.7793 -114.648 C 46.7285 -114.648 45.2637 -113.672 43.9941 -111.377 L 39.8438 -104.736 C 35.5469 -97.2168 36.5723 -90.5762 43.1641 -85.8398 L 44.0918 -85.1562 C 39.2578 -79.5898 36.2793 -72.2168 36.2793 -64.2578 C 36.2793 -54.4922 42.2363 -47.8027 53.2227 -45.8496 L 53.2227 -45.166 C 51.4648 -44.043 50.2441 -42.2852 49.5605 -40.2832 L 35.9863 -41.9922 C 31.3477 -42.5293 28.7598 -44.2383 28.7598 -49.2676 L 28.7598 -68.457 C 28.7598 -71.7285 26.8066 -73.7305 23.5352 -73.7305 C 20.2148 -73.7305 18.2617 -71.7773 18.2617 -68.457 L 18.2617 -47.0703 C 18.2617 -38.5254 22.2168 -33.5449 30.957 -32.4707 L 50.0977 -30.127 C 50.8789 -27.3926 52.5879 -24.8535 55.2246 -23.6328 L 55.2246 -22.9492 L 27.2949 -16.5527 C 18.3105 -14.502 15.0391 -10.0098 16.3574 -1.80664 L 21.4355 30.7129 C 21.9727 34.1309 23.4863 36.1816 26.9043 36.1816 C 30.0781 36.1816 32.5195 33.8867 31.9336 30.0293 L 27.3438 0.146484 C 26.709 -3.90625 28.0273 -5.85938 32.3242 -7.12891 C 33.9844 -7.61719 35.6445 -8.00781 37.3047 -8.44727 C 36.1328 -6.39648 35.5469 -3.80859 35.5469 -0.683594 C 35.5469 20.4102 51.5137 39.9902 69.6777 39.9902 Z"/>
  </g>
  <g id="Medium-L" transform="matrix(1 0 0 1 1677.85 1556)">
   <path d="M 68.7012 39.4531 C 86.6211 39.4531 102.441 20.1172 102.441 -0.78125 C 102.441 -4.24805 101.709 -7.08008 100.342 -9.375 C 102.246 -8.88672 104.102 -8.39844 105.957 -7.91016 C 110.352 -6.64062 111.67 -4.63867 111.035 -0.537109 L 106.348 29.7852 C 105.811 33.3008 108.057 35.4004 110.986 35.4004 C 114.062 35.4004 115.43 33.5449 115.918 30.4199 L 121.045 -2.34375 C 122.314 -10.1562 119.141 -14.502 110.596 -16.4551 L 82.959 -22.8516 L 82.9102 -23.5352 C 85.6934 -24.8535 87.5 -27.5879 88.2324 -30.5664 L 106.934 -33.0078 C 115.332 -34.082 119.043 -38.6719 119.043 -46.875 L 119.043 -68.3105 C 119.043 -71.3379 117.285 -73.0957 114.258 -73.0957 C 111.279 -73.0957 109.521 -71.2891 109.521 -68.3105 L 109.521 -48.7793 C 109.521 -43.9453 107.031 -42.2852 102.49 -41.6992 L 88.5742 -39.8438 C 87.8906 -41.8945 86.6699 -43.7012 84.8633 -44.873 L 84.8633 -45.5078 C 95.8008 -47.4609 101.709 -54.0527 101.709 -63.7695 C 101.709 -71.9238 98.5352 -79.4434 93.5059 -85.1074 L 94.3848 -85.791 C 100.732 -90.3809 101.66 -96.8262 97.4609 -104.004 L 93.1152 -110.791 C 91.9434 -112.891 90.5762 -113.77 88.6719 -113.77 C 86.2305 -113.77 84.3262 -111.963 84.3262 -109.57 C 84.3262 -108.447 84.4727 -107.812 85.2051 -106.592 L 89.209 -100.781 C 91.3086 -97.4121 91.3086 -94.4336 88.3789 -91.9922 C 88.0371 -91.6992 87.6465 -91.4062 87.2559 -91.1133 C 81.9336 -94.7754 75.5371 -96.9238 68.7012 -96.9238 C 61.9141 -96.9238 55.5664 -94.7754 50.293 -91.1621 C 49.9023 -91.4062 49.5117 -91.748 49.1211 -92.041 C 46.2891 -94.4336 46.1914 -97.4121 48.3887 -100.781 L 52.3926 -106.592 C 53.0762 -107.812 53.2227 -108.447 53.2227 -109.57 C 53.2227 -111.963 51.3672 -113.77 48.877 -113.77 C 46.9727 -113.77 45.6055 -112.891 44.4336 -110.791 L 40.0879 -104.004 C 35.8887 -96.8262 36.8652 -90.3809 43.2129 -85.791 L 43.9941 -85.2051 C 38.916 -79.541 35.6934 -71.9727 35.6934 -63.7695 C 35.6934 -54.0527 41.6016 -47.4609 52.5391 -45.5078 L 52.5391 -44.873 C 50.7324 -43.7012 49.5117 -41.8945 48.7793 -39.8438 L 34.9121 -41.6992 C 30.3711 -42.2852 27.8809 -43.9453 27.8809 -48.7793 L 27.8809 -68.3105 C 27.8809 -71.2891 26.123 -73.0957 23.1445 -73.0957 C 20.1172 -73.0957 18.3594 -71.3379 18.3594 -68.3105 L 18.3594 -46.875 C 18.3594 -38.6719 22.0703 -34.082 30.4688 -33.0078 L 49.1699 -30.5664 C 49.9023 -27.5879 51.709 -24.8535 54.4922 -23.5352 L 54.4922 -22.8516 L 26.8066 -16.4551 C 18.2129 -14.502 15.0879 -10.1562 16.3574 -2.34375 L 21.4844 30.4199 C 21.9727 33.5449 23.3398 35.4004 26.416 35.4004 C 29.3457 35.4004 31.543 33.3008 31.0547 29.7852 L 26.3672 -0.537109 C 25.6836 -4.63867 27.0508 -6.64062 31.4453 -7.91016 C 33.3008 -8.39844 35.2051 -8.88672 37.0605 -9.375 C 35.6445 -7.08008 34.9609 -4.24805 34.9609 -0.78125 C 34.9609 20.1172 50.7812 39.4531 68.7012 39.4531 Z"/>
  </g>
  <g id="Regular-L" transform="matrix(1 0 0 1 1382.41 1556)">
   <path d="M 67.4316 38.8184 C 85.0098 38.8184 100.684 19.7266 100.684 -0.878906 C 100.684 -4.83398 99.8535 -8.00781 98.1934 -10.5469 C 100.293 -10.0098 102.441 -9.47266 104.541 -8.93555 C 109.033 -7.71484 110.498 -5.66406 109.814 -1.46484 L 105.029 29.4434 C 104.541 32.5195 106.494 34.375 109.033 34.375 C 111.719 34.375 112.939 32.7148 113.379 30.0293 L 118.555 -3.02734 C 119.727 -10.4004 116.748 -14.4531 108.691 -16.3574 L 81.3965 -22.7051 L 81.3477 -23.3887 C 84.375 -24.8047 86.2305 -27.8809 86.9141 -31.1035 L 105.029 -33.6426 C 112.988 -34.7656 116.455 -38.8672 116.455 -46.5332 L 116.455 -68.0664 C 116.455 -70.752 114.941 -72.2656 112.305 -72.2656 C 109.668 -72.2656 108.105 -70.7031 108.105 -68.0664 L 108.105 -48.1934 C 108.105 -43.5547 105.811 -41.8945 101.367 -41.3086 L 87.0605 -39.3066 C 86.3281 -41.3574 85.1074 -43.2129 83.3008 -44.4336 L 83.3008 -45.0684 C 94.043 -47.0215 99.9512 -53.5156 99.9512 -63.0859 C 99.9512 -71.582 96.5332 -79.3945 91.1133 -85.1074 L 91.8457 -85.6934 C 97.8516 -90.1855 98.6816 -96.2891 94.6289 -103.027 L 90.0391 -109.961 C 88.9648 -111.816 87.793 -112.646 86.084 -112.646 C 83.8867 -112.646 82.2266 -111.035 82.2266 -108.887 C 82.2266 -107.91 82.373 -107.324 83.0078 -106.201 L 87.4023 -100.049 C 89.5996 -96.6309 89.6484 -93.75 86.7188 -91.2109 C 86.3281 -90.8691 85.9375 -90.5762 85.498 -90.2344 C 80.2734 -93.75 74.0723 -95.8496 67.4316 -95.8496 C 60.8887 -95.8496 54.6875 -93.75 49.5117 -90.2832 C 49.1211 -90.5762 48.6816 -90.918 48.291 -91.2598 C 45.4102 -93.75 45.459 -96.6309 47.7051 -100.049 L 52.0508 -106.201 C 52.7344 -107.324 52.8809 -107.91 52.8809 -108.887 C 52.8809 -111.035 51.2207 -112.646 48.9746 -112.646 C 47.3145 -112.646 46.0938 -111.816 45.0684 -109.961 L 40.4297 -103.027 C 36.377 -96.2891 37.207 -90.1855 43.2129 -85.6934 L 43.8477 -85.2051 C 38.3789 -79.4922 34.9609 -71.6309 34.9609 -63.0859 C 34.9609 -53.5156 40.8203 -47.0215 51.6113 -45.0684 L 51.6113 -44.4336 C 49.7559 -43.2129 48.5352 -41.3574 47.8516 -39.3066 L 33.4961 -41.3086 C 29.0527 -41.8945 26.7578 -43.5547 26.7578 -48.1934 L 26.7578 -68.0664 C 26.7578 -70.7031 25.1953 -72.2656 22.6074 -72.2656 C 19.9707 -72.2656 18.4082 -70.752 18.4082 -68.0664 L 18.4082 -46.5332 C 18.4082 -38.8672 21.875 -34.7656 29.834 -33.6426 L 47.9492 -31.1035 C 48.6328 -27.8809 50.5371 -24.8047 53.5156 -23.3887 L 53.5156 -22.7051 L 26.1719 -16.3574 C 18.1152 -14.4531 15.1367 -10.4004 16.3086 -3.02734 L 21.5332 30.0293 C 21.9727 32.7148 23.1445 34.375 25.8301 34.375 C 28.418 34.375 30.3223 32.5195 29.8828 29.4434 L 25.0488 -1.46484 C 24.4141 -5.66406 25.8301 -7.71484 30.3223 -8.93555 C 32.4707 -9.47266 34.5703 -10.0098 36.6699 -10.5469 C 35.0586 -8.00781 34.2285 -4.83398 34.2285 -0.878906 C 34.2285 19.7266 49.8535 38.8184 67.4316 38.8184 Z"/>
  </g>
  <g id="Light-L" transform="matrix(1 0 0 1 1087.24 1556)">
   <path d="M 65.8691 38.8184 C 83.1543 38.8184 98.9258 19.873 98.9258 -0.683594 C 98.9258 -5.66406 97.7539 -9.52148 95.3613 -12.5488 C 97.9004 -11.9141 100.439 -11.2793 103.027 -10.6445 C 107.764 -9.375 109.375 -6.88477 108.594 -2.14844 L 103.564 29.7852 C 103.223 32.1289 104.785 33.5938 106.787 33.5938 C 108.936 33.5938 109.814 32.3242 110.205 30.127 L 115.43 -3.27148 C 116.602 -10.6934 113.623 -14.7461 105.615 -16.6504 L 79.834 -22.7051 L 79.7852 -23.3887 C 83.2031 -25 85.2051 -28.6621 85.6445 -32.4707 L 102.1 -34.7168 C 110.156 -35.8398 113.525 -39.6484 113.525 -47.168 L 113.525 -68.3105 C 113.525 -70.459 112.354 -71.6797 110.254 -71.6797 C 108.154 -71.6797 106.934 -70.3613 106.934 -68.3105 L 106.934 -48.3887 C 106.934 -43.5059 104.736 -41.6016 99.8047 -40.918 L 85.5957 -38.8672 C 84.9609 -41.1621 83.6914 -43.1641 81.7383 -44.4336 L 81.7383 -45.0684 C 92.5293 -47.0215 98.1934 -53.5156 98.1934 -63.0859 C 98.1934 -72.2168 94.2871 -80.5176 88.1836 -86.377 L 89.1602 -87.1582 C 95.0195 -91.6992 95.5078 -97.3145 91.3574 -103.613 L 85.498 -111.768 C 84.6191 -113.232 83.6426 -113.818 82.373 -113.818 C 80.6641 -113.818 79.3457 -112.646 79.3457 -110.938 C 79.3457 -110.107 79.4922 -109.619 80.127 -108.643 L 85.9375 -100.879 C 88.3789 -97.3633 88.5254 -94.2871 85.2051 -91.5039 C 84.7168 -91.1133 84.2285 -90.7227 83.6914 -90.332 C 78.5156 -93.7988 72.4121 -95.8496 65.8691 -95.8496 C 59.4238 -95.8496 53.3203 -93.7988 48.1934 -90.332 C 47.7051 -90.7227 47.168 -91.1621 46.6797 -91.5527 C 43.3594 -94.2871 43.5059 -97.3633 45.9961 -100.879 L 51.7578 -108.643 C 52.3926 -109.619 52.5391 -110.107 52.5391 -110.938 C 52.5391 -112.646 51.2695 -113.818 49.5117 -113.818 C 48.2422 -113.818 47.2656 -113.232 46.3867 -111.768 L 40.5762 -103.613 C 36.377 -97.3145 36.8652 -91.6992 42.7246 -87.1582 L 43.6523 -86.4258 C 37.5 -80.5664 33.5938 -72.2168 33.5938 -63.0859 C 33.5938 -53.5156 39.2578 -47.0215 50.0488 -45.0684 L 50.0488 -44.4336 C 48.0957 -43.1641 46.8262 -41.1621 46.1426 -38.8672 L 31.9336 -40.918 C 27.0508 -41.6016 24.8535 -43.5059 24.8535 -48.3887 L 24.8535 -68.3105 C 24.8535 -70.3613 23.584 -71.6797 21.5332 -71.6797 C 19.4336 -71.6797 18.2617 -70.459 18.2617 -68.3105 L 18.2617 -47.168 C 18.2617 -39.6484 21.6309 -35.8398 29.6387 -34.7168 L 46.0938 -32.4707 C 46.582 -28.6621 48.5352 -25 51.9531 -23.3887 L 51.9531 -22.7051 L 26.1719 -16.6504 C 18.1641 -14.7461 15.1855 -10.6934 16.3086 -3.27148 L 21.582 30.127 C 21.9727 32.3242 22.8516 33.5938 25 33.5938 C 27.002 33.5938 28.5645 32.1289 28.1738 29.7852 L 23.1934 -2.14844 C 22.4121 -6.88477 24.0234 -9.375 28.7598 -10.6445 C 31.2988 -11.2793 33.8379 -11.9141 36.4258 -12.5488 C 34.0332 -9.52148 32.8613 -5.66406 32.8613 -0.683594 C 32.8613 19.873 48.6328 38.8184 65.8691 38.8184 Z"/>
  </g>
  <g id="Thin-L" transform="matrix(1 0 0 1 792.579 1556)">
   <path d="M 63.8184 38.8184 C 80.6641 38.8184 96.6309 20.0684 96.6309 -0.439453 C 96.6309 -6.73828 94.9707 -11.5723 91.6016 -15.1855 C 94.7754 -14.4043 97.8516 -13.6719 100.977 -12.8906 C 106.055 -11.6211 107.91 -8.54492 106.982 -3.02734 L 101.66 30.2246 C 101.465 31.5918 102.49 32.5684 103.809 32.5684 C 105.225 32.5684 105.713 31.7871 106.006 30.3223 L 111.328 -3.66211 C 112.5 -11.0352 109.521 -15.1367 101.514 -17.041 L 77.7344 -22.7051 L 77.7344 -23.3887 C 81.6895 -25.2441 83.8379 -29.7363 83.9844 -34.2285 L 98.2422 -36.1816 C 106.445 -37.3047 109.668 -40.625 109.668 -47.998 L 109.668 -68.6523 C 109.668 -70.1172 108.887 -70.8496 107.52 -70.8496 C 106.201 -70.8496 105.371 -69.9707 105.371 -68.6523 L 105.371 -48.6328 C 105.371 -43.4082 103.223 -41.1621 97.7539 -40.3809 L 83.7402 -38.3301 C 83.1055 -40.8203 81.7871 -43.0176 79.6875 -44.4336 L 79.6875 -45.0684 C 90.4297 -47.0215 95.8984 -53.5156 95.8984 -63.0859 C 95.8984 -72.998 91.3574 -81.9824 84.3262 -87.9883 L 85.6445 -89.0625 C 91.3086 -93.7012 91.2598 -98.6328 86.9629 -104.395 L 79.4922 -114.16 C 78.9062 -115.039 78.2227 -115.43 77.4414 -115.43 C 76.416 -115.43 75.5371 -114.746 75.5371 -113.623 C 75.5371 -113.086 75.7324 -112.646 76.2695 -111.865 L 83.9844 -101.953 C 86.7676 -98.291 87.0605 -95.0684 83.1543 -91.8457 C 82.5195 -91.4062 81.9336 -90.8691 81.2988 -90.4297 C 76.2207 -93.7988 70.2148 -95.8496 63.8184 -95.8496 C 57.5195 -95.8496 51.4648 -93.7988 46.3867 -90.4297 C 45.8008 -90.8691 45.166 -91.4062 44.5312 -91.8945 C 40.625 -95.0684 40.918 -98.291 43.7012 -101.953 L 51.416 -111.865 C 52.002 -112.646 52.1484 -113.086 52.1484 -113.623 C 52.1484 -114.746 51.3184 -115.43 50.2441 -115.43 C 49.4629 -115.43 48.8281 -115.039 48.1934 -114.16 L 40.7227 -104.395 C 36.4258 -98.6328 36.377 -93.7012 42.0898 -89.0625 L 43.3594 -87.9883 C 36.3281 -82.0312 31.7383 -72.998 31.7383 -63.0859 C 31.7383 -53.5156 37.207 -47.0215 47.998 -45.0684 L 47.998 -44.4336 C 45.8496 -43.0176 44.5801 -40.8203 43.9453 -38.3301 L 29.8828 -40.3809 C 24.4141 -41.1621 22.3145 -43.4082 22.3145 -48.6328 L 22.3145 -68.6523 C 22.3145 -69.9707 21.4844 -70.8496 20.166 -70.8496 C 18.75 -70.8496 18.0176 -70.1172 18.0176 -68.6523 L 18.0176 -47.998 C 18.0176 -40.625 21.2402 -37.3047 29.3945 -36.1816 L 43.6523 -34.2285 C 43.8477 -29.7363 45.9473 -25.2441 49.9023 -23.3887 L 49.9023 -22.7051 L 26.123 -17.041 C 18.1641 -15.1367 15.1855 -11.0352 16.3086 -3.66211 L 21.6797 30.3223 C 21.9727 31.7871 22.4609 32.5684 23.877 32.5684 C 25.1953 32.5684 26.1719 31.5918 25.9766 30.2246 L 20.7031 -3.02734 C 19.7754 -8.54492 21.6309 -11.6211 26.709 -12.8906 C 29.834 -13.6719 32.9102 -14.4043 36.0352 -15.1855 C 32.666 -11.5723 31.0547 -6.73828 31.0547 -0.439453 C 31.0547 20.0684 46.9727 38.8184 63.8184 38.8184 Z"/>
  </g>
  <g id="Ultralight-L" transform="matrix(1 0 0 1 496.918 1556)">
   <path d="M 62.793 38.8184 C 79.3945 38.8184 95.459 20.166 95.459 -0.292969 C 95.459 -7.32422 93.5547 -12.5977 89.6973 -16.5527 C 93.1641 -15.7227 96.4844 -14.8438 99.9512 -14.0137 C 105.176 -12.7441 107.178 -9.375 106.152 -3.4668 L 100.684 30.4688 C 100.586 31.3477 101.318 32.0312 102.295 32.0312 C 103.32 32.0312 103.613 31.4941 103.809 30.3711 L 109.229 -3.85742 C 110.352 -11.2305 107.373 -15.332 99.4141 -17.2852 L 76.709 -22.7051 L 76.709 -23.3887 C 80.9082 -25.3418 83.1543 -30.3223 83.1543 -35.1562 L 96.2891 -36.9141 C 104.492 -38.0371 107.715 -41.1621 107.715 -48.4375 L 107.715 -68.7988 C 107.715 -69.9219 107.178 -70.459 106.104 -70.459 C 105.176 -70.459 104.541 -69.7266 104.541 -68.7988 L 104.541 -48.7793 C 104.541 -43.3594 102.49 -40.9668 96.7285 -40.1367 L 82.7637 -38.0371 C 82.1289 -40.6738 80.8594 -42.9688 78.6133 -44.4336 L 78.6133 -45.0684 C 89.4043 -47.0215 94.7266 -53.5156 94.7266 -63.0859 C 94.7266 -73.4375 89.8438 -82.7637 82.373 -88.8184 L 83.7891 -90.0391 C 89.4043 -94.7266 89.1113 -99.2676 84.7168 -104.785 L 76.4648 -115.381 C 75.9277 -115.967 75.4395 -116.26 74.9512 -116.26 C 74.2188 -116.26 73.6328 -115.82 73.6328 -114.99 C 73.6328 -114.551 73.7793 -114.209 74.3164 -113.525 L 83.0078 -102.539 C 85.9863 -98.7793 86.3281 -95.459 82.0801 -92.041 C 81.3965 -91.5527 80.7129 -90.9668 80.0781 -90.4785 C 75 -93.7988 69.0918 -95.8496 62.793 -95.8496 C 56.543 -95.8496 50.5371 -93.7988 45.459 -90.4785 C 44.8242 -90.9668 44.1406 -91.5527 43.457 -92.041 C 39.209 -95.459 39.5508 -98.7793 42.5293 -102.539 L 51.2207 -113.525 C 51.7578 -114.209 51.9531 -114.551 51.9531 -114.99 C 51.9531 -115.82 51.3184 -116.26 50.5859 -116.26 C 50.0977 -116.26 49.6094 -115.967 49.0723 -115.381 L 40.8203 -104.785 C 36.4258 -99.2676 36.1328 -94.7266 41.748 -90.0391 L 43.2129 -88.8184 C 35.7422 -82.7637 30.8594 -73.4375 30.8594 -63.0859 C 30.8594 -53.5156 36.1816 -47.0215 46.9238 -45.0684 L 46.9238 -44.4336 C 44.7266 -42.9688 43.457 -40.6738 42.7734 -38.0371 L 28.8574 -40.1367 C 23.0469 -40.9668 20.9961 -43.3594 20.9961 -48.7793 L 20.9961 -68.7988 C 20.9961 -69.7266 20.3613 -70.459 19.4336 -70.459 C 18.4082 -70.459 17.8711 -69.9219 17.8711 -68.7988 L 17.8711 -48.4375 C 17.8711 -41.1621 21.0449 -38.0371 29.2969 -36.9141 L 42.4316 -35.1562 C 42.4316 -30.3223 44.6289 -25.3418 48.877 -23.3887 L 48.877 -22.7051 L 26.123 -17.2852 C 18.1641 -15.332 15.1855 -11.2305 16.3086 -3.85742 L 21.7285 30.3711 C 21.9727 31.4941 22.2656 32.0312 23.291 32.0312 C 24.2188 32.0312 25 31.3477 24.8535 30.4688 L 19.3848 -3.4668 C 18.4082 -9.375 20.4102 -12.7441 25.6348 -14.0137 C 29.0527 -14.8438 32.4219 -15.7227 35.8398 -16.5527 C 31.9824 -12.5977 30.127 -7.32422 30.127 -0.292969 C 30.127 20.166 46.1426 38.8184 62.793 38.8184 Z"/>
  </g>
  <g id="Black-M" transform="matrix(1 0 0 1 2874.32 1126)">
   <path d="M 59.082 26.2207 C 74.5605 26.2207 87.7441 9.7168 87.7441 -7.95898 C 87.7441 -8.64258 87.7441 -9.32617 87.6953 -10.0098 C 88.1348 -9.86328 88.5254 -9.66797 88.8672 -9.57031 C 91.6016 -8.44727 92.3828 -6.73828 91.9434 -3.80859 L 88.7695 16.9434 C 87.9883 21.7773 91.0645 24.6094 94.9707 24.6094 C 99.1211 24.6094 101.074 22.0703 101.709 17.9199 L 105.42 -6.29883 C 106.738 -14.7461 103.418 -19.4336 94.1406 -21.4355 L 71.6309 -26.3672 L 71.6309 -26.9531 C 72.8516 -27.4902 73.877 -28.3203 74.6582 -29.3945 L 91.3086 -30.6152 C 100.244 -31.2988 104.443 -37.207 104.443 -46.2402 L 104.443 -62.1582 C 104.443 -66.1621 102.002 -68.5547 97.998 -68.5547 C 93.8965 -68.5547 91.6504 -66.1621 91.6504 -62.1582 L 91.6504 -49.0234 C 91.6504 -44.043 88.8184 -42.4805 84.4727 -42.1387 L 76.123 -41.5527 C 75.4883 -42.9199 74.5605 -44.0918 73.3398 -44.9219 L 73.3398 -45.459 C 82.5195 -47.1191 87.1094 -52.6855 87.1094 -60.8398 C 87.1094 -65.7715 85.8398 -70.4102 83.5449 -74.4629 L 85.1562 -75.5371 C 91.6504 -80.0293 92.8223 -86.2305 88.7695 -93.9941 L 86.1328 -99.0234 C 84.668 -101.709 83.0078 -102.832 80.5664 -102.832 C 77.4902 -102.832 75.0977 -100.488 75.0977 -97.5098 C 75.0977 -96.1426 75.2441 -95.4102 75.9766 -94.0918 L 77.9785 -90.4297 C 79.3457 -87.9395 78.8574 -85.2539 76.4648 -83.5449 C 76.2695 -83.4473 76.0742 -83.252 75.8789 -83.1055 C 71.1914 -86.7188 65.332 -88.8184 59.082 -88.8184 C 52.832 -88.8184 46.9238 -86.7188 42.2363 -83.1055 C 42.041 -83.252 41.8945 -83.4473 41.6992 -83.5449 C 39.3066 -85.2539 38.7695 -87.9395 40.1367 -90.4297 L 42.1875 -94.0918 C 42.9199 -95.4102 43.0664 -96.1426 43.0664 -97.5098 C 43.0664 -100.488 40.6738 -102.832 37.5977 -102.832 C 35.1562 -102.832 33.4473 -101.709 32.0312 -99.0234 L 29.3945 -93.9941 C 25.293 -86.2305 26.4648 -80.0293 33.0078 -75.5371 L 34.6191 -74.4629 C 32.3242 -70.4102 31.0059 -65.7715 31.0059 -60.8398 C 31.0059 -52.6855 35.6445 -47.1191 44.8242 -45.459 L 44.8242 -44.9219 C 43.5547 -44.0918 42.627 -42.9199 41.9922 -41.5527 L 33.6426 -42.1387 C 29.3457 -42.4805 26.5137 -44.043 26.5137 -49.0234 L 26.5137 -62.1582 C 26.5137 -66.1621 24.2676 -68.5547 20.166 -68.5547 C 16.1621 -68.5547 13.6719 -66.1621 13.6719 -62.1582 L 13.6719 -46.2402 C 13.6719 -37.207 17.9199 -31.2988 26.8066 -30.6152 L 43.457 -29.3945 C 44.2871 -28.3203 45.2637 -27.4902 46.4844 -26.9531 L 46.4844 -26.3672 L 24.0234 -21.4355 C 14.7461 -19.4336 11.377 -14.7461 12.6953 -6.29883 L 16.4551 17.9199 C 17.0898 22.0703 19.043 24.6094 23.1934 24.6094 C 27.0508 24.6094 30.127 21.7773 29.3945 16.9434 L 26.2207 -3.80859 C 25.7812 -6.88477 26.6113 -8.49609 29.4922 -9.61914 C 29.7852 -9.76562 30.0781 -9.86328 30.4688 -10.0098 C 30.4199 -9.32617 30.4199 -8.64258 30.4199 -7.95898 C 30.4199 9.7168 43.6523 26.2207 59.082 26.2207 Z"/>
  </g>
  <g id="Heavy-M" transform="matrix(1 0 0 1 2579.02 1126)">
   <path d="M 57.666 25.2441 C 72.7539 25.2441 85.6934 9.17969 85.6934 -8.10547 C 85.6934 -9.27734 85.5957 -10.2539 85.3516 -11.1816 C 85.9863 -10.9863 86.6211 -10.791 87.2559 -10.5957 C 90.1367 -9.52148 90.918 -7.91016 90.4785 -4.98047 L 87.207 16.4551 C 86.5234 20.8008 89.3066 23.3398 92.8223 23.3398 C 96.5332 23.3398 98.291 20.9961 98.877 17.2852 L 102.637 -7.22656 C 103.857 -14.9902 100.781 -19.3359 92.1875 -21.1914 L 69.8242 -26.1719 L 69.8242 -26.709 C 71.2402 -27.3926 72.3633 -28.5156 73.0957 -29.834 L 89.3555 -31.25 C 97.6562 -31.9824 101.514 -37.3047 101.514 -45.6055 L 101.514 -61.7676 C 101.514 -65.4297 99.3164 -67.5781 95.6543 -67.5781 C 91.9922 -67.5781 89.9414 -65.4297 89.9414 -61.7676 L 89.9414 -48.0957 C 89.9414 -43.5059 87.3535 -42.041 83.3008 -41.6992 L 74.2676 -40.8691 C 73.6816 -42.2852 72.7539 -43.5059 71.4844 -44.3359 L 71.4844 -44.873 C 80.4688 -46.4355 85.0586 -51.9043 85.0586 -59.9121 C 85.0586 -65.1367 83.5449 -70.0195 80.9082 -74.1699 L 82.1777 -75.0488 C 88.2812 -79.2969 89.4043 -85.2539 85.5957 -92.4805 L 82.8613 -97.4121 C 81.543 -99.8535 80.0293 -100.879 77.7832 -100.879 C 74.9512 -100.879 72.8027 -98.7305 72.8027 -96.0449 C 72.8027 -94.7754 72.9004 -94.0918 73.6328 -92.8223 L 75.7324 -89.1602 C 77.1484 -86.6211 76.7578 -84.082 74.4629 -82.373 C 74.2676 -82.2266 74.0723 -82.0312 73.877 -81.8848 C 69.3359 -85.2539 63.6719 -87.2559 57.666 -87.2559 C 51.6602 -87.2559 46.0449 -85.2539 41.5039 -81.8848 C 41.3086 -82.0312 41.1133 -82.2266 40.918 -82.373 C 38.623 -84.082 38.2324 -86.6211 39.6484 -89.1602 L 41.748 -92.8223 C 42.4805 -94.0918 42.5781 -94.7754 42.5781 -96.0449 C 42.5781 -98.7305 40.4297 -100.879 37.5977 -100.879 C 35.4004 -100.879 33.8379 -99.8535 32.5195 -97.4121 L 29.834 -92.4805 C 25.9766 -85.2539 27.0996 -79.2969 33.2031 -75.0488 L 34.4727 -74.1699 C 31.8359 -70.0684 30.2734 -65.1367 30.2734 -59.9121 C 30.2734 -51.9043 34.9121 -46.4355 43.8965 -44.873 L 43.8965 -44.3359 C 42.627 -43.5059 41.6992 -42.2852 41.0645 -40.8691 L 32.0801 -41.6992 C 27.9785 -42.041 25.3906 -43.5059 25.3906 -48.0957 L 25.3906 -61.7676 C 25.3906 -65.4297 23.3398 -67.5781 19.6777 -67.5781 C 16.0645 -67.5781 13.8672 -65.4297 13.8672 -61.7676 L 13.8672 -45.6055 C 13.8672 -37.3047 17.7246 -31.9824 25.9766 -31.25 L 42.2363 -29.834 C 43.0176 -28.5156 44.0918 -27.3926 45.5078 -26.709 L 45.5078 -26.1719 L 23.1445 -21.1914 C 14.5508 -19.3359 11.4746 -14.9902 12.6953 -7.22656 L 16.5039 17.2852 C 17.041 20.9961 18.7988 23.3398 22.5586 23.3398 C 26.0742 23.3398 28.8086 20.8008 28.125 16.4551 L 24.8535 -4.98047 C 24.4141 -8.00781 25.293 -9.57031 28.3203 -10.6445 C 28.8574 -10.8398 29.3945 -10.9863 30.0293 -11.1816 C 29.7852 -10.2539 29.6875 -9.27734 29.6875 -8.10547 C 29.6875 9.17969 42.627 25.2441 57.666 25.2441 Z"/>
  </g>
  <g id="Bold-M" transform="matrix(1 0 0 1 2283.87 1126)">
   <path d="M 56.1035 24.1699 C 70.752 24.1699 83.3496 8.49609 83.3496 -8.30078 C 83.3496 -9.91211 83.1543 -11.2793 82.7148 -12.5 C 83.5938 -12.2559 84.5215 -11.9629 85.4004 -11.7188 C 88.4277 -10.6934 89.3066 -9.17969 88.8672 -6.25 L 85.498 15.8203 C 84.9121 19.6289 87.3047 21.875 90.3809 21.875 C 93.6523 21.875 95.166 19.873 95.7031 16.6016 L 99.5605 -8.20312 C 100.635 -15.2832 97.8516 -19.1895 90.0391 -20.9473 L 67.8223 -25.9766 L 67.7734 -26.4648 C 69.4336 -27.2461 70.6543 -28.7109 71.3867 -30.3223 L 87.207 -31.9824 C 94.7266 -32.7637 98.1934 -37.4023 98.1934 -44.9219 L 98.1934 -61.377 C 98.1934 -64.5508 96.2891 -66.4551 93.0664 -66.4551 C 89.8926 -66.4551 88.0371 -64.5508 88.0371 -61.377 L 88.0371 -47.0703 C 88.0371 -42.8711 85.7422 -41.5039 81.9824 -41.1621 L 72.2168 -40.0879 C 71.6309 -41.5527 70.6543 -42.8223 69.3848 -43.6523 L 69.3848 -44.1895 C 78.125 -45.752 82.7637 -51.0254 82.7637 -58.8379 C 82.7637 -64.4043 80.957 -69.6289 77.9297 -73.8281 L 78.9062 -74.5117 C 84.5703 -78.5156 85.5957 -84.1309 81.9824 -90.7227 L 79.248 -95.5566 C 78.0762 -97.7539 76.6602 -98.6816 74.707 -98.6816 C 72.168 -98.6816 70.2148 -96.7773 70.2148 -94.3359 C 70.2148 -93.2129 70.3613 -92.5781 70.9961 -91.4551 L 73.2422 -87.6953 C 74.707 -85.1562 74.4629 -82.7637 72.2656 -81.0059 C 72.0703 -80.8594 71.8262 -80.6641 71.582 -80.4688 C 67.2363 -83.6426 61.8652 -85.498 56.1035 -85.498 C 50.3906 -85.498 45.0684 -83.6426 40.6738 -80.5176 C 40.4785 -80.6641 40.2344 -80.8594 39.9902 -81.0547 C 37.8418 -82.7637 37.5488 -85.1562 39.0625 -87.6953 L 41.3086 -91.4551 C 41.9922 -92.5781 42.0898 -93.2129 42.0898 -94.3359 C 42.0898 -96.7773 40.1855 -98.6816 37.6465 -98.6816 C 35.6445 -98.6816 34.2773 -97.7539 33.0566 -95.5566 L 30.3223 -90.7227 C 26.7578 -84.1309 27.7832 -78.5156 33.3984 -74.5117 L 34.375 -73.877 C 31.2988 -69.6777 29.4434 -64.4531 29.4434 -58.8379 C 29.4434 -51.0254 34.082 -45.752 42.8223 -44.1895 L 42.8223 -43.6523 C 41.5527 -42.8223 40.625 -41.5527 40.0391 -40.0879 L 30.2734 -41.1621 C 26.5137 -41.5039 24.1699 -42.8711 24.1699 -47.0703 L 24.1699 -61.377 C 24.1699 -64.5508 22.3633 -66.4551 19.1406 -66.4551 C 15.9668 -66.4551 14.0625 -64.5508 14.0625 -61.377 L 14.0625 -44.9219 C 14.0625 -37.4023 17.5293 -32.7637 25.0488 -31.9824 L 40.8691 -30.3223 C 41.5527 -28.7109 42.7734 -27.2461 44.4336 -26.4648 L 44.4336 -25.9766 L 22.168 -20.9473 C 14.4043 -19.1895 11.5723 -15.2832 12.6953 -8.20312 L 16.5527 16.6016 C 17.041 19.873 18.5547 21.875 21.8262 21.875 C 24.9512 21.875 27.3438 19.6289 26.7578 15.8203 L 23.3398 -6.25 C 22.9004 -9.22852 23.8281 -10.7422 26.9531 -11.7676 C 27.7832 -12.0117 28.6621 -12.2559 29.541 -12.5 C 29.0527 -11.2793 28.8574 -9.91211 28.8574 -8.30078 C 28.8574 8.49609 41.5039 24.1699 56.1035 24.1699 Z"/>
  </g>
  <g id="Semibold-M" transform="matrix(1 0 0 1 1988.24 1126)">
   <path d="M 55.0293 23.4375 C 69.3848 23.4375 81.7871 8.05664 81.7871 -8.44727 C 81.7871 -10.4004 81.4941 -12.0117 80.8594 -13.3789 C 81.9824 -13.0859 83.0566 -12.793 84.1309 -12.5 C 87.2559 -11.5234 88.1836 -10.0586 87.7441 -7.12891 L 84.2773 15.4297 C 83.7891 18.8477 85.9375 20.8984 88.7207 20.8984 C 91.6504 20.8984 93.0176 19.043 93.5059 16.1133 L 97.4121 -8.88672 C 98.4375 -15.4785 95.8008 -19.0918 88.5742 -20.752 L 66.4062 -25.7812 L 66.4062 -26.3184 C 68.2129 -27.1973 69.4824 -28.8086 70.166 -30.6641 L 85.6934 -32.5195 C 92.6758 -33.3008 95.8984 -37.5 95.8984 -44.4824 L 95.8984 -61.084 C 95.8984 -63.9648 94.1895 -65.6738 91.3086 -65.6738 C 88.4277 -65.6738 86.7188 -63.916 86.7188 -61.084 L 86.7188 -46.3867 C 86.7188 -42.4316 84.6191 -41.1621 81.0547 -40.7715 L 70.752 -39.5508 C 70.2148 -41.0156 69.2383 -42.334 67.9199 -43.1641 L 67.9199 -43.7012 C 76.5625 -45.2148 81.2012 -50.4395 81.2012 -58.1055 C 81.2012 -63.916 79.1992 -69.3359 75.8789 -73.584 L 76.6602 -74.1699 C 81.9824 -77.9297 82.9102 -83.3496 79.541 -89.502 L 76.709 -94.3359 C 75.6348 -96.3379 74.3652 -97.168 72.5586 -97.168 C 70.2148 -97.168 68.457 -95.4102 68.457 -93.1641 C 68.457 -92.1387 68.5547 -91.5527 69.1895 -90.5273 L 71.5332 -86.7188 C 73.0469 -84.1797 72.9004 -81.8359 70.752 -80.0781 C 70.5078 -79.8828 70.3125 -79.6875 70.0195 -79.4922 C 65.7715 -82.5195 60.5957 -84.3262 55.0293 -84.3262 C 49.5117 -84.3262 44.3848 -82.5195 40.1367 -79.541 C 39.8926 -79.6875 39.6484 -79.9316 39.4043 -80.127 C 37.3047 -81.8359 37.1094 -84.1797 38.6719 -86.7188 L 41.0156 -90.5273 C 41.6504 -91.5527 41.748 -92.1387 41.748 -93.1641 C 41.748 -95.4102 39.9902 -97.168 37.6465 -97.168 C 35.8398 -97.168 34.5703 -96.3379 33.4473 -94.3359 L 30.6641 -89.502 C 27.2461 -83.3496 28.2227 -77.9297 33.5449 -74.1699 L 34.2773 -73.6328 C 30.9082 -69.3848 28.8574 -63.9648 28.8574 -58.1055 C 28.8574 -50.4395 33.4961 -45.2148 42.1387 -43.7012 L 42.1387 -43.1641 C 40.8203 -42.334 39.8926 -41.0156 39.3066 -39.5508 L 29.0039 -40.7715 C 25.4395 -41.1621 23.3398 -42.4316 23.3398 -46.3867 L 23.3398 -61.084 C 23.3398 -63.916 21.6797 -65.6738 18.75 -65.6738 C 15.8691 -65.6738 14.1602 -63.9648 14.1602 -61.084 L 14.1602 -44.4824 C 14.1602 -37.5 17.3828 -33.3008 24.3652 -32.5195 L 39.8926 -30.6641 C 40.5762 -28.8086 41.8457 -27.1973 43.7012 -26.3184 L 43.7012 -25.7812 L 21.4844 -20.752 C 14.2578 -19.0918 11.6211 -15.4785 12.6953 -8.88672 L 16.5527 16.1133 C 17.041 19.043 18.4082 20.8984 21.3379 20.8984 C 24.1699 20.8984 26.3184 18.8477 25.7812 15.4297 L 22.3145 -7.12891 C 21.875 -10.1074 22.8027 -11.5234 26.0254 -12.5488 C 27.0508 -12.8418 28.125 -13.0859 29.1992 -13.3789 C 28.5645 -12.0117 28.2715 -10.4004 28.2715 -8.44727 C 28.2715 8.05664 40.7227 23.4375 55.0293 23.4375 Z"/>
  </g>
  <g id="Medium-M" transform="matrix(1 0 0 1 1692.33 1126)">
   <path d="M 54.1992 22.8516 C 68.3105 22.8516 80.5664 7.71484 80.5664 -8.54492 C 80.5664 -10.7422 80.2246 -12.5488 79.4922 -14.0625 C 80.7129 -13.7207 81.9336 -13.4277 83.1543 -13.0859 C 86.377 -12.1094 87.3535 -10.7422 86.9141 -7.8125 L 83.3984 15.1367 C 82.9102 18.2617 84.8633 20.1172 87.4512 20.1172 C 90.1367 20.1172 91.4062 18.457 91.8457 15.7227 L 95.752 -9.42383 C 96.7773 -15.625 94.2871 -19.043 87.4512 -20.6055 L 65.3809 -25.6836 L 65.332 -26.2207 C 67.2852 -27.0996 68.6035 -28.9551 69.2383 -30.9082 L 84.5703 -32.8613 C 91.1621 -33.7402 94.1895 -37.5488 94.1895 -44.0918 L 94.1895 -60.8398 C 94.1895 -63.5254 92.5781 -65.0879 89.9414 -65.0879 C 87.3047 -65.0879 85.7422 -63.4766 85.7422 -60.8398 L 85.7422 -45.8496 C 85.7422 -42.1387 83.7402 -40.918 80.3711 -40.5273 L 69.6777 -39.1602 C 69.1406 -40.625 68.1641 -41.9434 66.8457 -42.8223 L 66.8457 -43.3594 C 75.3418 -44.873 79.9805 -50 79.9805 -57.5684 C 79.9805 -63.5742 77.832 -69.0918 74.3164 -73.4375 L 74.9512 -73.877 C 80.0293 -77.4902 80.9082 -82.7637 77.6855 -88.623 L 74.8535 -93.3594 C 73.8281 -95.2148 72.6074 -96.0449 70.9473 -96.0449 C 68.75 -96.0449 67.0898 -94.3848 67.0898 -92.2852 C 67.0898 -91.3574 67.2363 -90.8203 67.7734 -89.7949 L 70.2637 -85.9863 C 71.7773 -83.3984 71.6797 -81.1523 69.6289 -79.3945 C 69.3848 -79.1992 69.1406 -79.0039 68.8477 -78.7598 C 64.6484 -81.6895 59.6191 -83.3984 54.1992 -83.3984 C 48.877 -83.3984 43.8477 -81.6895 39.6973 -78.8086 C 39.4531 -79.0039 39.1602 -79.1992 38.916 -79.4434 C 36.9141 -81.1523 36.7676 -83.3984 38.3301 -85.9863 L 40.7715 -89.7949 C 41.3574 -90.8203 41.5039 -91.3574 41.5039 -92.2852 C 41.5039 -94.3848 39.8438 -96.0449 37.6465 -96.0449 C 35.9375 -96.0449 34.7656 -95.2148 33.7402 -93.3594 L 30.9082 -88.623 C 27.6855 -82.7637 28.5645 -77.4902 33.6426 -73.877 L 34.1797 -73.4863 C 30.6152 -69.1895 28.418 -63.5742 28.418 -57.5684 C 28.418 -50 33.0566 -44.873 41.6016 -43.3594 L 41.6016 -42.8223 C 40.2344 -41.9434 39.3066 -40.625 38.7695 -39.1602 L 28.0762 -40.5273 C 24.6582 -40.918 22.6562 -42.1387 22.6562 -45.8496 L 22.6562 -60.8398 C 22.6562 -63.4766 21.1426 -65.0879 18.5059 -65.0879 C 15.8203 -65.0879 14.2578 -63.5254 14.2578 -60.8398 L 14.2578 -44.0918 C 14.2578 -37.5488 17.2852 -33.7402 23.877 -32.8613 L 39.1602 -30.9082 C 39.8438 -28.9551 41.1621 -27.0996 43.1152 -26.2207 L 43.1152 -25.6836 L 20.9961 -20.6055 C 14.1602 -19.043 11.6699 -15.625 12.6465 -9.42383 L 16.6016 15.7227 C 17.041 18.457 18.2617 20.1172 20.9961 20.1172 C 23.584 20.1172 25.5371 18.2617 25.0488 15.1367 L 21.5332 -7.8125 C 21.0938 -10.7422 22.0703 -12.1582 25.3418 -13.1348 C 26.5137 -13.4277 27.7344 -13.7207 28.9062 -14.0625 C 28.2227 -12.5488 27.832 -10.7422 27.832 -8.54492 C 27.832 7.71484 40.1367 22.8516 54.1992 22.8516 Z"/>
  </g>
  <g id="Regular-M" transform="matrix(1 0 0 1 1396.7 1126)">
   <path d="M 53.125 22.1191 C 66.9434 22.1191 79.0039 7.27539 79.0039 -8.69141 C 79.0039 -11.1816 78.5645 -13.2812 77.6855 -14.9902 C 79.1016 -14.5996 80.5176 -14.2578 81.8848 -13.8672 C 85.2539 -12.9395 86.2793 -11.6211 85.791 -8.69141 L 82.2266 14.6973 C 81.7871 17.4805 83.4961 19.1406 85.791 19.1406 C 88.1836 19.1406 89.2578 17.6758 89.6484 15.2344 L 93.6523 -10.1074 C 94.5801 -15.8203 92.2363 -18.9453 85.9863 -20.4102 L 63.9648 -25.5371 L 63.916 -26.0254 C 66.0156 -27.0508 67.4316 -29.0527 68.0664 -31.25 L 83.0566 -33.3984 C 89.1602 -34.2285 91.8945 -37.6465 91.8945 -43.6523 L 91.8945 -60.5469 C 91.8945 -62.9395 90.5273 -64.3066 88.1836 -64.3066 C 85.8398 -64.3066 84.4727 -62.8906 84.4727 -60.5469 L 84.4727 -45.166 C 84.4727 -41.6992 82.6172 -40.5762 79.4434 -40.1367 L 68.2617 -38.623 C 67.7246 -40.1367 66.748 -41.5039 65.4297 -42.3828 L 65.4297 -42.8711 C 73.7793 -44.3359 78.418 -49.4141 78.418 -56.8359 C 78.418 -63.0859 76.0742 -68.7988 72.2656 -73.1934 L 72.7051 -73.5352 C 77.4414 -76.9531 78.3203 -81.9824 75.2441 -87.4023 L 72.3633 -92.1387 C 71.4355 -93.7988 70.3613 -94.5312 68.8477 -94.5312 C 66.8457 -94.5312 65.332 -93.0664 65.332 -91.1621 C 65.332 -90.2832 65.4785 -89.7949 66.0156 -88.8184 L 68.5547 -84.9609 C 70.1172 -82.4219 70.1172 -80.2246 68.1152 -78.4668 C 67.8711 -78.2227 67.5781 -78.0273 67.2852 -77.832 C 63.2324 -80.5664 58.3496 -82.1777 53.125 -82.1777 C 47.998 -82.1777 43.1641 -80.5664 39.1602 -77.8809 C 38.916 -78.0273 38.5742 -78.2715 38.3301 -78.5156 C 36.377 -80.2246 36.3281 -82.4219 37.9395 -84.9609 L 40.4785 -88.8184 C 41.0156 -89.7949 41.1621 -90.2832 41.1621 -91.1621 C 41.1621 -93.0664 39.6484 -94.5312 37.6465 -94.5312 C 36.1328 -94.5312 35.0586 -93.7988 34.1309 -92.1387 L 31.25 -87.4023 C 28.1738 -81.9824 29.0527 -76.9531 33.7891 -73.5352 L 34.1309 -73.291 C 30.2734 -68.8965 27.832 -63.1348 27.832 -56.8359 C 27.832 -49.4141 32.5195 -44.3359 40.8691 -42.8711 L 40.8691 -42.3828 C 39.5508 -41.5039 38.5742 -40.1367 38.0371 -38.623 L 26.8555 -40.1367 C 23.6328 -40.5762 21.8262 -41.6992 21.8262 -45.166 L 21.8262 -60.5469 C 21.8262 -62.8906 20.459 -64.3066 18.1152 -64.3066 C 15.7715 -64.3066 14.4043 -62.9395 14.4043 -60.5469 L 14.4043 -43.6523 C 14.4043 -37.6465 17.1387 -34.2285 23.2422 -33.3984 L 38.2324 -31.25 C 38.8672 -29.0527 40.2832 -27.0508 42.3828 -26.0254 L 42.3828 -25.5371 L 20.3125 -20.4102 C 14.0137 -18.9453 11.7188 -15.8203 12.6465 -10.1074 L 16.6504 15.2344 C 16.9922 17.6758 18.1152 19.1406 20.5078 19.1406 C 22.8027 19.1406 24.5117 17.4805 24.0723 14.6973 L 20.5078 -8.69141 C 20.0195 -11.6211 21.0449 -12.9395 24.4141 -13.8672 C 25.7812 -14.2578 27.1973 -14.5996 28.6133 -14.9902 C 27.7344 -13.2812 27.2949 -11.1816 27.2949 -8.69141 C 27.2949 7.27539 39.3555 22.1191 53.125 22.1191 Z"/>
  </g>
  <g id="Light-M" transform="matrix(1 0 0 1 1101.38 1126)">
   <path d="M 51.7578 22.1191 C 65.2832 22.1191 77.4414 7.42188 77.4414 -8.54492 C 77.4414 -11.9141 76.709 -14.6484 75.1465 -16.748 C 76.9531 -16.3086 78.7598 -15.8691 80.5176 -15.4297 C 84.082 -14.4531 85.2539 -12.7441 84.7168 -9.27734 L 80.9082 15.0391 C 80.6152 17.1387 81.9824 18.457 83.7891 18.457 C 85.6934 18.457 86.4746 17.2852 86.8164 15.3809 L 90.8691 -10.3516 C 91.748 -16.0645 89.4531 -19.2383 83.2031 -20.7031 L 62.5488 -25.5371 L 62.5488 -26.0254 C 64.9902 -27.1973 66.5039 -29.7852 66.9434 -32.4707 L 80.4199 -34.375 C 86.6211 -35.2051 89.3066 -38.2812 89.3066 -44.1895 L 89.3066 -60.791 C 89.3066 -62.6465 88.2324 -63.7695 86.3281 -63.7695 C 84.5215 -63.7695 83.3984 -62.5977 83.3984 -60.791 L 83.3984 -45.3613 C 83.3984 -41.6504 81.6406 -40.2832 78.0762 -39.7949 L 66.9922 -38.2324 C 66.4551 -39.9414 65.4785 -41.4062 64.0137 -42.3828 L 64.0137 -42.8711 C 72.3633 -44.3359 76.9043 -49.4141 76.9043 -56.8359 C 76.9043 -63.623 74.0723 -69.8242 69.6777 -74.3164 L 70.3125 -74.8047 C 74.9023 -78.3203 75.4395 -82.8613 72.2656 -87.9395 L 68.3105 -93.75 C 67.5293 -95.0195 66.6504 -95.6055 65.4785 -95.6055 C 63.9648 -95.6055 62.793 -94.4824 62.793 -92.9688 C 62.793 -92.2852 62.8906 -91.8457 63.3789 -91.0156 L 67.2363 -85.7422 C 69.043 -83.0566 69.1406 -80.7617 66.6992 -78.7109 C 66.3574 -78.418 66.0156 -78.1738 65.6738 -77.8809 C 61.6699 -80.6152 56.8848 -82.1777 51.7578 -82.1777 C 46.6797 -82.1777 41.9434 -80.6152 37.9395 -77.9297 C 37.5977 -78.1738 37.2559 -78.4668 36.9141 -78.7598 C 34.5215 -80.7617 34.5703 -83.0566 36.4258 -85.7422 L 40.2344 -91.0156 C 40.7227 -91.8457 40.8691 -92.2852 40.8691 -92.9688 C 40.8691 -94.4824 39.6973 -95.6055 38.1348 -95.6055 C 36.9629 -95.6055 36.1328 -95.0195 35.3516 -93.75 L 31.3965 -87.9395 C 28.2227 -82.8613 28.7109 -78.3203 33.3496 -74.8047 L 33.9355 -74.3652 C 29.4922 -69.873 26.6113 -63.623 26.6113 -56.8359 C 26.6113 -49.4141 31.1035 -44.3359 39.502 -42.8711 L 39.502 -42.3828 C 38.0371 -41.4062 37.0605 -39.9414 36.5234 -38.2324 L 25.4395 -39.7949 C 21.875 -40.2832 20.1172 -41.6504 20.1172 -45.3613 L 20.1172 -60.791 C 20.1172 -62.5977 18.9941 -63.7695 17.1875 -63.7695 C 15.2832 -63.7695 14.209 -62.6465 14.209 -60.791 L 14.209 -44.1895 C 14.209 -38.2812 16.8945 -35.2051 23.0469 -34.375 L 36.5723 -32.4707 C 37.0117 -29.7852 38.5254 -27.1973 40.9668 -26.0254 L 40.9668 -25.5371 L 20.2637 -20.7031 C 14.0625 -19.2383 11.7676 -16.0645 12.6465 -10.3516 L 16.6992 15.3809 C 16.9922 17.2852 17.8223 18.457 19.7266 18.457 C 21.5332 18.457 22.9004 17.1387 22.6074 15.0391 L 18.7988 -9.27734 C 18.2617 -12.7441 19.4336 -14.4531 22.998 -15.4297 C 24.7559 -15.8691 26.5625 -16.3086 28.3203 -16.748 C 26.8066 -14.6484 26.0742 -11.9141 26.0742 -8.54492 C 26.0742 7.42188 38.2324 22.1191 51.7578 22.1191 Z"/>
  </g>
  <g id="Thin-M" transform="matrix(1 0 0 1 806.495 1126)">
   <path d="M 49.9023 22.1191 C 63.0371 22.1191 75.3906 7.61719 75.3906 -8.30078 C 75.3906 -12.9395 74.2188 -16.4551 71.8262 -19.1406 C 74.1211 -18.5547 76.3672 -18.0176 78.7109 -17.4316 C 82.5684 -16.4551 83.9355 -14.209 83.252 -10.1074 L 79.1992 15.4297 C 79.0039 16.6992 79.9316 17.5293 81.1035 17.5293 C 82.3242 17.5293 82.8125 16.7969 83.0566 15.5273 L 87.1582 -10.6934 C 88.0859 -16.4062 85.7422 -19.5801 79.541 -21.0449 L 60.6934 -25.5371 L 60.6934 -26.0254 C 63.6719 -27.4414 65.2832 -30.7617 65.4785 -34.082 L 77.002 -35.6445 C 83.3008 -36.5234 85.8398 -39.209 85.8398 -44.9219 L 85.8398 -61.0352 C 85.8398 -62.3535 85.1562 -63.0371 83.9355 -63.0371 C 82.7148 -63.0371 81.9824 -62.2559 81.9824 -61.0352 L 81.9824 -45.5566 C 81.9824 -41.6016 80.3223 -39.9414 76.2207 -39.3555 L 65.2832 -37.7441 C 64.7949 -39.6484 63.8184 -41.3086 62.207 -42.3828 L 62.207 -42.8711 C 70.5566 -44.3359 74.8047 -49.4141 74.8047 -56.8359 C 74.8047 -64.3555 71.4355 -71.1426 66.2109 -75.7812 L 67.1387 -76.5137 C 71.582 -80.0781 71.6309 -84.082 68.3594 -88.6719 L 62.9395 -95.8984 C 62.4023 -96.6797 61.8164 -97.0215 61.084 -97.0215 C 60.1074 -97.0215 59.375 -96.3867 59.375 -95.4102 C 59.375 -94.9219 59.5215 -94.5801 59.9609 -93.8965 L 65.5273 -86.7188 C 67.627 -83.8867 67.8223 -81.4453 64.8926 -79.0527 C 64.4043 -78.7109 63.9648 -78.3203 63.5254 -77.9785 C 59.5703 -80.6152 54.8828 -82.1777 49.9023 -82.1777 C 44.9707 -82.1777 40.2832 -80.6152 36.3281 -77.9785 C 35.8887 -78.3203 35.4492 -78.7109 35.0098 -79.0527 C 32.0801 -81.4453 32.2754 -83.8867 34.375 -86.7188 L 39.9414 -93.8965 C 40.3809 -94.5801 40.4785 -94.9219 40.4785 -95.4102 C 40.4785 -96.3867 39.7461 -97.0215 38.7695 -97.0215 C 38.0859 -97.0215 37.5 -96.6797 36.9629 -95.8984 L 31.543 -88.6719 C 28.2227 -84.082 28.3203 -80.0781 32.7637 -76.5137 L 33.6426 -75.7812 C 28.418 -71.1914 25 -64.3555 25 -56.8359 C 25 -49.4141 29.2969 -44.3359 37.6465 -42.8711 L 37.6465 -42.3828 C 36.0352 -41.3086 35.0586 -39.6484 34.5215 -37.7441 L 23.6328 -39.3555 C 19.4824 -39.9414 17.8223 -41.6016 17.8223 -45.5566 L 17.8223 -61.0352 C 17.8223 -62.2559 17.0898 -63.0371 15.918 -63.0371 C 14.6973 -63.0371 14.0137 -62.3535 14.0137 -61.0352 L 14.0137 -44.9219 C 14.0137 -39.209 16.5527 -36.5234 22.8516 -35.6445 L 34.375 -34.082 C 34.5703 -30.7617 36.1816 -27.4414 39.1113 -26.0254 L 39.1113 -25.5371 L 20.2637 -21.0449 C 14.0625 -19.5801 11.7676 -16.4062 12.6465 -10.6934 L 16.7969 15.5273 C 16.9922 16.7969 17.4805 17.5293 18.75 17.5293 C 19.9219 17.5293 20.8008 16.6992 20.6055 15.4297 L 16.5527 -10.1074 C 15.8691 -14.209 17.2852 -16.4551 21.1426 -17.4316 C 23.4375 -18.0176 25.6836 -18.5547 28.0273 -19.1406 C 25.6348 -16.4551 24.4629 -12.9395 24.4629 -8.30078 C 24.4629 7.61719 36.7676 22.1191 49.9023 22.1191 Z"/>
  </g>
  <g id="Ultralight-M" transform="matrix(1 0 0 1 510.737 1126)">
   <path d="M 48.9746 22.1191 C 61.9141 22.1191 74.3164 7.66602 74.3164 -8.20312 C 74.3164 -13.4277 72.9492 -17.3828 70.1172 -20.3613 C 72.6562 -19.7266 75.1953 -19.0918 77.7832 -18.457 C 81.7871 -17.4805 83.252 -14.9414 82.5195 -10.498 L 78.3203 15.625 C 78.2227 16.4551 78.8574 17.041 79.7363 17.041 C 80.6152 17.041 80.9082 16.5527 81.1035 15.625 L 85.3027 -10.8398 C 86.1816 -16.5527 83.8379 -19.7754 77.6855 -21.2402 L 59.7656 -25.5371 L 59.7656 -26.0254 C 62.9395 -27.5391 64.6484 -31.25 64.6973 -34.9121 L 75.1953 -36.3281 C 81.5918 -37.207 84.0332 -39.6484 84.0332 -45.3125 L 84.0332 -61.1816 C 84.0332 -62.1582 83.5938 -62.6465 82.666 -62.6465 C 81.8359 -62.6465 81.2988 -62.0605 81.2988 -61.1816 L 81.2988 -45.6543 C 81.2988 -41.5527 79.6387 -39.7461 75.293 -39.1113 L 64.4531 -37.5 C 63.916 -39.502 62.9395 -41.2598 61.2305 -42.3828 L 61.2305 -42.8711 C 69.5801 -44.3359 73.7793 -49.4141 73.7793 -56.8359 C 73.7793 -64.6973 70.0684 -71.8262 64.4043 -76.5137 L 65.4785 -77.3926 C 69.873 -81.0059 69.7266 -84.668 66.3574 -89.0137 L 60.1562 -96.9727 C 59.7656 -97.5098 59.3262 -97.7539 58.8379 -97.7539 C 58.1543 -97.7539 57.6172 -97.3633 57.6172 -96.6309 C 57.6172 -96.2402 57.7637 -95.9473 58.2031 -95.4102 L 64.5996 -87.207 C 66.8945 -84.3262 67.1387 -81.7871 63.916 -79.1992 C 63.4277 -78.8574 62.9395 -78.418 62.4023 -78.0273 C 58.4961 -80.6152 53.9062 -82.1777 48.9746 -82.1777 C 44.1406 -82.1777 39.4531 -80.6152 35.498 -78.0273 C 35.0098 -78.418 34.5215 -78.8574 34.0332 -79.1992 C 30.8105 -81.7871 31.0547 -84.3262 33.3008 -87.207 L 39.7461 -95.4102 C 40.1855 -95.9473 40.332 -96.2402 40.332 -96.6309 C 40.332 -97.3633 39.7461 -97.7539 39.1113 -97.7539 C 38.623 -97.7539 38.1836 -97.5098 37.793 -96.9727 L 31.5918 -89.0137 C 28.2227 -84.668 28.0762 -81.0059 32.4219 -77.3926 L 33.4961 -76.5137 C 27.8809 -71.8262 24.1699 -64.6973 24.1699 -56.8359 C 24.1699 -49.4141 28.3203 -44.3359 36.7188 -42.8711 L 36.7188 -42.3828 C 35.0098 -41.2598 33.9844 -39.502 33.4961 -37.5 L 22.6562 -39.1113 C 18.3105 -39.7461 16.6504 -41.5527 16.6504 -45.6543 L 16.6504 -61.1816 C 16.6504 -62.0605 16.1133 -62.6465 15.2832 -62.6465 C 14.3555 -62.6465 13.8672 -62.1582 13.8672 -61.1816 L 13.8672 -45.3125 C 13.8672 -39.6484 16.3574 -37.207 22.7539 -36.3281 L 33.252 -34.9121 C 33.3008 -31.25 35.0098 -27.5391 38.1836 -26.0254 L 38.1836 -25.5371 L 20.2637 -21.2402 C 14.0625 -19.7754 11.7676 -16.5527 12.6465 -10.8398 L 16.8457 15.625 C 16.9922 16.5527 17.334 17.041 18.2129 17.041 C 19.043 17.041 19.7266 16.4551 19.6289 15.625 L 15.4297 -10.498 C 14.6484 -14.9414 16.1621 -17.4805 20.166 -18.457 C 22.7539 -19.0918 25.2441 -19.7266 27.832 -20.3613 C 25 -17.3828 23.6328 -13.4277 23.6328 -8.20312 C 23.6328 7.66602 36.0352 22.1191 48.9746 22.1191 Z"/>
  </g>
  <g id="Black-S" transform="matrix(1 0 0 1 2887.21 696)">
   <path d="M 46.1914 12.8418 C 58.3008 12.8418 68.6035 -0.0488281 68.6035 -13.8672 C 68.6035 -14.4531 68.6035 -14.9902 68.5547 -15.5273 C 68.8965 -15.4297 69.2383 -15.2832 69.5312 -15.1855 C 71.6797 -14.3066 72.2656 -12.9883 71.9238 -10.6934 L 69.4336 5.61523 C 68.8477 9.375 71.2402 11.5723 74.2676 11.5723 C 77.4902 11.5723 79.0039 9.57031 79.4922 6.34766 L 82.4219 -12.6465 C 83.4473 -19.1895 80.8594 -22.8516 73.6328 -24.4141 L 56.0059 -28.2715 L 56.0059 -28.7109 C 56.9824 -29.1504 57.7637 -29.834 58.3984 -30.6641 L 71.4355 -31.6406 C 78.3691 -32.1777 81.6406 -36.7676 81.6406 -43.7988 L 81.6406 -56.2988 C 81.6406 -59.4238 79.7363 -61.2793 76.6113 -61.2793 C 73.4375 -61.2793 71.6797 -59.4238 71.6797 -56.2988 L 71.6797 -45.9473 C 71.6797 -42.0898 69.4824 -40.8691 66.1133 -40.625 L 59.5215 -40.1367 C 59.0332 -41.2109 58.3008 -42.1387 57.3242 -42.7734 L 57.3242 -43.2129 C 64.502 -44.4824 68.1152 -48.8281 68.1152 -55.2246 C 68.1152 -59.082 67.0898 -62.7441 65.2832 -65.918 L 66.5039 -66.748 C 71.582 -70.2637 72.5098 -75.0977 69.3359 -81.1523 L 67.2852 -85.0586 C 66.1621 -87.1582 64.8438 -88.0371 62.9395 -88.0371 C 60.5469 -88.0371 58.6914 -86.1816 58.6914 -83.8867 C 58.6914 -82.8125 58.7891 -82.2266 59.375 -81.2012 L 60.9375 -78.3691 C 62.0117 -76.416 61.6211 -74.3164 59.7656 -72.998 C 59.6191 -72.9004 59.4727 -72.7539 59.3262 -72.6562 C 55.6641 -75.4395 51.0742 -77.0996 46.1914 -77.0996 C 41.3086 -77.0996 36.7188 -75.4395 33.0566 -72.6562 C 32.9102 -72.7539 32.7637 -72.9004 32.6172 -72.998 C 30.7617 -74.3164 30.3711 -76.416 31.4453 -78.3691 L 33.0078 -81.2012 C 33.5938 -82.2266 33.6914 -82.8125 33.6914 -83.8867 C 33.6914 -86.1816 31.8359 -88.0371 29.4434 -88.0371 C 27.5391 -88.0371 26.2207 -87.1582 25.0977 -85.0586 L 23.0469 -81.1523 C 19.873 -75.0977 20.8008 -70.2637 25.8789 -66.748 L 27.0996 -65.918 C 25.293 -62.7441 24.2676 -59.082 24.2676 -55.2246 C 24.2676 -48.8281 27.8809 -44.4824 35.0586 -43.2129 L 35.0586 -42.7734 C 34.082 -42.1387 33.3496 -41.2109 32.8613 -40.1367 L 26.2695 -40.625 C 22.9004 -40.8691 20.7031 -42.0898 20.7031 -45.9473 L 20.7031 -56.2988 C 20.7031 -59.4238 18.9453 -61.2793 15.7715 -61.2793 C 12.6465 -61.2793 10.7422 -59.4238 10.7422 -56.2988 L 10.7422 -43.7988 C 10.7422 -36.7676 14.0137 -32.1777 20.9473 -31.6406 L 33.9844 -30.6641 C 34.6191 -29.834 35.4004 -29.1504 36.377 -28.7109 L 36.377 -28.2715 L 18.75 -24.4141 C 11.5234 -22.8516 8.93555 -19.1895 9.96094 -12.6465 L 12.8906 6.34766 C 13.3789 9.57031 14.8926 11.5723 18.1152 11.5723 C 21.1426 11.5723 23.5352 9.375 22.9492 5.61523 L 20.459 -10.6934 C 20.1172 -13.0859 20.752 -14.3555 23.0469 -15.2344 C 23.291 -15.332 23.5352 -15.4297 23.8281 -15.5273 C 23.7793 -14.9902 23.7793 -14.4531 23.7793 -13.8672 C 23.7793 -0.0488281 34.1309 12.8418 46.1914 12.8418 Z"/>
  </g>
  <g id="Heavy-S" transform="matrix(1 0 0 1 2591.4 696)">
   <path d="M 45.2637 12.1094 C 57.1289 12.1094 67.1875 -0.488281 67.1875 -14.0137 C 67.1875 -14.8438 67.1387 -15.5273 67.041 -16.2109 C 67.4805 -16.1133 67.9688 -15.918 68.4082 -15.7715 C 70.6543 -14.9414 71.2891 -13.7207 70.9473 -11.5234 L 68.4082 5.17578 C 67.8711 8.64258 70.0195 10.6445 72.8516 10.6445 C 75.7812 10.6445 77.1973 8.83789 77.6367 5.85938 L 80.6152 -13.2812 C 81.543 -19.3359 79.1504 -22.7539 72.4609 -24.1699 L 54.7852 -28.125 L 54.7852 -28.5645 C 55.8594 -29.0527 56.6895 -29.8828 57.3242 -30.8594 L 70.2148 -32.0312 C 76.6602 -32.6172 79.6875 -36.7676 79.6875 -43.2617 L 79.6875 -56.0059 C 79.6875 -58.8379 77.9297 -60.5469 75.0488 -60.5469 C 72.1191 -60.5469 70.5078 -58.8379 70.5078 -56.0059 L 70.5078 -45.2148 C 70.5078 -41.6504 68.457 -40.5762 65.3809 -40.2832 L 58.252 -39.6484 C 57.7637 -40.7227 57.0312 -41.6504 56.0547 -42.334 L 56.0547 -42.7246 C 63.0859 -43.9941 66.6992 -48.2422 66.6992 -54.4922 C 66.6992 -58.5449 65.5762 -62.3535 63.5254 -65.5762 L 64.502 -66.2598 C 69.2871 -69.5312 70.2148 -74.2188 67.2363 -79.8828 L 65.2344 -83.6426 C 64.209 -85.5957 62.9883 -86.4258 61.1816 -86.4258 C 58.9355 -86.4258 57.2266 -84.668 57.2266 -82.5195 C 57.2266 -81.543 57.3242 -81.0059 57.8613 -80.0293 L 59.375 -77.2949 C 60.4492 -75.3418 60.1562 -73.3398 58.3984 -72.0703 C 58.252 -71.9238 58.1055 -71.7773 57.959 -71.6797 C 54.3945 -74.3164 50 -75.8789 45.2637 -75.8789 C 40.5762 -75.8789 36.1816 -74.3164 32.6172 -71.6797 C 32.4707 -71.7773 32.3242 -71.9727 32.1777 -72.0703 C 30.4199 -73.3398 30.127 -75.3418 31.2012 -77.2949 L 32.7148 -80.0293 C 33.3008 -81.0059 33.3984 -81.543 33.3984 -82.5195 C 33.3984 -84.668 31.6406 -86.4258 29.3945 -86.4258 C 27.6367 -86.4258 26.416 -85.5957 25.3418 -83.6426 L 23.3887 -79.8828 C 20.4102 -74.2188 21.2891 -69.5312 26.0742 -66.2598 L 27.0508 -65.5762 C 25 -62.3535 23.8281 -58.5449 23.8281 -54.4922 C 23.8281 -48.2422 27.4902 -43.9941 34.5215 -42.7246 L 34.5215 -42.334 C 33.4961 -41.6504 32.7637 -40.7227 32.3242 -39.6484 L 25.1953 -40.2832 C 22.0703 -40.5762 20.0684 -41.6504 20.0684 -45.2148 L 20.0684 -56.0059 C 20.0684 -58.8379 18.4082 -60.5469 15.5273 -60.5469 C 12.6465 -60.5469 10.8887 -58.8379 10.8887 -56.0059 L 10.8887 -43.2617 C 10.8887 -36.7676 13.916 -32.6172 20.3125 -32.0312 L 33.2031 -30.8594 C 33.8379 -29.8828 34.668 -29.0527 35.791 -28.5645 L 35.791 -28.125 L 18.0664 -24.1699 C 11.377 -22.7539 8.98438 -19.3359 9.96094 -13.2812 L 12.9395 5.85938 C 13.3789 8.83789 14.7461 10.6445 17.7246 10.6445 C 20.5078 10.6445 22.7051 8.64258 22.168 5.17578 L 19.6289 -11.5234 C 19.2871 -13.8184 19.9219 -14.9902 22.2656 -15.8203 C 22.6562 -15.9668 23.0957 -16.1133 23.5352 -16.2109 C 23.3887 -15.5273 23.3398 -14.8438 23.3398 -14.0137 C 23.3398 -0.488281 33.4961 12.1094 45.2637 12.1094 Z"/>
  </g>
  <g id="Bold-S" transform="matrix(1 0 0 1 2295.72 696)">
   <path d="M 44.2383 11.2793 C 55.7617 11.2793 65.625 -1.02539 65.625 -14.209 C 65.625 -15.2344 65.5273 -16.1621 65.332 -16.9922 C 65.9668 -16.8457 66.6016 -16.6504 67.1875 -16.4551 C 69.5312 -15.6738 70.166 -14.5996 69.8242 -12.4023 L 67.2363 4.6875 C 66.748 7.8125 68.7012 9.61914 71.2402 9.61914 C 73.9258 9.61914 75.1465 7.95898 75.5371 5.32227 L 78.5645 -14.0137 C 79.4434 -19.5312 77.2461 -22.6074 71.1914 -23.9258 L 53.418 -27.9785 L 53.3691 -28.3691 C 54.5898 -28.9551 55.5176 -29.9316 56.1523 -31.1035 L 68.8965 -32.4707 C 74.707 -33.1055 77.4414 -36.7676 77.4414 -42.6758 L 77.4414 -55.6152 C 77.4414 -58.252 75.8789 -59.7656 73.291 -59.7656 C 70.6543 -59.7656 69.1895 -58.252 69.1895 -55.6152 L 69.1895 -44.4336 C 69.1895 -41.2109 67.334 -40.2344 64.502 -39.9414 L 56.7871 -39.1113 C 56.3477 -40.1855 55.6152 -41.1621 54.6387 -41.7969 L 54.6387 -42.2363 C 61.4746 -43.457 65.1855 -47.6074 65.1855 -53.7109 C 65.1855 -57.9102 63.8184 -61.9141 61.5723 -65.1855 L 62.3047 -65.6738 C 66.748 -68.75 67.627 -73.2422 64.8438 -78.5156 L 62.9883 -82.0312 C 62.0117 -83.8379 60.8887 -84.6191 59.2285 -84.6191 C 57.1289 -84.6191 55.5664 -83.0078 55.5664 -81.0059 C 55.5664 -80.127 55.6641 -79.5898 56.1523 -78.6621 L 57.6172 -76.123 C 58.7402 -74.1699 58.4961 -72.2656 56.8848 -70.9961 C 56.7383 -70.8496 56.5918 -70.752 56.3965 -70.6055 C 52.9785 -73.0957 48.7793 -74.5605 44.2383 -74.5605 C 39.7461 -74.5605 35.5957 -73.0957 32.1777 -70.6543 C 31.9824 -70.752 31.8359 -70.8984 31.6895 -70.9961 C 30.0781 -72.2656 29.834 -74.1699 30.957 -76.123 L 32.4219 -78.6621 C 32.959 -79.5898 33.0566 -80.127 33.0566 -81.0059 C 33.0566 -83.0078 31.4453 -84.6191 29.3457 -84.6191 C 27.7344 -84.6191 26.6113 -83.8379 25.6348 -82.0312 L 23.7305 -78.5156 C 20.9961 -73.2422 21.875 -68.75 26.2695 -65.6738 L 26.9531 -65.2344 C 24.707 -61.9629 23.3398 -57.959 23.3398 -53.7109 C 23.3398 -47.6074 27.002 -43.457 33.8867 -42.2363 L 33.8867 -41.7969 C 32.9102 -41.1621 32.1777 -40.1855 31.6895 -39.1113 L 23.9746 -39.9414 C 21.1426 -40.2344 19.3359 -41.2109 19.3359 -44.4336 L 19.3359 -55.6152 C 19.3359 -58.252 17.8223 -59.7656 15.2344 -59.7656 C 12.5977 -59.7656 11.0352 -58.252 11.0352 -55.6152 L 11.0352 -42.6758 C 11.0352 -36.7676 13.7695 -33.1055 19.6289 -32.4707 L 32.373 -31.1035 C 33.0078 -29.9316 33.8867 -28.9551 35.1074 -28.3691 L 35.1074 -27.9785 L 17.334 -23.9258 C 11.2793 -22.6074 9.08203 -19.5312 9.96094 -14.0137 L 12.9395 5.32227 C 13.3789 7.95898 14.5996 9.61914 17.2852 9.61914 C 19.8242 9.61914 21.7285 7.8125 21.2891 4.6875 L 18.6523 -12.4023 C 18.3594 -14.6484 18.9941 -15.6738 21.4355 -16.5039 C 21.9727 -16.6992 22.5586 -16.8457 23.1934 -16.9922 C 22.998 -16.1621 22.9004 -15.2344 22.9004 -14.209 C 22.9004 -1.02539 32.7637 11.2793 44.2383 11.2793 Z"/>
  </g>
  <g id="Semibold-S" transform="matrix(1 0 0 1 1999.71 696)">
   <path d="M 43.5547 10.6934 C 54.8828 10.6934 64.5508 -1.36719 64.5508 -14.3066 C 64.5508 -15.5273 64.4043 -16.6016 64.1602 -17.5293 C 64.8926 -17.334 65.625 -17.1387 66.3086 -16.9434 C 68.75 -16.1621 69.3848 -15.1855 69.0918 -13.0371 L 66.4551 4.3457 C 65.9668 7.22656 67.7734 8.93555 70.1172 8.93555 C 72.6074 8.93555 73.7305 7.42188 74.1211 4.93164 L 77.1484 -14.5508 C 77.9785 -19.6777 75.9277 -22.5098 70.2637 -23.7793 L 52.4414 -27.832 L 52.4414 -28.2227 C 53.7598 -28.8574 54.6875 -29.9805 55.3223 -31.25 L 67.9688 -32.7637 C 73.3887 -33.3984 75.9277 -36.7676 75.9277 -42.2363 L 75.9277 -55.3711 C 75.9277 -57.8125 74.5117 -59.2285 72.0703 -59.2285 C 69.6777 -59.2285 68.2617 -57.8125 68.2617 -55.3711 L 68.2617 -43.8965 C 68.2617 -40.8691 66.6016 -39.9902 63.916 -39.6973 L 55.8105 -38.7207 C 55.3711 -39.8438 54.6387 -40.8203 53.6621 -41.4551 L 53.6621 -41.8457 C 60.4004 -43.0664 64.1113 -47.1191 64.1113 -53.125 C 64.1113 -57.5195 62.6465 -61.5723 60.2539 -64.8926 L 60.791 -65.2832 C 64.9902 -68.2129 65.8691 -72.6074 63.2324 -77.5391 L 61.377 -80.957 C 60.498 -82.6172 59.4238 -83.3496 57.9102 -83.3496 C 55.9082 -83.3496 54.4434 -81.8848 54.4434 -79.9805 C 54.4434 -79.1504 54.541 -78.6621 54.9805 -77.7832 L 56.4453 -75.293 C 57.5195 -73.3398 57.373 -71.5332 55.8594 -70.2637 C 55.7129 -70.1172 55.5664 -70.0195 55.3711 -69.873 C 52.002 -72.2656 47.9004 -73.6328 43.5547 -73.6328 C 39.209 -73.6328 35.1562 -72.2656 31.8359 -69.9219 C 31.6895 -70.0195 31.4941 -70.166 31.3477 -70.3125 C 29.834 -71.5332 29.6387 -73.3398 30.7617 -75.293 L 32.2266 -77.7832 C 32.7148 -78.6621 32.8125 -79.1504 32.8125 -79.9805 C 32.8125 -81.8848 31.2988 -83.3496 29.3457 -83.3496 C 27.7832 -83.3496 26.709 -82.6172 25.8301 -80.957 L 23.9746 -77.5391 C 21.3867 -72.6074 22.2168 -68.2129 26.416 -65.2832 L 26.9043 -64.9902 C 24.4629 -61.6699 22.998 -57.5195 22.998 -53.125 C 22.998 -47.1191 26.709 -43.0664 33.4473 -41.8457 L 33.4473 -41.4551 C 32.4707 -40.8203 31.7383 -39.8438 31.25 -38.7207 L 23.1445 -39.6973 C 20.5078 -39.9902 18.7988 -40.8691 18.7988 -43.8965 L 18.7988 -55.3711 C 18.7988 -57.8125 17.4316 -59.2285 14.9902 -59.2285 C 12.5977 -59.2285 11.1816 -57.8125 11.1816 -55.3711 L 11.1816 -42.2363 C 11.1816 -36.7676 13.6719 -33.3984 19.1406 -32.7637 L 31.7871 -31.25 C 32.373 -29.9805 33.3496 -28.8574 34.668 -28.2227 L 34.668 -27.832 L 16.7969 -23.7793 C 11.1816 -22.5098 9.08203 -19.6777 9.91211 -14.5508 L 12.9883 4.93164 C 13.3301 7.42188 14.502 8.93555 16.9922 8.93555 C 19.3359 8.93555 21.0938 7.22656 20.6543 4.3457 L 18.0176 -13.0371 C 17.6758 -15.1855 18.3594 -16.1621 20.8496 -16.9434 C 21.5332 -17.1875 22.2168 -17.334 22.9492 -17.5293 C 22.7051 -16.6016 22.5586 -15.5273 22.5586 -14.3066 C 22.5586 -1.36719 32.2266 10.6934 43.5547 10.6934 Z"/>
  </g>
  <g id="Medium-S" transform="matrix(1 0 0 1 1703.54 696)">
   <path d="M 43.0176 10.3027 C 54.1504 10.3027 63.7207 -1.61133 63.7207 -14.4043 C 63.7207 -15.7715 63.5742 -16.9434 63.2812 -17.9688 C 64.0625 -17.7246 64.8926 -17.5293 65.6738 -17.2852 C 68.1152 -16.5527 68.7988 -15.625 68.5059 -13.5254 L 65.8203 4.10156 C 65.4297 6.78711 67.0898 8.39844 69.2871 8.39844 C 71.582 8.39844 72.7051 6.98242 73.0469 4.63867 L 76.123 -14.9414 C 76.9043 -19.7754 74.9512 -22.4609 69.5801 -23.6328 L 51.7578 -27.7344 L 51.709 -28.1738 C 53.0762 -28.8086 54.1016 -30.0293 54.6875 -31.3965 L 67.2363 -33.0078 C 72.4121 -33.6426 74.8047 -36.7676 74.8047 -41.9434 L 74.8047 -55.2246 C 74.8047 -57.4707 73.4375 -58.7891 71.1914 -58.7891 C 68.8965 -58.7891 67.5781 -57.4707 67.5781 -55.2246 L 67.5781 -43.5059 C 67.5781 -40.625 66.0156 -39.7949 63.4766 -39.502 L 55.0781 -38.4277 C 54.6387 -39.5508 53.9062 -40.5273 52.8809 -41.1621 L 52.8809 -41.5527 C 59.5703 -42.7734 63.2812 -46.7773 63.2812 -52.6855 C 63.2812 -57.1777 61.7676 -61.3281 59.2285 -64.6973 L 59.6191 -64.9902 C 63.6719 -67.7734 64.502 -72.0703 62.0117 -76.8066 L 60.2051 -80.0781 C 59.3262 -81.6895 58.3496 -82.4219 56.8848 -82.4219 C 54.9805 -82.4219 53.5645 -81.0059 53.5645 -79.1992 C 53.5645 -78.3691 53.6621 -77.9297 54.1016 -77.0508 L 55.5176 -74.6582 C 56.6406 -72.7051 56.543 -70.9961 55.0781 -69.7266 C 54.8828 -69.5801 54.7363 -69.4336 54.541 -69.2871 C 51.2695 -71.582 47.2656 -72.9492 43.0176 -72.9492 C 38.7695 -72.9492 34.8633 -71.582 31.5918 -69.3359 C 31.4453 -69.4336 31.25 -69.5801 31.0547 -69.7266 C 29.6387 -70.9961 29.4922 -72.7051 30.6641 -74.6582 L 32.0312 -77.0508 C 32.5195 -77.9297 32.6172 -78.3691 32.6172 -79.1992 C 32.6172 -81.0059 31.2012 -82.4219 29.2969 -82.4219 C 27.832 -82.4219 26.8555 -81.6895 25.9766 -80.0781 L 24.1699 -76.8066 C 21.6797 -72.0703 22.5098 -67.7734 26.5625 -64.9902 L 26.8555 -64.7949 C 24.3164 -61.4258 22.7539 -57.2266 22.7539 -52.6855 C 22.7539 -46.7773 26.4648 -42.7734 33.1055 -41.5527 L 33.1055 -41.1621 C 32.1289 -40.5273 31.3965 -39.5508 30.957 -38.4277 L 22.5098 -39.502 C 20.0195 -39.7949 18.457 -40.625 18.457 -43.5059 L 18.457 -55.2246 C 18.457 -57.4707 17.1387 -58.7891 14.8438 -58.7891 C 12.5977 -58.7891 11.2305 -57.4707 11.2305 -55.2246 L 11.2305 -41.9434 C 11.2305 -36.7676 13.623 -33.6426 18.75 -33.0078 L 31.3477 -31.3965 C 31.9336 -30.0293 32.959 -28.8086 34.3262 -28.1738 L 34.3262 -27.7344 L 16.4062 -23.6328 C 11.084 -22.4609 9.13086 -19.7754 9.91211 -14.9414 L 12.9883 4.63867 C 13.3301 6.98242 14.4043 8.39844 16.748 8.39844 C 18.9453 8.39844 20.6055 6.78711 20.2148 4.10156 L 17.5293 -13.5254 C 17.1875 -15.625 17.9199 -16.5527 20.3613 -17.334 C 21.1426 -17.5293 21.9727 -17.7246 22.7539 -17.9688 C 22.4609 -16.9434 22.3145 -15.7715 22.3145 -14.4043 C 22.3145 -1.61133 31.8848 10.3027 43.0176 10.3027 Z"/>
  </g>
  <g id="Regular-S" transform="matrix(1 0 0 1 1407.53 696)">
   <path d="M 42.334 9.7168 C 53.2715 9.7168 62.6465 -2.00195 62.6465 -14.502 C 62.6465 -16.0156 62.4512 -17.334 62.1094 -18.5059 C 62.9883 -18.2129 63.916 -18.0176 64.8438 -17.7734 C 67.334 -17.041 68.0664 -16.2109 67.7734 -14.1602 L 65.0391 3.75977 C 64.6484 6.25 66.1621 7.71484 68.2129 7.71484 C 70.3125 7.71484 71.2891 6.39648 71.6309 4.24805 L 74.707 -15.4297 C 75.4395 -19.9219 73.6328 -22.3633 68.7012 -23.4863 L 50.8301 -27.6367 L 50.7812 -28.0273 C 52.2461 -28.7598 53.2715 -30.0293 53.8574 -31.543 L 66.3574 -33.3008 C 71.0938 -33.9844 73.291 -36.7676 73.291 -41.5527 L 73.291 -54.9805 C 73.291 -57.0312 72.0703 -58.252 69.9707 -58.252 C 67.9199 -58.252 66.6992 -57.0312 66.6992 -54.9805 L 66.6992 -42.9688 C 66.6992 -40.332 65.2344 -39.5508 62.9395 -39.2578 L 54.1016 -38.0859 C 53.6621 -39.1602 52.9297 -40.1855 51.9531 -40.8203 L 51.9531 -41.2109 C 58.4961 -42.3828 62.207 -46.3379 62.207 -52.1484 C 62.207 -56.7871 60.5957 -61.0352 57.9102 -64.4531 L 58.1055 -64.5996 C 61.9141 -67.2363 62.7441 -71.4355 60.4004 -75.8789 L 58.6426 -79.0039 C 57.8613 -80.5176 56.8848 -81.1523 55.5176 -81.1523 C 53.7598 -81.1523 52.4414 -79.8828 52.4414 -78.1738 C 52.4414 -77.3926 52.5391 -77.002 52.9785 -76.1719 L 54.3457 -73.8281 C 55.4688 -71.875 55.4199 -70.2637 54.0527 -68.9941 C 53.8574 -68.8477 53.7109 -68.7012 53.5156 -68.5547 C 50.293 -70.752 46.4355 -72.0215 42.334 -72.0215 C 38.2324 -72.0215 34.4238 -70.752 31.25 -68.6035 C 31.1035 -68.7012 30.9082 -68.8965 30.7129 -69.043 C 29.3945 -70.2637 29.2969 -71.875 30.4688 -73.8281 L 31.8359 -76.1719 C 32.2754 -77.002 32.373 -77.3926 32.373 -78.1738 C 32.373 -79.8828 31.0547 -81.1523 29.2969 -81.1523 C 27.9297 -81.1523 26.9531 -80.5176 26.1719 -79.0039 L 24.4141 -75.8789 C 22.0703 -71.4355 22.9004 -67.2363 26.709 -64.5996 L 26.8066 -64.502 C 24.0723 -61.1328 22.4121 -56.8359 22.4121 -52.1484 C 22.4121 -46.3379 26.1719 -42.3828 32.7148 -41.2109 L 32.7148 -40.8203 C 31.6895 -40.1855 30.957 -39.1602 30.5176 -38.0859 L 21.7285 -39.2578 C 19.3848 -39.5508 17.9688 -40.332 17.9688 -42.9688 L 17.9688 -54.9805 C 17.9688 -57.0312 16.6992 -58.252 14.6484 -58.252 C 12.5977 -58.252 11.3281 -57.0312 11.3281 -54.9805 L 11.3281 -41.5527 C 11.3281 -36.7676 13.5254 -33.9844 18.2617 -33.3008 L 30.7617 -31.543 C 31.3477 -30.0293 32.373 -28.7598 33.8867 -28.0273 L 33.8867 -27.6367 L 15.918 -23.4863 C 10.9863 -22.3633 9.17969 -19.9219 9.91211 -15.4297 L 12.9883 4.24805 C 13.3301 6.39648 14.3066 7.71484 16.4551 7.71484 C 18.457 7.71484 19.9707 6.25 19.5801 3.75977 L 16.8945 -14.1602 C 16.5527 -16.2109 17.2852 -17.041 19.8242 -17.7734 C 20.7031 -18.0176 21.6309 -18.2129 22.5098 -18.5059 C 22.168 -17.334 21.9727 -16.0156 21.9727 -14.502 C 21.9727 -2.00195 31.3477 9.7168 42.334 9.7168 Z"/>
  </g>
  <g id="Light-S" transform="matrix(1 0 0 1 1112.04 696)">
   <path d="M 41.0645 9.7168 C 51.7578 9.7168 61.2793 -1.85547 61.2793 -14.3555 C 61.2793 -16.6992 60.791 -18.5547 59.8633 -20.0684 C 61.084 -19.7266 62.3535 -19.4336 63.623 -19.0918 C 66.3086 -18.3594 67.1875 -17.1875 66.7969 -14.6973 L 63.8672 4.00391 C 63.623 5.95703 64.7949 7.08008 66.4062 7.08008 C 68.0664 7.08008 68.8477 6.05469 69.0918 4.3457 L 72.2656 -15.625 C 72.9492 -20.1172 71.1426 -22.6074 66.2598 -23.7305 L 49.5605 -27.6367 L 49.5117 -28.0273 C 51.3184 -28.9062 52.4414 -30.7129 52.8809 -32.6172 L 64.0137 -34.1797 C 68.8477 -34.8633 70.9473 -37.3535 70.9473 -42.041 L 70.9473 -55.1758 C 70.9473 -56.8359 70.0195 -57.7637 68.3594 -57.7637 C 66.6992 -57.7637 65.7227 -56.7871 65.7227 -55.1758 L 65.7227 -43.1152 C 65.7227 -40.2832 64.3555 -39.3066 61.6699 -38.9648 L 52.9785 -37.7441 C 52.5391 -38.9648 51.8066 -40.0879 50.6836 -40.8203 L 50.6836 -41.2109 C 57.2266 -42.3828 60.8398 -46.3379 60.8398 -52.1484 C 60.8398 -57.2754 58.7891 -61.9629 55.5664 -65.4297 L 56.0059 -65.7715 C 59.668 -68.457 60.2051 -72.2168 57.7637 -76.3184 L 55.0781 -80.4688 C 54.3945 -81.5918 53.6621 -82.1289 52.5879 -82.1289 C 51.2207 -82.1289 50.1465 -81.1035 50.1465 -79.7852 C 50.1465 -79.1504 50.2441 -78.8086 50.6836 -78.125 L 53.1738 -74.5117 C 54.4922 -72.4609 54.541 -70.7031 52.7832 -69.1895 C 52.5879 -68.9941 52.3438 -68.7988 52.0508 -68.6035 C 48.877 -70.752 45.1172 -72.0215 41.0645 -72.0215 C 37.0605 -72.0215 33.3496 -70.752 30.1758 -68.6523 C 29.9316 -68.7988 29.6875 -69.043 29.4434 -69.2383 C 27.7344 -70.7031 27.7832 -72.4609 29.1016 -74.5117 L 31.6406 -78.125 C 32.0312 -78.8086 32.1289 -79.1504 32.1289 -79.7852 C 32.1289 -81.1035 31.1035 -82.1289 29.6875 -82.1289 C 28.6621 -82.1289 27.8809 -81.5918 27.2461 -80.4688 L 24.5117 -76.3184 C 22.0703 -72.2168 22.6074 -68.457 26.2695 -65.7715 L 26.6602 -65.4785 C 23.3887 -62.0117 21.3379 -57.2754 21.3379 -52.1484 C 21.3379 -46.3379 24.9023 -42.3828 31.4453 -41.2109 L 31.4453 -40.8203 C 30.3711 -40.0879 29.6387 -38.9648 29.1992 -37.7441 L 20.459 -38.9648 C 17.8223 -39.3066 16.4062 -40.2832 16.4062 -43.1152 L 16.4062 -55.1758 C 16.4062 -56.7871 15.4297 -57.7637 13.8184 -57.7637 C 12.1582 -57.7637 11.1816 -56.8359 11.1816 -55.1758 L 11.1816 -42.041 C 11.1816 -37.3535 13.3301 -34.8633 18.1152 -34.1797 L 29.2969 -32.6172 C 29.6875 -30.7129 30.8594 -28.9062 32.6172 -28.0273 L 32.6172 -27.6367 L 15.918 -23.7305 C 10.9863 -22.6074 9.17969 -20.1172 9.91211 -15.625 L 13.0371 4.3457 C 13.3301 6.05469 14.0625 7.08008 15.7715 7.08008 C 17.3828 7.08008 18.5547 5.95703 18.2617 4.00391 L 15.3809 -14.6973 C 14.9902 -17.1875 15.8203 -18.3594 18.5547 -19.0918 C 19.7754 -19.4336 21.0449 -19.7266 22.3145 -20.0684 C 21.3867 -18.5547 20.8984 -16.6992 20.8984 -14.3555 C 20.8984 -1.85547 30.3711 9.7168 41.0645 9.7168 Z"/>
  </g>
  <g id="Thin-S" transform="matrix(1 0 0 1 816.969 696)">
   <path d="M 39.4531 9.7168 C 49.8047 9.7168 59.4727 -1.70898 59.4727 -14.209 C 59.4727 -17.5781 58.5938 -20.166 56.8848 -22.168 C 58.5938 -21.7285 60.3027 -21.3379 62.0117 -20.8984 C 64.9902 -20.1172 66.0156 -18.457 65.5273 -15.3809 L 62.4023 4.3457 C 62.207 5.51758 62.9883 6.29883 64.0625 6.29883 C 65.1367 6.29883 65.5762 5.66406 65.7715 4.49219 L 68.9941 -15.918 C 69.6777 -20.4102 67.8711 -22.9004 63.0371 -24.0723 L 47.9004 -27.6367 L 47.9004 -28.0273 C 50.1465 -29.0527 51.3672 -31.543 51.5625 -34.0332 L 60.9863 -35.3027 C 65.8691 -35.9863 67.9199 -38.1836 67.9199 -42.6758 L 67.9199 -55.4199 C 67.9199 -56.543 67.2852 -57.1289 66.2109 -57.1289 C 65.1367 -57.1289 64.502 -56.4453 64.502 -55.4199 L 64.502 -43.2617 C 64.502 -40.2344 63.1836 -38.9648 60.0586 -38.5254 L 51.4648 -37.3047 C 51.0742 -38.7207 50.293 -39.9902 49.0723 -40.8203 L 49.0723 -41.2109 C 55.6152 -42.3828 59.0332 -46.3379 59.0332 -52.1484 C 59.0332 -57.9102 56.4453 -63.1348 52.5391 -66.6992 L 53.1738 -67.2363 C 56.6895 -70.0195 56.8359 -73.2422 54.2969 -76.9531 L 50.293 -82.3242 C 49.8535 -83.0566 49.3652 -83.3984 48.6816 -83.3984 C 47.8516 -83.3984 47.168 -82.7637 47.168 -81.8848 C 47.168 -81.4941 47.2656 -81.2012 47.6074 -80.6641 L 51.6602 -75.3906 C 53.2227 -73.1934 53.3691 -71.2891 51.1719 -69.4824 C 50.8301 -69.2383 50.5371 -68.9453 50.1953 -68.7012 C 47.0703 -70.8008 43.4082 -72.0215 39.4531 -72.0215 C 35.5957 -72.0215 31.8848 -70.8008 28.7598 -68.7012 C 28.4668 -68.9453 28.125 -69.2383 27.7832 -69.4824 C 25.5859 -71.2891 25.7324 -73.1934 27.2949 -75.3906 L 31.3477 -80.6641 C 31.6895 -81.2012 31.7871 -81.4941 31.7871 -81.8848 C 31.7871 -82.7637 31.1035 -83.3984 30.2734 -83.3984 C 29.5898 -83.3984 29.1016 -83.0566 28.6621 -82.3242 L 24.6582 -76.9531 C 22.1191 -73.2422 22.2656 -70.0195 25.7812 -67.2363 L 26.416 -66.748 C 22.4609 -63.1348 19.9219 -57.9102 19.9219 -52.1484 C 19.9219 -46.3379 23.291 -42.3828 29.834 -41.2109 L 29.834 -40.8203 C 28.6133 -39.9902 27.832 -38.7207 27.4414 -37.3047 L 18.8477 -38.5254 C 15.7227 -38.9648 14.4043 -40.2344 14.4043 -43.2617 L 14.4043 -55.4199 C 14.4043 -56.4453 13.7695 -57.1289 12.6953 -57.1289 C 11.6211 -57.1289 11.0352 -56.543 11.0352 -55.4199 L 11.0352 -42.6758 C 11.0352 -38.1836 13.0371 -35.9863 17.9688 -35.3027 L 27.3438 -34.0332 C 27.5391 -31.543 28.8086 -29.0527 31.0059 -28.0273 L 31.0059 -27.6367 L 15.8691 -24.0723 C 11.0352 -22.9004 9.22852 -20.4102 9.91211 -15.918 L 13.1348 4.49219 C 13.3301 5.66406 13.7695 6.29883 14.8926 6.29883 C 15.918 6.29883 16.6992 5.51758 16.5527 4.3457 L 13.4277 -15.3809 C 12.8906 -18.457 13.9648 -20.1172 16.8945 -20.8984 C 18.6035 -21.3379 20.3125 -21.7285 22.0215 -22.168 C 20.3125 -20.166 19.4824 -17.5781 19.4824 -14.209 C 19.4824 -1.70898 29.1016 9.7168 39.4531 9.7168 Z"/>
  </g>
  <g id="Ultralight-S" transform="matrix(1 0 0 1 521.088 696)">
   <path d="M 38.623 9.7168 C 48.8281 9.7168 58.4961 -1.61133 58.4961 -14.0625 C 58.4961 -18.0176 57.4707 -20.9961 55.3711 -23.2422 C 57.3242 -22.7539 59.2285 -22.2656 61.1816 -21.8262 C 64.2578 -21.0449 65.4297 -19.1406 64.8438 -15.7227 L 61.6211 4.54102 C 61.4746 5.32227 62.0605 5.85938 62.8418 5.85938 C 63.623 5.85938 63.916 5.41992 64.0625 4.58984 L 67.334 -16.0645 C 68.0176 -20.5566 66.2109 -23.0469 61.377 -24.2188 L 47.0703 -27.6367 L 47.0703 -28.0273 C 49.5117 -29.1992 50.8301 -31.9824 50.8789 -34.7656 L 59.375 -35.8887 C 64.3555 -36.5723 66.3086 -38.5742 66.3086 -43.0176 L 66.3086 -55.5176 C 66.3086 -56.3965 65.918 -56.8359 65.0879 -56.8359 C 64.3555 -56.8359 63.8672 -56.2988 63.8672 -55.5176 L 63.8672 -43.4082 C 63.8672 -40.1855 62.5977 -38.8184 59.2285 -38.3301 L 50.7324 -37.0605 C 50.3418 -38.623 49.5605 -39.9414 48.2422 -40.8203 L 48.2422 -41.2109 C 54.7852 -42.3828 58.0566 -46.3379 58.0566 -52.1484 C 58.0566 -58.2031 55.2734 -63.7207 50.9277 -67.3828 L 51.7578 -68.0176 C 55.1758 -70.8496 55.127 -73.7793 52.4902 -77.2949 L 47.8516 -83.3008 C 47.5098 -83.7891 47.1191 -84.0332 46.6797 -84.0332 C 46.0938 -84.0332 45.6055 -83.6426 45.6055 -83.0078 C 45.6055 -82.666 45.7031 -82.4219 46.0449 -81.9824 L 50.8789 -75.8301 C 52.5879 -73.584 52.7832 -71.6309 50.3418 -69.6289 C 49.9512 -69.3359 49.5605 -69.043 49.2188 -68.75 C 46.0938 -70.8008 42.4805 -72.0215 38.623 -72.0215 C 34.8145 -72.0215 31.1523 -70.8008 28.0273 -68.75 C 27.6855 -69.043 27.2949 -69.3359 26.9043 -69.6289 C 24.4629 -71.6309 24.6582 -73.584 26.3672 -75.8301 L 31.2012 -81.9824 C 31.543 -82.4219 31.6406 -82.666 31.6406 -83.0078 C 31.6406 -83.6426 31.1523 -84.0332 30.5664 -84.0332 C 30.127 -84.0332 29.7363 -83.7891 29.3945 -83.3008 L 24.7559 -77.2949 C 22.1191 -73.7793 22.0703 -70.8496 25.4883 -68.0176 L 26.3184 -67.3828 C 21.9727 -63.7207 19.1406 -58.252 19.1406 -52.1484 C 19.1406 -46.3379 22.4609 -42.3828 29.0039 -41.2109 L 29.0039 -40.8203 C 27.6855 -39.9414 26.9043 -38.623 26.5137 -37.0605 L 18.0176 -38.3301 C 14.6484 -38.8184 13.3789 -40.1855 13.3789 -43.4082 L 13.3789 -55.5176 C 13.3789 -56.2988 12.8906 -56.8359 12.1582 -56.8359 C 11.3281 -56.8359 10.8887 -56.3965 10.8887 -55.5176 L 10.8887 -43.0176 C 10.8887 -38.5742 12.8906 -36.5723 17.8223 -35.8887 L 26.3672 -34.7656 C 26.416 -31.9824 27.7344 -29.1992 30.1758 -28.0273 L 30.1758 -27.6367 L 15.8691 -24.2188 C 11.0352 -23.0469 9.22852 -20.5566 9.91211 -16.0645 L 13.1836 4.58984 C 13.3301 5.41992 13.623 5.85938 14.4043 5.85938 C 15.1855 5.85938 15.7227 5.32227 15.625 4.54102 L 12.4023 -15.7227 C 11.8164 -19.1406 12.9883 -21.0449 16.0645 -21.8262 C 18.0176 -22.2656 19.9219 -22.7539 21.875 -23.2422 C 19.7754 -20.9961 18.7012 -18.0176 18.7012 -14.0625 C 18.7012 -1.61133 28.418 9.7168 38.623 9.7168 Z"/>
  </g>
 </g>
</svg>
