<svg
   xmlns="http://www.w3.org/2000/svg"
   width="68.11528"
   height="38.2812"
   viewBox="0 0 18.022167 10.128568">
  <g
     transform="translate(-9.8877258,-17.525002)">
    <g
       transform="matrix(0.26458333,0,0,0.26458333,7.3039055,31.400122)">
      <path fill="#ABB2BF" d="m 43.8477,-14.1602 c 1.0742,0 2.1484,-0.3906 2.8808,-1.2207 L 76.709,-45.5566 c 0.7324,-0.7325 1.1719,-1.709 1.1719,-2.8321 0,-2.2949 -1.709,-4.0527 -4.0039,-4.0527 -1.0743,0 -2.1485,0.4883 -2.8809,1.1719 L 43.8477,-23.9746 16.6504,-51.2695 c -0.7324,-0.6836 -1.709,-1.1719 -2.832,-1.1719 -2.295,0 -4.05278,1.7578 -4.05278,4.0527 0,1.1231 0.43948,2.0996 1.17188,2.8321 l 30.0293,30.1757 c 0.7812,0.8301 1.7578,1.2207 2.8809,1.2207 z"/>
    </g>
  </g>
</svg>
