<svg
   xmlns="http://www.w3.org/2000/svg"
   width="61.352673"
   height="61.334305"
   viewBox="0 0 16.232894 16.228035">
  <g
     transform="translate(-10.02641,-4.6478873)">
    <g
       transform="matrix(0.26458333,0,0,0.26458333,7.4506805,22.074169)">
      <path fill="#ABB2BF" d="m 10.8887,-11.2305 c -1.5137,1.46488 -1.56253,4.05277 0,5.56644 1.5625,1.51367 4.1015,1.51367 5.5664,0 L 40.4297,-29.6387 64.3555,-5.66406 c 1.5136,1.51367 4.1015,1.51367 5.6152,0 1.4648,-1.5625 1.4648,-4.10156 0,-5.56644 L 45.9961,-35.2051 69.9707,-59.1309 c 1.4648,-1.5136 1.5137,-4.1015 0,-5.6152 -1.5625,-1.4648 -4.1016,-1.4648 -5.6152,0 L 40.4297,-40.7715 16.4551,-64.7461 c -1.4649,-1.4648 -4.0528,-1.5137 -5.5664,0 -1.5137,1.5625 -1.5137,4.1016 0,5.6152 l 23.9746,23.9258 z"/>
    </g>
  </g>
</svg>
